<?xml version="1.0" encoding="UTF-8" standalone="no"?><!DOCTYPE svg PUBLIC "-//W3C//DTD SVG 1.1//EN" "http://www.w3.org/Graphics/SVG/1.1/DTD/svg11.dtd"><svg width="100%" height="100%" viewBox="0 0 2136 2136" version="1.1" xmlns="http://www.w3.org/2000/svg" xmlns:xlink="http://www.w3.org/1999/xlink" xml:space="preserve" xmlns:serif="http://www.serif.com/" style="fill-rule:evenodd;clip-rule:evenodd;stroke-linejoin:round;stroke-miterlimit:2;"><rect id="d10_7" x="1.955" y="1.463" width="2133.33" height="2133.33" style="fill:none;"/><g id="d10_71" serif:id="d10_7"><path d="M1074.14,92.525l640.086,1244.52l-641.727,298.444l-638.444,-298.444l640.085,-1244.52Z" style="fill:#083590;"/><path d="M900.374,723.001l340.662,-0l0,71.396l-182.6,438.627l-108.622,0l175.383,-421.205l-224.823,0l0,-88.818Z" style="fill:#0f0;fill-rule:nonzero;"/><path d="M1074.14,92.525l-1012.1,754.262l-10.203,469.229l382.214,21.031l640.085,-1244.52Z" style="fill:#002570;"/><path d="M1074.14,92.525l640.086,1244.52l371.175,-18.087l-6.448,-474.798l-1004.81,-751.637Z" style="fill:#002570;"/><path d="M1072.37,1635.37l641.854,-298.321l371.175,-18.087l-1014.19,724.774l1.162,-408.366Z"/><path d="M1072.48,1635.38l-638.586,-298.791l-382.045,-20.574l1019.37,727.704l1.266,-408.339Z" style="fill:#001848;"/></g></svg>