<?xml version="1.0" encoding="UTF-8" standalone="no"?><!DOCTYPE svg PUBLIC "-//W3C//DTD SVG 1.1//EN" "http://www.w3.org/Graphics/SVG/1.1/DTD/svg11.dtd"><svg width="100%" height="100%" viewBox="0 0 2136 2136" version="1.1" xmlns="http://www.w3.org/2000/svg" xmlns:xlink="http://www.w3.org/1999/xlink" xml:space="preserve" xmlns:serif="http://www.serif.com/" style="fill-rule:evenodd;clip-rule:evenodd;stroke-linejoin:round;stroke-miterlimit:2;"><rect id="d10_4" x="1.206" y="1.378" width="2133.33" height="2133.33" style="fill:none;"/><g id="d10_41" serif:id="d10_4"><path d="M1073.39,92.44l640.086,1244.52l-641.727,298.444l-638.444,-298.444l640.085,-1244.52Z" style="fill:#083590;"/><path d="M1065.27,839.215l-136.049,201.55l136.049,0l-0,-201.55Zm-9.383,-112.048l111.509,0l0,313.598l59.183,0l-0,86.428l-59.183,-0l0,109.998l-102.126,0l-0,-109.998l-213.636,-0l-0,-97.701l204.253,-302.325Z" style="fill:#0f0;fill-rule:nonzero;"/><path d="M1073.39,92.44l-1012.1,754.262l-10.203,469.229l382.214,21.031l640.085,-1244.52Z" style="fill:#002570;"/><path d="M1073.39,92.44l640.086,1244.52l371.174,-18.087l-6.447,-474.798l-1004.81,-751.637Z" style="fill:#002570;"/><path d="M1071.62,1635.28l641.854,-298.321l371.174,-18.087l-1014.19,724.774l1.163,-408.366Z"/><path d="M1071.73,1635.29l-638.586,-298.791l-382.046,-20.575l1019.37,727.705l1.266,-408.339Z" style="fill:#001848;"/></g></svg>