<?xml version="1.0" encoding="UTF-8" standalone="no"?><!DOCTYPE svg PUBLIC "-//W3C//DTD SVG 1.1//EN" "http://www.w3.org/Graphics/SVG/1.1/DTD/svg11.dtd"><svg width="100%" height="100%" viewBox="0 0 2136 2136" version="1.1" xmlns="http://www.w3.org/2000/svg" xmlns:xlink="http://www.w3.org/1999/xlink" xml:space="preserve" xmlns:serif="http://www.serif.com/" style="fill-rule:evenodd;clip-rule:evenodd;stroke-linejoin:round;stroke-miterlimit:2;"><rect id="d10_3" x="0.467" y="0.28" width="2133.33" height="2133.33" style="fill:none;"/><g id="d10_31" serif:id="d10_3"><path d="M1072.65,91.343l640.086,1244.52l-641.726,298.444l-638.445,-298.444l640.085,-1244.52Z" style="fill:#083590;"/><path d="M1044.22,1014.9l-57.018,-0l0,-88.819l57.018,0c26.464,0 46.973,-4.953 61.528,-14.86c14.555,-9.906 21.833,-23.855 21.833,-41.847c-0,-18.902 -7.278,-33.649 -21.833,-44.238c-14.555,-10.59 -35.064,-15.885 -61.528,-15.885c-20.209,-0 -41.861,2.391 -64.957,7.174c-23.096,4.782 -47.033,11.728 -71.813,20.838l-0,-91.552c24.78,-7.06 49.198,-12.469 73.257,-16.226c24.058,-3.758 47.153,-5.637 69.287,-5.637c56.777,0 101.044,11.729 132.8,35.186c31.757,23.457 47.635,55.796 47.635,97.017c0,30.29 -9.142,55.056 -27.426,74.3c-18.284,19.245 -44.387,31.827 -78.309,37.748c38.493,6.377 67.844,20.896 88.053,43.556c20.208,22.66 30.313,52.437 30.313,89.331c-0,49.419 -16.721,87.11 -50.161,113.073c-33.441,25.962 -82.038,38.943 -145.792,38.943c-27.186,0 -53.95,-2.163 -80.294,-6.49c-26.344,-4.327 -51.544,-10.59 -75.602,-18.789l-0,-93.601c22.614,10.704 47.033,18.845 73.256,24.425c26.224,5.58 53.77,8.369 82.64,8.369c28.869,0 51.725,-6.319 68.565,-18.959c16.841,-12.639 25.261,-29.663 25.261,-51.071c0,-26.19 -8.42,-46.402 -25.261,-60.635c-16.84,-14.234 -40.658,-21.351 -71.452,-21.351Z" style="fill:#0f0;fill-rule:nonzero;"/><path d="M1072.65,91.343l-1012.1,754.261l-10.202,469.229l382.213,21.032l640.085,-1244.52Z" style="fill:#002570;"/><path d="M1072.65,91.343l640.086,1244.52l371.175,-18.088l-6.447,-474.797l-1004.81,-751.637Z" style="fill:#002570;"/><path d="M1070.88,1634.19l641.854,-298.321l371.175,-18.088l-1014.19,724.775l1.162,-408.366Z"/><path d="M1070.99,1634.19l-638.587,-298.791l-382.045,-20.574l1019.37,727.705l1.266,-408.34Z" style="fill:#001848;"/></g></svg>