<?xml version="1.0" encoding="UTF-8" standalone="no"?><!DOCTYPE svg PUBLIC "-//W3C//DTD SVG 1.1//EN" "http://www.w3.org/Graphics/SVG/1.1/DTD/svg11.dtd"><svg width="100%" height="100%" viewBox="0 0 2136 2136" version="1.1" xmlns="http://www.w3.org/2000/svg" xmlns:xlink="http://www.w3.org/1999/xlink" xml:space="preserve" xmlns:serif="http://www.serif.com/" style="fill-rule:evenodd;clip-rule:evenodd;stroke-linejoin:round;stroke-miterlimit:2;"><rect id="d10_8" x="0.625" y="0.891" width="2133.33" height="2133.33" style="fill:none;"/><g id="d10_81" serif:id="d10_8"><path d="M1072.81,91.953l640.086,1244.52l-641.727,298.444l-638.445,-298.444l640.086,-1244.52Z" style="fill:#083590;"/><path d="M1067.11,1005.17c-23.817,-0 -43.064,7.116 -57.739,21.35c-14.676,14.234 -22.013,33.079 -22.013,56.537c-0,23.457 7.337,42.359 22.013,56.707c14.675,14.348 33.922,21.521 57.739,21.521c23.818,0 43.124,-7.287 57.92,-21.863c14.796,-14.575 22.194,-33.364 22.194,-56.365c-0,-23.458 -7.338,-42.303 -22.014,-56.537c-14.675,-14.234 -34.042,-21.35 -58.1,-21.35Zm-79.031,-42.702c-27.185,-8.882 -47.875,-22.831 -62.069,-41.847c-14.195,-19.016 -21.292,-42.303 -21.292,-69.859c0,-42.36 14.555,-75.838 43.666,-100.434c29.11,-24.596 68.685,-36.893 118.726,-36.893c50.282,-0 89.977,12.297 119.088,36.893c29.11,24.596 43.665,58.074 43.665,100.434c-0,27.329 -6.977,50.501 -20.931,69.517c-13.953,19.017 -34.282,33.08 -60.987,42.189c29.832,8.654 53.169,24.141 70.009,46.459c16.841,22.319 25.261,49.078 25.261,80.279c0,48.964 -15.277,86.769 -45.83,113.414c-30.554,26.646 -73.979,39.969 -130.275,39.969c-56.055,-0 -99.36,-13.323 -129.913,-39.969c-30.554,-26.645 -45.831,-64.45 -45.831,-113.414c0,-31.429 8.541,-58.302 25.622,-80.62c17.081,-22.319 40.778,-37.691 71.091,-46.118Zm11.187,-103.508c0,20.042 6.075,35.926 18.224,47.655c12.15,11.729 28.69,17.593 49.62,17.593c21.171,-0 37.831,-5.864 49.981,-17.593c12.149,-11.729 18.224,-27.613 18.224,-47.655c-0,-19.813 -6.075,-35.47 -18.224,-46.971c-12.15,-11.501 -28.81,-17.251 -49.981,-17.251c-20.69,-0 -37.17,5.807 -49.439,17.422c-12.27,11.615 -18.405,27.215 -18.405,46.8Z" style="fill:#0f0;fill-rule:nonzero;"/><path d="M1072.81,91.953l-1012.1,754.262l-10.203,469.228l382.213,21.032l640.086,-1244.52Z" style="fill:#002570;"/><path d="M1072.81,91.953l640.086,1244.52l371.174,-18.088l-6.447,-474.797l-1004.81,-751.637Z" style="fill:#002570;"/><path d="M1071.04,1634.8l641.854,-298.321l371.174,-18.088l-1014.19,724.775l1.163,-408.366Z"/><path d="M1071.15,1634.8l-638.587,-298.791l-382.045,-20.574l1019.37,727.705l1.266,-408.34Z" style="fill:#001848;"/></g></svg>