<?xml version="1.0" encoding="UTF-8" standalone="no"?><!DOCTYPE svg PUBLIC "-//W3C//DTD SVG 1.1//EN" "http://www.w3.org/Graphics/SVG/1.1/DTD/svg11.dtd"><svg width="100%" height="100%" viewBox="0 0 2136 2136" version="1.1" xmlns="http://www.w3.org/2000/svg" xmlns:xlink="http://www.w3.org/1999/xlink" xml:space="preserve" xmlns:serif="http://www.serif.com/" style="fill-rule:evenodd;clip-rule:evenodd;stroke-linejoin:round;stroke-miterlimit:2;"><rect id="d10_6" x="0.468" y="1.424" width="2133.33" height="2133.33" style="fill:none;"/><g id="d10_61" serif:id="d10_6"><path d="M1072.65,92.486l640.085,1244.52l-641.726,298.444l-638.445,-298.444l640.086,-1244.52Z" style="fill:#083590;"/><path d="M1073.09,980.642c-23.096,-0 -40.719,7.914 -52.868,23.742c-12.149,15.828 -18.224,38.773 -18.224,68.834c-0,29.834 6.075,52.665 18.224,68.493c12.149,15.828 29.772,23.742 52.868,23.742c23.095,0 40.838,-7.914 53.228,-23.742c12.39,-15.828 18.585,-38.659 18.585,-68.493c-0,-29.834 -6.195,-52.722 -18.585,-68.663c-12.39,-15.942 -30.133,-23.913 -53.228,-23.913Zm139.657,-242.543l-0,91.551c-19.006,-10.248 -37.23,-17.934 -54.672,-23.058c-17.442,-5.125 -34.223,-7.687 -50.342,-7.687c-38.493,0 -67.783,12.241 -87.872,36.723c-20.088,24.483 -30.614,60.636 -31.576,108.462c11.307,-14.803 25.742,-25.906 43.304,-33.307c17.563,-7.402 38.253,-11.103 62.07,-11.103c48.597,0 86.128,14.519 112.592,43.556c26.464,29.037 39.696,70.201 39.696,123.492c-0,57.162 -14.856,101.458 -44.568,132.886c-29.712,31.428 -71.512,47.142 -125.402,47.142c-65.679,0 -113.374,-20.838 -143.086,-62.514c-29.712,-41.677 -44.567,-108.974 -44.567,-201.892c-0,-88.363 18.163,-154.579 54.491,-198.646c36.328,-44.068 90.819,-66.102 163.475,-66.102c16.84,0 34.222,1.708 52.146,5.124c17.923,3.416 36.026,8.541 54.311,15.373Z" style="fill:#0f0;fill-rule:nonzero;"/><path d="M1072.65,92.486l-1012.1,754.262l-10.202,469.228l382.213,21.032l640.086,-1244.52Z" style="fill:#002570;"/><path d="M1072.65,92.486l640.085,1244.52l371.175,-18.088l-6.447,-474.797l-1004.81,-751.637Z" style="fill:#002570;"/><path d="M1070.88,1635.33l641.854,-298.321l371.175,-18.088l-1014.19,724.775l1.162,-408.366Z"/><path d="M1070.99,1635.34l-638.587,-298.791l-382.045,-20.575l1019.37,727.705l1.266,-408.339Z" style="fill:#001848;"/></g></svg>