<?xml version="1.0" encoding="UTF-8" standalone="no"?><!DOCTYPE svg PUBLIC "-//W3C//DTD SVG 1.1//EN" "http://www.w3.org/Graphics/SVG/1.1/DTD/svg11.dtd"><svg width="100%" height="100%" viewBox="0 0 2136 2136" version="1.1" xmlns="http://www.w3.org/2000/svg" xmlns:xlink="http://www.w3.org/1999/xlink" xml:space="preserve" xmlns:serif="http://www.serif.com/" style="fill-rule:evenodd;clip-rule:evenodd;stroke-linejoin:round;stroke-miterlimit:2;"><rect id="d10_2" x="0.066" y="2.032" width="2133.33" height="2133.33" style="fill:none;"/><g id="d10_21" serif:id="d10_2"><path d="M1072.25,93.094l640.085,1244.52l-641.726,298.444l-638.445,-298.444l640.086,-1244.52Z" style="fill:#083590;"/><path d="M1010.8,1157.15l226.988,-0l0,88.819l-342.106,-0l0,-86.086l57.74,-58.074c68.565,-69.005 110.186,-111.479 124.861,-127.42c18.044,-19.586 31.035,-36.951 38.974,-52.096c7.939,-15.145 11.909,-30.119 11.909,-44.922c-0,-22.774 -7.278,-40.367 -21.833,-52.779c-14.555,-12.411 -35.185,-18.617 -61.889,-18.617c-19.006,-0 -40.358,3.587 -64.055,10.76c-23.697,7.174 -48.417,17.593 -74.159,31.258l0,-93.943c25.742,-8.882 50.943,-15.657 75.603,-20.326c24.659,-4.668 48.296,-7.003 70.911,-7.003c57.017,0 101.826,12.583 134.424,37.748c32.599,25.165 48.898,59.497 48.898,102.996c0,20.041 -3.548,38.829 -10.645,56.365c-7.098,17.536 -19.307,37.008 -36.629,58.416c-12.751,15.486 -47.755,50.33 -105.013,104.532c-31.035,29.379 -55.695,52.836 -73.979,70.372Z" style="fill:#0f0;fill-rule:nonzero;"/><path d="M1072.25,93.094l-1012.1,754.262l-10.202,469.229l382.213,21.031l640.086,-1244.52Z" style="fill:#002570;"/><path d="M1072.25,93.094l640.085,1244.52l371.175,-18.087l-6.447,-474.798l-1004.81,-751.637Z" style="fill:#002570;"/><path d="M1070.48,1635.94l641.854,-298.321l371.175,-18.087l-1014.19,724.774l1.162,-408.366Z"/><path d="M1070.59,1635.95l-638.587,-298.791l-382.045,-20.574l1019.37,727.704l1.266,-408.339Z" style="fill:#001848;"/></g></svg>