<?xml version="1.0" encoding="UTF-8" standalone="no"?><!DOCTYPE svg PUBLIC "-//W3C//DTD SVG 1.1//EN" "http://www.w3.org/Graphics/SVG/1.1/DTD/svg11.dtd"><svg width="100%" height="100%" viewBox="0 0 2136 2136" version="1.1" xmlns="http://www.w3.org/2000/svg" xmlns:xlink="http://www.w3.org/1999/xlink" xml:space="preserve" xmlns:serif="http://www.serif.com/" style="fill-rule:evenodd;clip-rule:evenodd;stroke-linejoin:round;stroke-miterlimit:2;"><rect id="d10_1" x="1.201" y="2.04" width="2133.33" height="2133.33" style="fill:none;"/><g id="d10_11" serif:id="d10_1"><path d="M1073.39,93.103l640.085,1244.52l-641.726,298.444l-638.445,-298.444l640.086,-1244.52Z" style="fill:#083590;"/><path d="M1073.39,93.103l-1012.1,754.261l-10.203,469.229l382.213,21.032l640.086,-1244.52Z" style="fill:#002570;"/><path d="M1073.39,93.103l640.085,1244.52l371.175,-18.088l-6.447,-474.797l-1004.81,-751.637Z" style="fill:#002570;"/><path d="M1071.62,1635.95l641.853,-298.321l371.175,-18.088l-1014.19,724.775l1.163,-408.366Z"/><path d="M1071.73,1635.95l-638.587,-298.791l-382.045,-20.574l1019.37,727.705l1.266,-408.34Z" style="fill:#001848;"/><path d="M896.995,1158.79l119.087,0l0,-331.02l-110.787,25.962l0,-90.868l111.509,-25.279l102.848,-0l0,421.205l119.088,0l-0,88.819l-341.745,-0l0,-88.819Z" style="fill:#0f0;fill-rule:nonzero;"/></g></svg>