<?xml version="1.0" encoding="UTF-8" standalone="no"?><!DOCTYPE svg PUBLIC "-//W3C//DTD SVG 1.1//EN" "http://www.w3.org/Graphics/SVG/1.1/DTD/svg11.dtd"><svg width="100%" height="100%" viewBox="0 0 2134 2134" version="1.1" xmlns="http://www.w3.org/2000/svg" xmlns:xlink="http://www.w3.org/1999/xlink" xml:space="preserve" xmlns:serif="http://www.serif.com/" style="fill-rule:evenodd;clip-rule:evenodd;stroke-linejoin:round;stroke-miterlimit:2;"><rect id="d10_10" x="0" y="0" width="2133.33" height="2133.33" style="fill:none;"/><g id="d10_101" serif:id="d10_10"><path d="M1072.19,91.062l640.086,1244.52l-641.727,298.444l-638.445,-298.444l640.086,-1244.52Z" style="fill:#083590;"/><g><path d="M694.809,1255.41l119.087,-0l0,-331.02l-110.787,25.962l0,-90.868l111.509,-25.28l102.848,0l0,421.206l119.088,-0l-0,88.818l-341.745,0l-0,-88.818Z" style="fill:#0f0;fill-rule:nonzero;"/><path d="M1116.31,1089.73c0,-88.363 14.796,-154.579 44.387,-198.646c29.592,-44.068 74.099,-66.102 133.523,-66.102c59.664,0 104.291,21.977 133.883,65.931c29.591,43.954 44.387,110.226 44.387,198.817c-0,88.363 -14.796,154.521 -44.387,198.475c-29.592,43.954 -74.219,65.931 -133.883,65.931c-59.424,0 -103.931,-22.034 -133.523,-66.102c-29.591,-44.067 -44.387,-110.169 -44.387,-198.304Zm124.14,136.302c11.307,28.468 29.23,42.702 53.77,42.702c24.779,-0 42.823,-14.234 54.13,-42.702c11.308,-28.467 16.961,-73.901 16.961,-136.302c0,-23.685 -0.842,-44.865 -2.526,-63.54l-125.944,189.936c1.203,3.643 2.406,6.946 3.609,9.906Zm53.77,-315.647c-24.54,-0 -42.463,14.233 -53.77,42.701c-11.307,28.467 -16.961,74.015 -16.961,136.644c-0,19.358 0.481,37.008 1.443,52.949l124.14,-187.544c-0.241,-0.683 -0.481,-1.366 -0.722,-2.049c-11.307,-28.468 -29.351,-42.701 -54.13,-42.701Z" style="fill:#0f0;fill-rule:nonzero;"/></g><path d="M1072.19,91.062l-1012.1,754.262l-10.203,469.228l382.213,21.032l640.086,-1244.52Z" style="fill:#002570;"/><path d="M1072.19,91.062l640.086,1244.52l371.174,-18.087l-6.447,-474.798l-1004.81,-751.637Z" style="fill:#002570;"/><path d="M1070.42,1633.9l641.854,-298.321l371.174,-18.087l-1014.19,724.774l1.163,-408.366Z"/><path d="M1070.53,1633.91l-638.587,-298.791l-382.045,-20.575l1019.37,727.705l1.266,-408.339Z" style="fill:#001848;"/></g></svg>