<?xml version="1.0" encoding="UTF-8" standalone="no"?><!DOCTYPE svg PUBLIC "-//W3C//DTD SVG 1.1//EN" "http://www.w3.org/Graphics/SVG/1.1/DTD/svg11.dtd"><svg width="100%" height="100%" viewBox="0 0 2136 2136" version="1.1" xmlns="http://www.w3.org/2000/svg" xmlns:xlink="http://www.w3.org/1999/xlink" xml:space="preserve" xmlns:serif="http://www.serif.com/" style="fill-rule:evenodd;clip-rule:evenodd;stroke-linejoin:round;stroke-miterlimit:2;"><rect id="d12_12" x="0.396" y="0.023" width="2133.33" height="2133.33" style="fill:none;"/><g id="d12_121" serif:id="d12_12"><path d="M1067.59,426l616.939,448.726l-235.65,726.055l-762.579,-0l-235.65,-726.055l616.94,-448.726Z" style="fill:#083590;"/><g><path d="M695.205,1255.43l119.087,-0l0,-331.02l-110.787,25.962l-0,-90.868l111.509,-25.279l102.848,-0l0,421.205l119.087,-0l0,88.818l-341.744,0l-0,-88.818Z" style="fill:#0f0;fill-rule:nonzero;"/><path d="M1228.93,1255.43l226.988,-0l-0,88.818l-342.106,0l0,-86.085l57.739,-58.074c68.566,-69.005 110.186,-111.479 124.862,-127.421c18.043,-19.585 31.035,-36.95 38.974,-52.095c7.939,-15.145 11.908,-30.119 11.908,-44.922c0,-22.774 -7.277,-40.367 -21.832,-52.779c-14.555,-12.411 -35.185,-18.617 -61.89,-18.617c-19.005,-0 -40.357,3.587 -64.054,10.76c-23.697,7.174 -48.417,17.593 -74.159,31.258l-0,-93.943c25.742,-8.882 50.943,-15.657 75.602,-20.326c24.66,-4.669 48.297,-7.003 70.911,-7.003c57.018,0 101.826,12.583 134.425,37.748c32.599,25.165 48.898,59.497 48.898,102.995c-0,20.042 -3.549,38.83 -10.646,56.366c-7.097,17.536 -19.306,37.008 -36.628,58.415c-12.751,15.487 -47.755,50.331 -105.014,104.533c-31.035,29.379 -55.694,52.836 -73.978,70.372Z" style="fill:#0f0;fill-rule:nonzero;"/></g><path d="M1067.59,426l616.939,448.726l369.52,-143.017l-386.871,-497.833l-600.118,-204.564l0.53,396.688Z"/><path d="M1067.59,426l-616.94,448.726l-370.578,-113.888l386.871,-526.962l600.117,-204.564l0.53,396.688Z" style="fill:#002570;"/><path d="M80.074,760.838l20.753,652.097l349.825,498.905l235.65,-311.059l-235.65,-726.055l-370.578,-113.888Z" style="fill:#001746;"/><path d="M2054.05,731.709l-369.52,143.017l-235.65,726.055l235.65,311.059l362.562,-521.691l6.958,-658.44Z" style="fill:#002570;"/><path d="M1067.59,2104.07l616.939,-192.227l-235.65,-311.03l-762.579,-0l-235.65,311.03l616.94,192.227Z"/></g></svg>