<?xml version="1.0" encoding="UTF-8" standalone="no"?><!DOCTYPE svg PUBLIC "-//W3C//DTD SVG 1.1//EN" "http://www.w3.org/Graphics/SVG/1.1/DTD/svg11.dtd"><svg width="100%" height="100%" viewBox="0 0 2136 2136" version="1.1" xmlns="http://www.w3.org/2000/svg" xmlns:xlink="http://www.w3.org/1999/xlink" xml:space="preserve" xmlns:serif="http://www.serif.com/" style="fill-rule:evenodd;clip-rule:evenodd;stroke-linejoin:round;stroke-miterlimit:2;"><rect id="d12_3" x="0.653" y="0.996" width="2133.33" height="2133.33" style="fill:none;"/><g id="d12_31" serif:id="d12_3"><path d="M1067.85,426.972l616.94,448.727l-235.65,726.054l-762.579,0l-235.65,-726.054l616.939,-448.727Z" style="fill:#083590;"/><path d="M1044.4,1094.14l-57.018,0l0,-88.819l57.018,0c26.464,0 46.973,-4.953 61.528,-14.86c14.555,-9.906 21.833,-23.855 21.833,-41.847c-0,-18.902 -7.278,-33.648 -21.833,-44.238c-14.555,-10.59 -35.064,-15.885 -61.528,-15.885c-20.209,-0 -41.861,2.391 -64.957,7.174c-23.096,4.782 -47.034,11.728 -71.813,20.838l-0,-91.552c24.779,-7.06 49.198,-12.468 73.256,-16.226c24.058,-3.758 47.154,-5.637 69.288,-5.637c56.777,0 101.044,11.729 132.8,35.186c31.757,23.457 47.635,55.796 47.635,97.017c0,30.29 -9.142,55.057 -27.426,74.301c-18.284,19.244 -44.387,31.826 -78.309,37.747c38.493,6.377 67.844,20.896 88.052,43.556c20.209,22.66 30.314,52.437 30.314,89.331c-0,49.419 -16.721,87.11 -50.161,113.073c-33.441,25.962 -82.038,38.943 -145.792,38.943c-27.186,0 -53.951,-2.163 -80.294,-6.49c-26.344,-4.327 -51.544,-10.59 -75.603,-18.789l0,-93.601c22.615,10.704 47.034,18.845 73.257,24.425c26.224,5.58 53.77,8.37 82.64,8.37c28.869,-0 51.725,-6.32 68.565,-18.96c16.841,-12.639 25.261,-29.663 25.261,-51.071c0,-26.19 -8.42,-46.402 -25.261,-60.635c-16.84,-14.234 -40.658,-21.351 -71.452,-21.351Z" style="fill:#0f0;fill-rule:nonzero;"/><path d="M1067.85,426.972l616.94,448.727l369.519,-143.017l-386.871,-497.834l-600.117,-204.563l0.529,396.687Z"/><path d="M1067.85,426.972l-616.939,448.727l-370.578,-113.888l386.871,-526.963l600.117,-204.563l0.529,396.687Z" style="fill:#002570;"/><path d="M80.332,761.811l20.752,652.096l349.826,498.905l235.65,-311.059l-235.65,-726.054l-370.578,-113.888Z" style="fill:#001746;"/><path d="M2054.31,732.682l-369.52,143.017l-235.65,726.054l235.65,311.059l362.562,-521.69l6.958,-658.44Z" style="fill:#002570;"/><path d="M1067.85,2105.04l616.94,-192.228l-235.65,-311.03l-762.579,0l-235.65,311.03l616.939,192.228Z"/></g></svg>