<?xml version="1.0" encoding="UTF-8" standalone="no"?><!DOCTYPE svg PUBLIC "-//W3C//DTD SVG 1.1//EN" "http://www.w3.org/Graphics/SVG/1.1/DTD/svg11.dtd"><svg width="100%" height="100%" viewBox="0 0 2136 2136" version="1.1" xmlns="http://www.w3.org/2000/svg" xmlns:xlink="http://www.w3.org/1999/xlink" xml:space="preserve" xmlns:serif="http://www.serif.com/" style="fill-rule:evenodd;clip-rule:evenodd;stroke-linejoin:round;stroke-miterlimit:2;"><rect id="d12_7" x="0.058" y="0.095" width="2133.33" height="2133.33" style="fill:none;"/><g id="d12_71" serif:id="d12_7"><path d="M1067.25,426.072l616.939,448.726l-235.65,726.055l-762.579,-0l-235.65,-726.055l616.94,-448.726Z" style="fill:#083590;"/><path d="M896.393,811.75l340.663,-0l-0,71.396l-182.601,438.628l-108.622,-0l175.383,-421.206l-224.823,0l0,-88.818Z" style="fill:#0f0;fill-rule:nonzero;"/><path d="M1067.25,426.072l616.939,448.726l369.52,-143.017l-386.871,-497.833l-600.118,-204.564l0.53,396.688Z"/><path d="M1067.25,426.072l-616.94,448.726l-370.578,-113.888l386.871,-526.962l600.117,-204.564l0.53,396.688Z" style="fill:#002570;"/><path d="M79.736,760.91l20.753,652.097l349.825,498.905l235.65,-311.059l-235.65,-726.055l-370.578,-113.888Z" style="fill:#001746;"/><path d="M2053.71,731.781l-369.52,143.017l-235.65,726.055l235.65,311.059l362.562,-521.691l6.958,-658.44Z" style="fill:#002570;"/><path d="M1067.25,2104.14l616.939,-192.227l-235.65,-311.03l-762.579,-0l-235.65,311.03l616.94,192.227Z"/></g></svg>