<?xml version="1.0" encoding="UTF-8" standalone="no"?><!DOCTYPE svg PUBLIC "-//W3C//DTD SVG 1.1//EN" "http://www.w3.org/Graphics/SVG/1.1/DTD/svg11.dtd"><svg width="100%" height="100%" viewBox="0 0 2136 2136" version="1.1" xmlns="http://www.w3.org/2000/svg" xmlns:xlink="http://www.w3.org/1999/xlink" xml:space="preserve" xmlns:serif="http://www.serif.com/" style="fill-rule:evenodd;clip-rule:evenodd;stroke-linejoin:round;stroke-miterlimit:2;"><rect id="d12_2" x="0.251" y="0.664" width="2133.33" height="2133.33" style="fill:none;"/><g id="d12_21" serif:id="d12_2"><path d="M1067.45,426.64l616.94,448.727l-235.65,726.055l-762.579,-0l-235.65,-726.055l616.939,-448.727Z" style="fill:#083590;"/><path d="M1010.98,1238.14l226.988,-0l-0,88.818l-342.106,0l0,-86.085l57.74,-58.074c68.565,-69.005 110.186,-111.479 124.861,-127.421c18.044,-19.585 31.035,-36.951 38.974,-52.095c7.939,-15.145 11.909,-30.119 11.909,-44.922c-0,-22.774 -7.278,-40.367 -21.833,-52.779c-14.555,-12.412 -35.185,-18.617 -61.889,-18.617c-19.006,-0 -40.358,3.586 -64.055,10.76c-23.697,7.174 -48.417,17.593 -74.159,31.258l0,-93.943c25.742,-8.882 50.943,-15.657 75.603,-20.326c24.659,-4.669 48.296,-7.003 70.911,-7.003c57.017,0 101.825,12.583 134.424,37.748c32.599,25.165 48.898,59.497 48.898,102.995c0,20.041 -3.548,38.83 -10.646,56.366c-7.097,17.536 -19.306,37.008 -36.628,58.415c-12.751,15.487 -47.755,50.331 -105.013,104.533c-31.035,29.378 -55.695,52.836 -73.979,70.372Z" style="fill:#0f0;fill-rule:nonzero;"/><path d="M1067.45,426.64l616.94,448.727l369.52,-143.017l-386.872,-497.833l-600.117,-204.564l0.529,396.687Z"/><path d="M1067.45,426.64l-616.939,448.727l-370.578,-113.888l386.871,-526.962l600.117,-204.564l0.529,396.687Z" style="fill:#002570;"/><path d="M79.93,761.479l20.752,652.097l349.826,498.905l235.65,-311.059l-235.65,-726.055l-370.578,-113.888Z" style="fill:#001746;"/><path d="M2053.91,732.35l-369.52,143.017l-235.65,726.055l235.65,311.059l362.562,-521.691l6.958,-658.44Z" style="fill:#002570;"/><path d="M1067.45,2104.71l616.94,-192.227l-235.65,-311.03l-762.579,-0l-235.65,311.03l616.939,192.227Z"/></g></svg>