<?xml version="1.0" encoding="UTF-8" standalone="no"?><!DOCTYPE svg PUBLIC "-//W3C//DTD SVG 1.1//EN" "http://www.w3.org/Graphics/SVG/1.1/DTD/svg11.dtd"><svg width="100%" height="100%" viewBox="0 0 2136 2134" version="1.1" xmlns="http://www.w3.org/2000/svg" xmlns:xlink="http://www.w3.org/1999/xlink" xml:space="preserve" xmlns:serif="http://www.serif.com/" style="fill-rule:evenodd;clip-rule:evenodd;stroke-linejoin:round;stroke-miterlimit:2;"><rect id="d12_4" x="1.392" y="0.01" width="2133.33" height="2133.33" style="fill:none;"/><g id="d12_41" serif:id="d12_4"><path d="M1068.59,425.986l616.94,448.727l-235.65,726.055l-762.58,-0l-235.65,-726.055l616.94,-448.727Z" style="fill:#083590;"/><path d="M1094.22,923.713l-136.048,201.55l136.048,-0l-0,-201.55Zm-9.383,-112.048l111.509,-0l0,313.598l59.183,-0l0,86.427l-59.183,0l0,109.999l-102.126,-0l-0,-109.999l-213.636,0l0,-97.7l204.253,-302.325Z" style="fill:#0f0;fill-rule:nonzero;"/><path d="M1068.59,425.986l616.94,448.727l369.519,-143.017l-386.871,-497.833l-600.117,-204.564l0.529,396.687Z"/><path d="M1068.59,425.986l-616.94,448.727l-370.578,-113.888l386.872,-526.962l600.117,-204.564l0.529,396.687Z" style="fill:#002570;"/><path d="M81.07,760.825l20.753,652.097l349.825,498.905l235.65,-311.059l-235.65,-726.055l-370.578,-113.888Z" style="fill:#001746;"/><path d="M2055.05,731.696l-369.519,143.017l-235.65,726.055l235.65,311.059l362.561,-521.691l6.958,-658.44Z" style="fill:#002570;"/><path d="M1068.59,2104.05l616.94,-192.227l-235.65,-311.03l-762.58,-0l-235.65,311.03l616.94,192.227Z"/></g></svg>