<?xml version="1.0" encoding="UTF-8" standalone="no"?><!DOCTYPE svg PUBLIC "-//W3C//DTD SVG 1.1//EN" "http://www.w3.org/Graphics/SVG/1.1/DTD/svg11.dtd"><svg width="100%" height="100%" viewBox="0 0 2136 2136" version="1.1" xmlns="http://www.w3.org/2000/svg" xmlns:xlink="http://www.w3.org/1999/xlink" xml:space="preserve" xmlns:serif="http://www.serif.com/" style="fill-rule:evenodd;clip-rule:evenodd;stroke-linejoin:round;stroke-miterlimit:2;"><rect id="d12_10" x="0.81" y="1.67" width="2133.33" height="2133.33" style="fill:none;"/><g id="d12_101" serif:id="d12_10"><path d="M1068.01,427.646l616.94,448.727l-235.65,726.054l-762.58,0l-235.65,-726.054l616.94,-448.727Z" style="fill:#083590;"/><path d="M1068.01,427.646l616.94,448.727l369.519,-143.017l-386.871,-497.834l-600.117,-204.563l0.529,396.687Z"/><path d="M1068.01,427.646l-616.94,448.727l-370.578,-113.888l386.872,-526.963l600.117,-204.563l0.529,396.687Z" style="fill:#002570;"/><g><path d="M695.619,1257.08l119.088,0l-0,-331.02l-110.788,25.963l0,-90.869l111.509,-25.279l102.849,0l-0,421.205l119.087,0l-0,88.819l-341.745,0l0,-88.819Z" style="fill:#0f0;fill-rule:nonzero;"/><path d="M1117.12,1091.4c0,-88.364 14.796,-154.579 44.388,-198.647c29.591,-44.067 74.098,-66.101 133.522,-66.101c59.664,-0 104.291,21.977 133.883,65.93c29.591,43.954 44.387,110.227 44.387,198.818c0,88.363 -14.796,154.521 -44.387,198.475c-29.592,43.954 -74.219,65.931 -133.883,65.931c-59.424,-0 -103.931,-22.034 -133.522,-66.102c-29.592,-44.068 -44.388,-110.169 -44.388,-198.304Zm124.14,136.302c11.307,28.467 29.231,42.701 53.77,42.701c24.78,0 42.823,-14.234 54.13,-42.701c11.308,-28.468 16.961,-73.902 16.961,-136.302c0,-23.685 -0.842,-44.865 -2.526,-63.54l-125.944,189.935c1.203,3.644 2.406,6.946 3.609,9.907Zm53.77,-315.648c-24.539,0 -42.463,14.234 -53.77,42.701c-11.307,28.468 -16.961,74.016 -16.961,136.645c0,19.357 0.481,37.007 1.444,52.949l124.139,-187.544c-0.24,-0.683 -0.481,-1.366 -0.722,-2.05c-11.307,-28.467 -29.35,-42.701 -54.13,-42.701Z" style="fill:#0f0;fill-rule:nonzero;"/></g><path d="M80.488,762.485l20.753,652.096l349.826,498.906l235.649,-311.06l-235.65,-726.054l-370.578,-113.888Z" style="fill:#001746;"/><path d="M2054.47,733.356l-369.519,143.017l-235.65,726.054l235.65,311.06l362.561,-521.691l6.958,-658.44Z" style="fill:#002570;"/><path d="M1068.01,2105.71l616.94,-192.227l-235.65,-311.031l-762.58,0l-235.65,311.031l616.94,192.227Z"/></g></svg>