<?xml version="1.0" encoding="UTF-8" standalone="no"?><!DOCTYPE svg PUBLIC "-//W3C//DTD SVG 1.1//EN" "http://www.w3.org/Graphics/SVG/1.1/DTD/svg11.dtd"><svg width="100%" height="100%" viewBox="0 0 2136 2136" version="1.1" xmlns="http://www.w3.org/2000/svg" xmlns:xlink="http://www.w3.org/1999/xlink" xml:space="preserve" xmlns:serif="http://www.serif.com/" style="fill-rule:evenodd;clip-rule:evenodd;stroke-linejoin:round;stroke-miterlimit:2;"><rect id="d12_5" x="0.306" y="0.169" width="2133.33" height="2133.33" style="fill:none;"/><g id="d12_51" serif:id="d12_5"><path d="M1067.5,426.146l616.94,448.726l-235.65,726.055l-762.579,-0l-235.65,-726.055l616.939,-448.726Z" style="fill:#083590;"/><path d="M913.422,806.871l292.667,-0l-0,88.818l-206.418,0l-0,94.626c8.66,-3.188 17.923,-5.522 27.787,-7.003c9.863,-1.48 20.329,-2.22 31.395,-2.22c53.409,-0 96.714,15.942 129.914,47.825c33.2,31.884 49.8,73.333 49.8,124.346c0,53.519 -17.983,95.822 -53.95,126.908c-35.967,31.087 -84.985,46.63 -147.055,46.63c-23.096,0 -46.432,-1.822 -70.009,-5.466c-23.577,-3.643 -47.635,-9.109 -72.174,-16.397l-0,-90.868c19.968,9.337 40.478,16.34 61.528,21.009c21.051,4.669 42.162,7.003 63.333,7.003c37.531,-0 66.04,-7.572 85.527,-22.717c19.487,-15.145 29.23,-37.179 29.23,-66.102c0,-26.645 -9.683,-47.996 -29.05,-64.052c-19.367,-16.055 -45.169,-24.083 -77.407,-24.083c-19.006,-0 -38.072,2.22 -57.198,6.661c-19.126,4.441 -38.433,11.103 -57.92,19.984l0,-284.902Z" style="fill:#0f0;fill-rule:nonzero;"/><path d="M1067.5,426.146l616.94,448.726l369.519,-143.017l-386.871,-497.833l-600.117,-204.564l0.529,396.688Z"/><path d="M1067.5,426.146l-616.939,448.726l-370.578,-113.887l386.871,-526.963l600.117,-204.564l0.529,396.688Z" style="fill:#002570;"/><path d="M79.985,760.985l20.752,652.096l349.826,498.905l235.65,-311.059l-235.65,-726.055l-370.578,-113.887Z" style="fill:#001746;"/><path d="M2053.96,731.855l-369.52,143.017l-235.65,726.055l235.65,311.059l362.562,-521.691l6.958,-658.44Z" style="fill:#002570;"/><path d="M1067.5,2104.21l616.94,-192.227l-235.65,-311.03l-762.579,-0l-235.65,311.03l616.939,192.227Z"/></g></svg>