<?xml version="1.0" encoding="UTF-8" standalone="no"?><!DOCTYPE svg PUBLIC "-//W3C//DTD SVG 1.1//EN" "http://www.w3.org/Graphics/SVG/1.1/DTD/svg11.dtd"><svg width="100%" height="100%" viewBox="0 0 2136 2136" version="1.1" xmlns="http://www.w3.org/2000/svg" xmlns:xlink="http://www.w3.org/1999/xlink" xml:space="preserve" xmlns:serif="http://www.serif.com/" style="fill-rule:evenodd;clip-rule:evenodd;stroke-linejoin:round;stroke-miterlimit:2;"><rect id="d12_1" x="1.387" y="0.672" width="2133.33" height="2133.33" style="fill:none;"/><g id="d12_11" serif:id="d12_1"><path d="M1068.58,426.649l616.939,448.726l-235.65,726.055l-762.579,-0l-235.65,-726.055l616.94,-448.726Z" style="fill:#083590;"/><path d="M897.181,1233.53l119.087,0l0,-331.02l-110.787,25.962l-0,-90.868l111.509,-25.279l102.848,0l0,421.205l119.088,0l-0,88.819l-341.745,-0l-0,-88.819Z" style="fill:#0f0;fill-rule:nonzero;"/><path d="M1068.58,426.649l616.939,448.726l369.52,-143.017l-386.871,-497.833l-600.118,-204.564l0.53,396.688Z"/><path d="M1068.58,426.649l-616.94,448.726l-370.578,-113.887l386.871,-526.963l600.117,-204.564l0.53,396.688Z" style="fill:#002570;"/><path d="M81.065,761.488l20.753,652.096l349.825,498.905l235.65,-311.059l-235.65,-726.055l-370.578,-113.887Z" style="fill:#001746;"/><path d="M2055.04,732.358l-369.52,143.017l-235.65,726.055l235.65,311.059l362.562,-521.691l6.958,-658.44Z" style="fill:#002570;"/><path d="M1068.58,2104.72l616.939,-192.228l-235.65,-311.03l-762.579,-0l-235.65,311.03l616.94,192.228Z"/></g></svg>