<?xml version="1.0" encoding="UTF-8" standalone="no"?><!DOCTYPE svg PUBLIC "-//W3C//DTD SVG 1.1//EN" "http://www.w3.org/Graphics/SVG/1.1/DTD/svg11.dtd"><svg width="100%" height="100%" viewBox="0 0 2136 2136" version="1.1" xmlns="http://www.w3.org/2000/svg" xmlns:xlink="http://www.w3.org/1999/xlink" xml:space="preserve" xmlns:serif="http://www.serif.com/" style="fill-rule:evenodd;clip-rule:evenodd;stroke-linejoin:round;stroke-miterlimit:2;"><rect id="d12_8" x="0.811" y="1.606" width="2133.33" height="2133.33" style="fill:none;"/><g id="d12_81" serif:id="d12_8"><path d="M1068.01,427.582l616.939,448.727l-235.65,726.054l-762.579,0l-235.65,-726.054l616.94,-448.727Z" style="fill:#083590;"/><path d="M1067.3,1095.43c-23.817,-0 -43.064,7.116 -57.739,21.35c-14.676,14.234 -22.013,33.079 -22.013,56.537c-0,23.457 7.337,42.359 22.013,56.707c14.675,14.348 33.922,21.521 57.739,21.521c23.818,0 43.124,-7.287 57.92,-21.863c14.796,-14.575 22.193,-33.364 22.193,-56.365c0,-23.458 -7.337,-42.303 -22.013,-56.537c-14.675,-14.234 -34.042,-21.35 -58.1,-21.35Zm-79.031,-42.702c-27.185,-8.882 -47.875,-22.831 -62.069,-41.847c-14.195,-19.016 -21.292,-42.303 -21.292,-69.859c0,-42.36 14.555,-75.838 43.666,-100.434c29.11,-24.595 68.685,-36.893 118.726,-36.893c50.281,-0 89.977,12.298 119.087,36.893c29.111,24.596 43.666,58.074 43.666,100.434c-0,27.329 -6.977,50.501 -20.931,69.517c-13.953,19.017 -34.282,33.08 -60.987,42.189c29.832,8.654 53.168,24.141 70.009,46.459c16.841,22.319 25.261,49.078 25.261,80.279c0,48.964 -15.277,86.769 -45.831,113.414c-30.553,26.646 -73.978,39.969 -130.274,39.969c-56.055,-0 -99.36,-13.323 -129.913,-39.969c-30.554,-26.645 -45.831,-64.45 -45.831,-113.414c-0,-31.428 8.541,-58.302 25.622,-80.62c17.081,-22.319 40.778,-37.691 71.091,-46.118Zm11.187,-103.508c0,20.042 6.075,35.926 18.224,47.655c12.15,11.729 28.69,17.593 49.62,17.593c21.171,-0 37.831,-5.864 49.981,-17.593c12.149,-11.729 18.224,-27.613 18.224,-47.655c-0,-19.813 -6.075,-35.47 -18.224,-46.971c-12.15,-11.501 -28.81,-17.251 -49.981,-17.251c-20.69,-0 -37.17,5.807 -49.439,17.422c-12.27,11.615 -18.405,27.215 -18.405,46.8Z" style="fill:#0f0;fill-rule:nonzero;"/><path d="M1068.01,427.582l616.939,448.727l369.52,-143.017l-386.871,-497.833l-600.118,-204.564l0.53,396.687Z"/><path d="M1068.01,427.582l-616.94,448.727l-370.578,-113.888l386.871,-526.962l600.117,-204.564l0.53,396.687Z" style="fill:#002570;"/><path d="M80.489,762.421l20.753,652.097l349.825,498.905l235.65,-311.06l-235.65,-726.054l-370.578,-113.888Z" style="fill:#001746;"/><path d="M2054.47,733.292l-369.52,143.017l-235.65,726.054l235.65,311.06l362.562,-521.691l6.958,-658.44Z" style="fill:#002570;"/><path d="M1068.01,2105.65l616.939,-192.227l-235.65,-311.031l-762.579,0l-235.65,311.031l616.94,192.227Z"/></g></svg>