<?xml version="1.0" encoding="UTF-8" standalone="no"?><!DOCTYPE svg PUBLIC "-//W3C//DTD SVG 1.1//EN" "http://www.w3.org/Graphics/SVG/1.1/DTD/svg11.dtd"><svg width="100%" height="100%" viewBox="0 0 2136 2136" version="1.1" xmlns="http://www.w3.org/2000/svg" xmlns:xlink="http://www.w3.org/1999/xlink" xml:space="preserve" xmlns:serif="http://www.serif.com/" style="fill-rule:evenodd;clip-rule:evenodd;stroke-linejoin:round;stroke-miterlimit:2;"><rect id="d12_6" x="0.653" y="0.056" width="2133.33" height="2133.33" style="fill:none;"/><g id="d12_61" serif:id="d12_6"><path d="M1067.85,426.032l616.94,448.727l-235.65,726.054l-762.579,0l-235.65,-726.054l616.939,-448.727Z" style="fill:#083590;"/><path d="M1073.27,1065.18c-23.095,0 -40.718,7.914 -52.867,23.742c-12.149,15.828 -18.224,38.773 -18.224,68.834c-0,29.834 6.075,52.665 18.224,68.493c12.149,15.828 29.772,23.742 52.867,23.742c23.096,0 40.839,-7.914 53.229,-23.742c12.39,-15.828 18.585,-38.659 18.585,-68.493c-0,-29.833 -6.195,-52.721 -18.585,-68.663c-12.39,-15.942 -30.133,-23.913 -53.229,-23.913Zm139.657,-242.543l0,91.551c-19.005,-10.248 -37.229,-17.934 -54.671,-23.058c-17.443,-5.124 -34.223,-7.686 -50.342,-7.686c-38.493,-0 -67.784,12.241 -87.872,36.723c-20.089,24.482 -30.614,60.635 -31.576,108.461c11.307,-14.803 25.742,-25.906 43.304,-33.307c17.563,-7.402 38.253,-11.102 62.07,-11.102c48.597,-0 86.128,14.518 112.592,43.555c26.464,29.037 39.696,70.201 39.696,123.492c-0,57.163 -14.856,101.458 -44.568,132.886c-29.712,31.428 -71.513,47.142 -125.403,47.142c-65.678,0 -113.373,-20.838 -143.085,-62.514c-29.712,-41.677 -44.567,-108.974 -44.567,-201.892c-0,-88.363 18.163,-154.578 54.491,-198.646c36.328,-44.068 90.819,-66.102 163.475,-66.102c16.84,0 34.222,1.708 52.145,5.125c17.924,3.416 36.027,8.54 54.311,15.372Z" style="fill:#0f0;fill-rule:nonzero;"/><path d="M1067.85,426.032l616.94,448.727l369.52,-143.017l-386.872,-497.834l-600.117,-204.563l0.529,396.687Z"/><path d="M1067.85,426.032l-616.939,448.727l-370.578,-113.888l386.871,-526.963l600.117,-204.563l0.529,396.687Z" style="fill:#002570;"/><path d="M80.332,760.871l20.752,652.097l349.826,498.905l235.65,-311.06l-235.65,-726.054l-370.578,-113.888Z" style="fill:#001746;"/><path d="M2054.31,731.742l-369.52,143.017l-235.65,726.054l235.65,311.06l362.562,-521.691l6.958,-658.44Z" style="fill:#002570;"/><path d="M1067.85,2104.1l616.94,-192.227l-235.65,-311.031l-762.579,0l-235.65,311.031l616.939,192.227Z"/></g></svg>