<?xml version="1.0" encoding="UTF-8" standalone="no"?><!DOCTYPE svg PUBLIC "-//W3C//DTD SVG 1.1//EN" "http://www.w3.org/Graphics/SVG/1.1/DTD/svg11.dtd"><svg width="100%" height="100%" viewBox="0 0 2136 2136" version="1.1" xmlns="http://www.w3.org/2000/svg" xmlns:xlink="http://www.w3.org/1999/xlink" xml:space="preserve" xmlns:serif="http://www.serif.com/" style="fill-rule:evenodd;clip-rule:evenodd;stroke-linejoin:round;stroke-miterlimit:2;"><rect id="d20_9" x="1.026" y="0.875" width="2133.33" height="2133.33" style="fill:none;"/><g id="d20_91" serif:id="d20_9"><path d="M1065.64,334.281l630.696,1085.13l-1261.39,0l630.695,-1085.13Z" style="fill:#083590;"/><path d="M940.231,1281.05l0,-80.439c16.637,9.171 32.59,15.949 47.857,20.334c15.268,4.386 29.957,6.579 44.067,6.579c33.484,0 59.018,-10.615 76.603,-31.846c17.584,-21.231 26.903,-52.978 27.956,-95.241c-9.898,12.958 -22.533,22.676 -37.907,29.155c-15.373,6.479 -33.589,9.719 -54.648,9.719c-42.329,-0 -75.076,-12.709 -98.242,-38.126c-23.165,-25.418 -34.747,-61.451 -34.747,-108.099c-0,-49.838 12.951,-88.413 38.854,-115.724c25.903,-27.312 62.546,-40.967 109.929,-40.967c57.492,-0 99.242,18.191 125.25,54.573c26.008,36.381 39.012,95.14 39.012,176.277c0,77.149 -15.9,135.011 -47.699,173.586c-31.8,38.574 -79.499,57.862 -143.098,57.862c-14.741,-0 -29.956,-1.495 -45.645,-4.486c-15.69,-2.99 -31.537,-7.376 -47.542,-13.157Zm122.249,-215.599c20.006,-0 35.327,-6.928 45.962,-20.783c10.635,-13.855 15.952,-33.94 15.952,-60.254c0,-26.115 -5.317,-46.1 -15.952,-59.955c-10.635,-13.855 -25.956,-20.783 -45.962,-20.783c-20.217,0 -35.748,6.928 -46.593,20.783c-10.846,13.855 -16.269,33.84 -16.269,59.955c0,26.115 5.423,46.15 16.269,60.105c10.845,13.954 26.376,20.932 46.593,20.932Z" style="fill:#0f0;fill-rule:nonzero;"/><path d="M1065.64,2043.25l630.696,-623.837l-1261.39,0l630.695,623.837Z" style="fill:#002570;"/><path d="M1065.64,334.281l-901.63,233.273l270.935,851.859l630.695,-1085.13Z" style="fill:#002570;"/><path d="M1065.64,334.281l630.696,1085.13l276.797,-851.858l-907.493,-233.274Z" style="fill:#002570;"/><path d="M1982.51,1566.69l-286.173,-147.276l276.797,-851.858l9.376,999.134Z" style="fill:#001746;"/><path d="M152.873,1566.69l286.173,-147.276l-275.023,-851.87l-11.15,999.146Z" style="fill:#001746;"/><path d="M1982.51,1566.69l-286.173,-147.276l-630.696,623.833l916.869,-476.557Z"/><path d="M152.873,1566.69l286.173,-147.276l630.696,623.833l-916.869,-476.557Z"/><path d="M1065.64,334.281l-1.89,-242.448l909.383,475.722l-907.493,-233.274Z"/><path d="M1065.64,334.281l-1.89,-242.448l-899.74,475.722l901.63,-233.274Z" style="fill:#001746;"/></g></svg>