<?xml version="1.0" encoding="UTF-8" standalone="no"?><!DOCTYPE svg PUBLIC "-//W3C//DTD SVG 1.1//EN" "http://www.w3.org/Graphics/SVG/1.1/DTD/svg11.dtd"><svg width="100%" height="100%" viewBox="0 0 2136 2136" version="1.1" xmlns="http://www.w3.org/2000/svg" xmlns:xlink="http://www.w3.org/1999/xlink" xml:space="preserve" xmlns:serif="http://www.serif.com/" style="fill-rule:evenodd;clip-rule:evenodd;stroke-linejoin:round;stroke-miterlimit:2;"><rect id="d20_2" x="0.865" y="1.63" width="2133.33" height="2133.33" style="fill:none;"/><g id="d20_21" serif:id="d20_2"><path d="M1065.48,335.036l630.695,1085.13l-1261.39,0l630.696,-1085.13Z" style="fill:#083590;"/><path d="M1065.48,2044.01l630.695,-623.837l-1261.39,0l630.696,623.837Z" style="fill:#002570;"/><path d="M1065.48,335.036l-901.631,233.273l270.935,851.859l630.696,-1085.13Z" style="fill:#002570;"/><path d="M1065.48,335.036l630.695,1085.13l276.797,-851.859l-907.492,-233.273Z" style="fill:#002570;"/><path d="M1982.35,1567.44l-286.173,-147.275l276.797,-851.859l9.376,999.134Z" style="fill:#001746;"/><path d="M152.712,1567.44l286.174,-147.275l-275.023,-851.871l-11.151,999.146Z" style="fill:#001746;"/><path d="M1982.35,1567.44l-286.173,-147.275l-630.696,623.832l916.869,-476.557Z"/><path d="M152.712,1567.44l286.174,-147.275l630.695,623.832l-916.869,-476.557Z"/><path d="M1065.48,335.036l-1.891,-242.448l909.383,475.721l-907.492,-233.273Z"/><path d="M1065.48,335.036l-1.891,-242.448l-899.74,475.721l901.631,-233.273Z" style="fill:#001746;"/><path d="M1018.57,1217.81l198.694,-0l-0,77.747l-299.462,-0l-0,-75.355l50.542,-50.835c60.019,-60.404 96.451,-97.583 109.297,-111.538c15.795,-17.144 27.167,-32.345 34.116,-45.601c6.95,-13.257 10.424,-26.365 10.424,-39.323c0,-19.935 -6.37,-35.335 -19.111,-46.2c-12.741,-10.864 -30.799,-16.297 -54.175,-16.297c-16.636,0 -35.326,3.14 -56.07,9.42c-20.743,6.279 -42.382,15.4 -64.915,27.361l0,-82.233c22.533,-7.775 44.593,-13.705 66.179,-17.792c21.585,-4.087 42.276,-6.13 62.072,-6.13c49.91,-0 89.133,11.014 117.668,33.042c28.536,22.029 42.803,52.081 42.803,90.157c0,17.543 -3.106,33.99 -9.319,49.34c-6.212,15.35 -16.9,32.395 -32.062,51.134c-11.162,13.556 -41.803,44.057 -91.924,91.503c-27.166,25.716 -48.752,46.249 -64.757,61.6Z" style="fill:#0f0;fill-rule:nonzero;"/></g></svg>