<?xml version="1.0" encoding="UTF-8" standalone="no"?><!DOCTYPE svg PUBLIC "-//W3C//DTD SVG 1.1//EN" "http://www.w3.org/Graphics/SVG/1.1/DTD/svg11.dtd"><svg width="100%" height="100%" viewBox="0 0 2136 2136" version="1.1" xmlns="http://www.w3.org/2000/svg" xmlns:xlink="http://www.w3.org/1999/xlink" xml:space="preserve" xmlns:serif="http://www.serif.com/" style="fill-rule:evenodd;clip-rule:evenodd;stroke-linejoin:round;stroke-miterlimit:2;"><rect id="d20_10" x="1.424" y="0.552" width="2133.33" height="2133.33" style="fill:none;"/><g id="d20_101" serif:id="d20_10"><path d="M1066.04,333.958l630.696,1085.13l-1261.39,0l630.695,-1085.13Z" style="fill:#083590;"/><path d="M1066.04,2042.93l630.696,-623.837l-1261.39,0l630.695,623.837Z" style="fill:#002570;"/><g><path d="M775.655,1212.4l104.243,0l-0,-289.759l-96.978,22.727l0,-79.542l97.61,-22.128l90.028,-0l-0,368.702l104.243,0l-0,77.747l-299.146,0l-0,-77.747Z" style="fill:#0f0;fill-rule:nonzero;"/><path d="M1077.91,1067.37c0,-77.348 12.952,-135.31 38.855,-173.885c25.902,-38.574 64.862,-57.862 116.878,-57.862c52.227,0 91.292,19.238 117.195,57.713c25.903,38.475 38.854,96.486 38.854,174.034c0,77.349 -12.951,135.261 -38.854,173.736c-25.903,38.475 -64.968,57.712 -117.195,57.712c-52.016,0 -90.976,-19.287 -116.878,-57.862c-25.903,-38.574 -38.855,-96.436 -38.855,-173.586Zm108.666,119.313c9.898,24.919 25.587,37.378 47.067,37.378c21.691,0 37.486,-12.459 47.383,-37.378c9.898,-24.919 14.847,-64.69 14.847,-119.313c0,-20.732 -0.737,-39.272 -2.211,-55.619l-110.245,166.26c1.053,3.189 2.106,6.08 3.159,8.672Zm47.067,-276.303c-21.48,0 -37.169,12.46 -47.067,37.379c-9.898,24.919 -14.847,64.789 -14.847,119.611c0,16.945 0.421,32.395 1.264,46.35l108.665,-164.167c-0.21,-0.598 -0.421,-1.196 -0.632,-1.794c-9.897,-24.919 -25.692,-37.379 -47.383,-37.379Z" style="fill:#0f0;fill-rule:nonzero;"/></g><path d="M1066.04,333.958l-901.63,233.273l270.935,851.859l630.695,-1085.13Z" style="fill:#002570;"/><path d="M1066.04,333.958l630.696,1085.13l276.797,-851.858l-907.493,-233.274Z" style="fill:#002570;"/><path d="M1982.91,1566.37l-286.173,-147.276l276.797,-851.858l9.376,999.134Z" style="fill:#001746;"/><path d="M153.271,1566.37l286.173,-147.276l-275.023,-851.87l-11.15,999.146Z" style="fill:#001746;"/><path d="M1982.91,1566.37l-286.173,-147.276l-630.696,623.833l916.869,-476.557Z"/><path d="M153.271,1566.37l286.173,-147.276l630.696,623.833l-916.869,-476.557Z"/><path d="M1066.04,333.958l-1.89,-242.448l909.383,475.722l-907.493,-233.274Z"/><path d="M1066.04,333.958l-1.89,-242.448l-899.74,475.722l901.63,-233.274Z" style="fill:#001746;"/></g></svg>