<?xml version="1.0" encoding="UTF-8" standalone="no"?><!DOCTYPE svg PUBLIC "-//W3C//DTD SVG 1.1//EN" "http://www.w3.org/Graphics/SVG/1.1/DTD/svg11.dtd"><svg width="100%" height="100%" viewBox="0 0 2136 2136" version="1.1" xmlns="http://www.w3.org/2000/svg" xmlns:xlink="http://www.w3.org/1999/xlink" xml:space="preserve" xmlns:serif="http://www.serif.com/" style="fill-rule:evenodd;clip-rule:evenodd;stroke-linejoin:round;stroke-miterlimit:2;"><rect id="d20_12" x="1.009" y="0.989" width="2133.33" height="2133.33" style="fill:none;"/><g id="d20_121" serif:id="d20_12"><path d="M1065.63,334.395l630.695,1085.13l-1261.39,0l630.696,-1085.13Z" style="fill:#083590;"/><path d="M1065.63,2043.36l630.695,-623.837l-1261.39,0l630.696,623.837Z" style="fill:#002570;"/><path d="M1065.63,334.395l-901.63,233.273l270.934,851.859l630.696,-1085.13Z" style="fill:#002570;"/><path d="M1065.63,334.395l630.695,1085.13l276.798,-851.859l-907.493,-233.273Z" style="fill:#002570;"/><g><path d="M767.595,1217.17l104.244,-0l-0,-289.759l-96.978,22.726l-0,-79.541l97.609,-22.128l90.029,-0l-0,368.702l104.243,-0l-0,77.747l-299.147,0l0,-77.747Z" style="fill:#0f0;fill-rule:nonzero;"/><path d="M1185.73,1217.17l198.693,-0l0,77.747l-299.462,0l0,-75.355l50.542,-50.835c60.019,-60.404 96.452,-97.583 109.298,-111.538c15.794,-17.144 27.166,-32.344 34.116,-45.601c6.949,-13.257 10.424,-26.365 10.424,-39.323c0,-19.935 -6.37,-35.335 -19.111,-46.2c-12.741,-10.864 -30.799,-16.297 -54.175,-16.297c-16.637,0 -35.327,3.14 -56.07,9.42c-20.744,6.279 -42.382,15.4 -64.915,27.361l-0,-82.233c22.533,-7.775 44.593,-13.705 66.178,-17.792c21.586,-4.087 42.277,-6.13 62.072,-6.13c49.911,-0 89.134,11.014 117.669,33.042c28.535,22.029 42.803,52.081 42.803,90.158c-0,17.543 -3.107,33.989 -9.319,49.339c-6.212,15.35 -16.9,32.395 -32.063,51.134c-11.161,13.556 -41.802,44.057 -91.923,91.503c-27.167,25.716 -48.752,46.25 -64.757,61.6Z" style="fill:#0f0;fill-rule:nonzero;"/></g><path d="M1982.5,1566.8l-286.174,-147.276l276.798,-851.859l9.376,999.135Z" style="fill:#001746;"/><path d="M152.856,1566.8l286.174,-147.276l-275.023,-851.871l-11.151,999.147Z" style="fill:#001746;"/><path d="M1982.5,1566.8l-286.174,-147.276l-630.695,623.833l916.869,-476.557Z"/><path d="M152.856,1566.8l286.174,-147.276l630.696,623.833l-916.87,-476.557Z"/><path d="M1065.63,334.395l-1.891,-242.448l909.384,475.721l-907.493,-233.273Z"/><path d="M1065.63,334.395l-1.891,-242.448l-899.74,475.721l901.631,-233.273Z" style="fill:#001746;"/></g></svg>