<?xml version="1.0" encoding="UTF-8" standalone="no"?><!DOCTYPE svg PUBLIC "-//W3C//DTD SVG 1.1//EN" "http://www.w3.org/Graphics/SVG/1.1/DTD/svg11.dtd"><svg width="100%" height="100%" viewBox="0 0 2136 2136" version="1.1" xmlns="http://www.w3.org/2000/svg" xmlns:xlink="http://www.w3.org/1999/xlink" xml:space="preserve" xmlns:serif="http://www.serif.com/" style="fill-rule:evenodd;clip-rule:evenodd;stroke-linejoin:round;stroke-miterlimit:2;"><rect id="d20_6" x="1.267" y="1.021" width="2133.33" height="2133.33" style="fill:none;"/><g id="d20_61" serif:id="d20_6"><path d="M1065.88,334.428l630.695,1085.13l-1261.39,-0l630.696,-1085.13Z" style="fill:#083590;"/><path d="M1065.88,2043.4l630.695,-623.837l-1261.39,-0l630.696,623.837Z" style="fill:#002570;"/><path d="M1065.88,334.428l-901.631,233.273l270.935,851.859l630.696,-1085.13Z" style="fill:#002570;"/><path d="M1065.88,334.428l630.695,1085.13l276.797,-851.859l-907.492,-233.273Z" style="fill:#002570;"/><path d="M1073.15,1066.34c-20.217,0 -35.643,6.928 -46.278,20.783c-10.635,13.855 -15.952,33.94 -15.952,60.254c-0,26.115 5.317,46.1 15.952,59.955c10.635,13.855 26.061,20.783 46.278,20.783c20.217,-0 35.748,-6.928 46.593,-20.783c10.846,-13.855 16.269,-33.84 16.269,-59.955c-0,-26.115 -5.423,-46.15 -16.269,-60.105c-10.845,-13.954 -26.376,-20.932 -46.593,-20.932Zm122.249,-212.31l-0,80.14c-16.637,-8.971 -32.589,-15.699 -47.857,-20.185c-15.268,-4.485 -29.957,-6.728 -44.067,-6.728c-33.695,0 -59.334,10.715 -76.919,32.146c-17.584,21.43 -26.797,53.077 -27.64,94.941c9.898,-12.957 22.534,-22.676 37.907,-29.155c15.373,-6.479 33.484,-9.718 54.333,-9.718c42.539,-0 75.392,12.708 98.557,38.126c23.165,25.417 34.747,61.45 34.747,108.099c0,50.037 -13.004,88.811 -39.012,116.322c-26.008,27.51 -62.598,41.266 -109.771,41.266c-57.492,-0 -99.242,-18.241 -125.25,-54.723c-26.008,-36.481 -39.012,-95.39 -39.012,-176.725c0,-77.349 15.9,-135.311 47.699,-173.885c31.8,-38.575 79.499,-57.862 143.098,-57.862c14.741,-0 29.956,1.495 45.646,4.485c15.689,2.99 31.536,7.476 47.541,13.456Z" style="fill:#0f0;fill-rule:nonzero;"/><path d="M1982.75,1566.84l-286.173,-147.275l276.797,-851.859l9.376,999.134Z" style="fill:#001746;"/><path d="M153.114,1566.84l286.174,-147.275l-275.023,-851.871l-11.151,999.146Z" style="fill:#001746;"/><path d="M1982.75,1566.84l-286.173,-147.275l-630.696,623.832l916.869,-476.557Z"/><path d="M153.114,1566.84l286.174,-147.275l630.695,623.832l-916.869,-476.557Z"/><path d="M1065.88,334.428l-1.891,-242.448l909.383,475.721l-907.492,-233.273Z"/><path d="M1065.88,334.428l-1.891,-242.448l-899.74,475.721l901.631,-233.273Z" style="fill:#001746;"/></g></svg>