<?xml version="1.0" encoding="UTF-8" standalone="no"?><!DOCTYPE svg PUBLIC "-//W3C//DTD SVG 1.1//EN" "http://www.w3.org/Graphics/SVG/1.1/DTD/svg11.dtd"><svg width="100%" height="100%" viewBox="0 0 2136 2136" version="1.1" xmlns="http://www.w3.org/2000/svg" xmlns:xlink="http://www.w3.org/1999/xlink" xml:space="preserve" xmlns:serif="http://www.serif.com/" style="fill-rule:evenodd;clip-rule:evenodd;stroke-linejoin:round;stroke-miterlimit:2;"><rect id="d20_7" x="0.672" y="1.061" width="2133.33" height="2133.33" style="fill:none;"/><g id="d20_71" serif:id="d20_7"><path d="M1065.29,334.467l630.695,1085.13l-1261.39,0l630.696,-1085.13Z" style="fill:#083590;"/><path d="M918.239,844.503l298.199,-0l-0,62.497l-159.84,383.952l-95.082,0l153.521,-368.702l-196.798,0l-0,-77.747Z" style="fill:#0f0;fill-rule:nonzero;"/><path d="M1065.29,2043.44l630.695,-623.837l-1261.39,0l630.696,623.837Z" style="fill:#002570;"/><path d="M1065.29,334.467l-901.63,233.273l270.934,851.859l630.696,-1085.13Z" style="fill:#002570;"/><path d="M1065.29,334.467l630.695,1085.13l276.798,-851.859l-907.493,-233.273Z" style="fill:#002570;"/><path d="M1982.16,1566.88l-286.174,-147.276l276.798,-851.859l9.376,999.135Z" style="fill:#001746;"/><path d="M152.519,1566.88l286.173,-147.276l-275.023,-851.871l-11.15,999.147Z" style="fill:#001746;"/><path d="M1982.16,1566.88l-286.174,-147.276l-630.695,623.833l916.869,-476.557Z"/><path d="M152.519,1566.88l286.173,-147.276l630.696,623.833l-916.869,-476.557Z"/><path d="M1065.29,334.467l-1.891,-242.448l909.384,475.721l-907.493,-233.273Z"/><path d="M1065.29,334.467l-1.891,-242.448l-899.74,475.721l901.631,-233.273Z" style="fill:#001746;"/></g></svg>