<?xml version="1.0" encoding="UTF-8" standalone="no"?><!DOCTYPE svg PUBLIC "-//W3C//DTD SVG 1.1//EN" "http://www.w3.org/Graphics/SVG/1.1/DTD/svg11.dtd"><svg width="100%" height="100%" viewBox="0 0 2136 2136" version="1.1" xmlns="http://www.w3.org/2000/svg" xmlns:xlink="http://www.w3.org/1999/xlink" xml:space="preserve" xmlns:serif="http://www.serif.com/" style="fill-rule:evenodd;clip-rule:evenodd;stroke-linejoin:round;stroke-miterlimit:2;"><rect id="d20_17" x="0.626" y="0.258" width="2133.33" height="2133.33" style="fill:none;"/><g id="d20_171" serif:id="d20_17"><path d="M1065.24,333.664l630.695,1085.13l-1261.39,0l630.696,-1085.13Z" style="fill:#083590;"/><path d="M1065.24,2042.63l630.695,-623.837l-1261.39,0l630.696,623.837Z" style="fill:#002570;"/><g><path d="M746.122,1212.4l104.243,0l0,-289.758l-96.977,22.726l-0,-79.542l97.609,-22.128l90.028,0l0,368.702l104.244,0l-0,77.748l-299.147,-0l0,-77.748Z" style="fill:#0f0;fill-rule:nonzero;"/><path d="M1065.27,843.7l298.199,0l0,62.497l-159.839,383.953l-95.083,-0l153.522,-368.703l-196.799,0l0,-77.747Z" style="fill:#0f0;fill-rule:nonzero;"/></g><path d="M1065.24,333.664l-901.63,233.273l270.934,851.859l630.696,-1085.13Z" style="fill:#002570;"/><path d="M1065.24,333.664l630.695,1085.13l276.798,-851.858l-907.493,-233.274Z" style="fill:#002570;"/><path d="M1982.11,1566.07l-286.174,-147.276l276.798,-851.858l9.376,999.134Z" style="fill:#001746;"/><path d="M152.474,1566.07l286.173,-147.276l-275.023,-851.87l-11.15,999.146Z" style="fill:#001746;"/><path d="M1982.11,1566.07l-286.174,-147.276l-630.695,623.833l916.869,-476.557Z"/><path d="M152.474,1566.07l286.173,-147.276l630.696,623.833l-916.869,-476.557Z"/><path d="M1065.24,333.664l-1.891,-242.448l909.384,475.722l-907.493,-233.274Z"/><path d="M1065.24,333.664l-1.891,-242.448l-899.74,475.722l901.631,-233.274Z" style="fill:#001746;"/></g></svg>