<?xml version="1.0" encoding="UTF-8" standalone="no"?><!DOCTYPE svg PUBLIC "-//W3C//DTD SVG 1.1//EN" "http://www.w3.org/Graphics/SVG/1.1/DTD/svg11.dtd"><svg width="100%" height="100%" viewBox="0 0 2136 2136" version="1.1" xmlns="http://www.w3.org/2000/svg" xmlns:xlink="http://www.w3.org/1999/xlink" xml:space="preserve" xmlns:serif="http://www.serif.com/" style="fill-rule:evenodd;clip-rule:evenodd;stroke-linejoin:round;stroke-miterlimit:2;"><rect id="d20_1" x="2" y="1.638" width="2133.33" height="2133.33" style="fill:none;"/><g id="d20_11" serif:id="d20_1"><path d="M1066.62,335.044l630.695,1085.13l-1261.39,0l630.696,-1085.13Z" style="fill:#083590;"/><path d="M919.094,1213.78l104.243,0l0,-289.759l-96.978,22.727l0,-79.542l97.61,-22.128l90.028,-0l0,368.702l104.243,0l0,77.747l-299.146,0l-0,-77.747Z" style="fill:#0f0;fill-rule:nonzero;"/><path d="M1066.62,2044.01l630.695,-623.837l-1261.39,0l630.696,623.837Z" style="fill:#002570;"/><path d="M1066.62,335.044l-901.63,233.273l270.934,851.859l630.696,-1085.13Z" style="fill:#002570;"/><path d="M1066.62,335.044l630.695,1085.13l276.798,-851.858l-907.493,-233.274Z" style="fill:#002570;"/><path d="M1983.49,1567.45l-286.174,-147.276l276.798,-851.858l9.376,999.134Z" style="fill:#001746;"/><path d="M153.847,1567.45l286.174,-147.276l-275.023,-851.87l-11.151,999.146Z" style="fill:#001746;"/><path d="M1983.49,1567.45l-286.174,-147.276l-630.695,623.833l916.869,-476.557Z"/><path d="M153.847,1567.45l286.174,-147.276l630.696,623.833l-916.87,-476.557Z"/><path d="M1066.62,335.044l-1.891,-242.448l909.384,475.722l-907.493,-233.274Z"/><path d="M1066.62,335.044l-1.891,-242.448l-899.74,475.722l901.631,-233.274Z" style="fill:#001746;"/></g></svg>