<?xml version="1.0" encoding="UTF-8" standalone="no"?><!DOCTYPE svg PUBLIC "-//W3C//DTD SVG 1.1//EN" "http://www.w3.org/Graphics/SVG/1.1/DTD/svg11.dtd"><svg width="100%" height="100%" viewBox="0 0 2136 2136" version="1.1" xmlns="http://www.w3.org/2000/svg" xmlns:xlink="http://www.w3.org/1999/xlink" xml:space="preserve" xmlns:serif="http://www.serif.com/" style="fill-rule:evenodd;clip-rule:evenodd;stroke-linejoin:round;stroke-miterlimit:2;"><rect id="d20_20" x="0.61" y="0.372" width="2133.33" height="2133.33" style="fill:none;"/><g id="d20_201" serif:id="d20_20"><path d="M1065.23,333.778l630.695,1085.13l-1261.39,0l630.696,-1085.13Z" style="fill:#083590;"/><path d="M1065.23,2042.75l630.695,-623.837l-1261.39,0l630.696,623.837Z" style="fill:#002570;"/><path d="M1065.23,333.778l-901.631,233.273l270.935,851.859l630.696,-1085.13Z" style="fill:#002570;"/><path d="M1065.23,333.778l630.695,1085.13l276.798,-851.859l-907.493,-233.273Z" style="fill:#002570;"/><g><path d="M867.698,1212.22l198.694,-0l-0,77.747l-299.462,0l-0,-75.355l50.542,-50.835c60.019,-60.404 96.451,-97.583 109.297,-111.538c15.795,-17.144 27.167,-32.344 34.116,-45.601c6.95,-13.257 10.424,-26.365 10.424,-39.323c0,-19.935 -6.37,-35.335 -19.111,-46.2c-12.741,-10.864 -30.799,-16.297 -54.175,-16.297c-16.637,0 -35.327,3.14 -56.07,9.42c-20.743,6.279 -42.382,15.4 -64.915,27.361l-0,-82.233c22.533,-7.775 44.593,-13.705 66.179,-17.792c21.585,-4.087 42.276,-6.13 62.072,-6.13c49.91,-0 89.133,11.014 117.668,33.042c28.535,22.029 42.803,52.081 42.803,90.158c0,17.543 -3.106,33.989 -9.319,49.339c-6.212,15.35 -16.9,32.395 -32.062,51.134c-11.162,13.556 -41.803,44.057 -91.924,91.503c-27.166,25.716 -48.752,46.25 -64.757,61.6Z" style="fill:#0f0;fill-rule:nonzero;"/><path d="M1085.01,1067.19c-0,-77.349 12.951,-135.31 38.854,-173.885c25.903,-38.575 64.863,-57.862 116.879,-57.862c52.227,-0 91.292,19.237 117.195,57.712c25.902,38.475 38.854,96.487 38.854,174.035c-0,77.349 -12.952,135.26 -38.854,173.735c-25.903,38.475 -64.968,57.713 -117.195,57.713c-52.016,-0 -90.976,-19.287 -116.879,-57.862c-25.903,-38.575 -38.854,-96.437 -38.854,-173.586Zm108.666,119.312c9.897,24.919 25.587,37.379 47.067,37.379c21.691,-0 37.485,-12.46 47.383,-37.379c9.898,-24.919 14.847,-64.69 14.847,-119.312c-0,-20.733 -0.737,-39.273 -2.211,-55.619l-110.245,166.259c1.053,3.19 2.106,6.081 3.159,8.672Zm47.067,-276.302c-21.48,-0 -37.17,12.459 -47.067,37.379c-9.898,24.919 -14.847,64.789 -14.847,119.611c-0,16.945 0.421,32.395 1.263,46.349l108.666,-164.166c-0.211,-0.598 -0.421,-1.196 -0.632,-1.794c-9.898,-24.92 -25.692,-37.379 -47.383,-37.379Z" style="fill:#0f0;fill-rule:nonzero;"/></g><path d="M1982.1,1566.19l-286.173,-147.276l276.798,-851.859l9.375,999.135Z" style="fill:#001746;"/><path d="M152.457,1566.19l286.174,-147.276l-275.023,-851.871l-11.151,999.147Z" style="fill:#001746;"/><path d="M1982.1,1566.19l-286.173,-147.276l-630.696,623.832l916.869,-476.556Z"/><path d="M152.457,1566.19l286.174,-147.276l630.695,623.832l-916.869,-476.556Z"/><path d="M1065.23,333.778l-1.891,-242.448l909.384,475.721l-907.493,-233.273Z"/><path d="M1065.23,333.778l-1.891,-242.448l-899.74,475.721l901.631,-233.273Z" style="fill:#001746;"/></g></svg>