<?xml version="1.0" encoding="UTF-8" standalone="no"?><!DOCTYPE svg PUBLIC "-//W3C//DTD SVG 1.1//EN" "http://www.w3.org/Graphics/SVG/1.1/DTD/svg11.dtd"><svg width="100%" height="100%" viewBox="0 0 2136 2136" version="1.1" xmlns="http://www.w3.org/2000/svg" xmlns:xlink="http://www.w3.org/1999/xlink" xml:space="preserve" xmlns:serif="http://www.serif.com/" style="fill-rule:evenodd;clip-rule:evenodd;stroke-linejoin:round;stroke-miterlimit:2;"><rect id="d20_8" x="1.425" y="0.488" width="2133.33" height="2133.33" style="fill:none;"/><g id="d20_81" serif:id="d20_8"><path d="M1066.04,333.894l630.695,1085.13l-1261.39,-0l630.696,-1085.13Z" style="fill:#083590;"/><path d="M1067.93,1090.93c-20.848,-0 -37.696,6.229 -50.542,18.689c-12.846,12.459 -19.269,28.956 -19.269,49.489c-0,20.533 6.423,37.08 19.269,49.639c12.846,12.559 29.694,18.839 50.542,18.839c20.849,-0 37.749,-6.38 50.7,-19.138c12.952,-12.759 19.427,-29.205 19.427,-49.34c0,-20.533 -6.423,-37.03 -19.269,-49.489c-12.846,-12.46 -29.799,-18.689 -50.858,-18.689Zm-69.179,-37.379c-23.797,-7.775 -41.908,-19.985 -54.333,-36.631c-12.425,-16.646 -18.638,-37.03 -18.638,-61.151c0,-37.08 12.741,-66.384 38.223,-87.915c25.482,-21.53 60.124,-32.295 103.927,-32.295c44.014,0 78.762,10.765 104.243,32.295c25.482,21.531 38.223,50.835 38.223,87.915c-0,23.922 -6.107,44.206 -18.322,60.852c-12.214,16.646 -30.009,28.956 -53.385,36.93c26.114,7.576 46.541,21.131 61.283,40.668c14.741,19.537 22.112,42.96 22.112,70.272c-0,42.86 -13.373,75.953 -40.118,99.277c-26.745,23.324 -64.757,34.986 -114.036,34.986c-49.068,0 -86.974,-11.662 -113.72,-34.986c-26.745,-23.324 -40.117,-56.417 -40.117,-99.277c-0,-27.511 7.476,-51.034 22.428,-70.571c14.952,-19.537 35.695,-32.993 62.23,-40.369Zm9.792,-90.605c0,17.543 5.318,31.447 15.953,41.714c10.634,10.267 25.113,15.4 43.434,15.4c18.532,-0 33.116,-5.133 43.751,-15.4c10.635,-10.267 15.952,-24.171 15.952,-41.714c0,-17.344 -5.317,-31.05 -15.952,-41.117c-10.635,-10.067 -25.219,-15.101 -43.751,-15.101c-18.111,0 -32.536,5.084 -43.276,15.251c-10.741,10.167 -16.111,23.822 -16.111,40.967Z" style="fill:#0f0;fill-rule:nonzero;"/><path d="M1066.04,2042.86l630.695,-623.836l-1261.39,-0l630.696,623.836Z" style="fill:#002570;"/><path d="M1066.04,333.894l-901.63,233.274l270.934,851.859l630.696,-1085.13Z" style="fill:#002570;"/><path d="M1066.04,333.894l630.695,1085.13l276.798,-851.859l-907.493,-233.274Z" style="fill:#002570;"/><path d="M1982.91,1566.3l-286.174,-147.275l276.798,-851.859l9.376,999.134Z" style="fill:#001746;"/><path d="M153.272,1566.3l286.173,-147.275l-275.023,-851.871l-11.15,999.146Z" style="fill:#001746;"/><path d="M1982.91,1566.3l-286.174,-147.275l-630.695,623.832l916.869,-476.557Z"/><path d="M153.272,1566.3l286.173,-147.275l630.696,623.832l-916.869,-476.557Z"/><path d="M1066.04,333.894l-1.891,-242.448l909.384,475.722l-907.493,-233.274Z"/><path d="M1066.04,333.894l-1.891,-242.448l-899.74,475.722l901.631,-233.274Z" style="fill:#001746;"/></g></svg>