<?xml version="1.0" encoding="UTF-8" standalone="no"?><!DOCTYPE svg PUBLIC "-//W3C//DTD SVG 1.1//EN" "http://www.w3.org/Graphics/SVG/1.1/DTD/svg11.dtd"><svg width="100%" height="100%" viewBox="0 0 2136 2136" version="1.1" xmlns="http://www.w3.org/2000/svg" xmlns:xlink="http://www.w3.org/1999/xlink" xml:space="preserve" xmlns:serif="http://www.serif.com/" style="fill-rule:evenodd;clip-rule:evenodd;stroke-linejoin:round;stroke-miterlimit:2;"><rect id="d20_16" x="1.025" y="1.955" width="2133.33" height="2133.33" style="fill:none;"/><g id="d20_161" serif:id="d20_16"><path d="M1065.64,335.361l630.695,1085.13l-1261.39,-0l630.696,-1085.13Z" style="fill:#083590;"/><path d="M1065.64,2044.33l630.695,-623.837l-1261.39,-0l630.696,623.837Z" style="fill:#002570;"/><path d="M1065.64,335.361l-901.63,233.273l270.934,851.859l630.696,-1085.13Z" style="fill:#002570;"/><g><path d="M758.479,1213.2l104.244,0l-0,-289.758l-96.978,22.726l-0,-79.542l97.609,-22.128l90.029,0l-0,368.702l104.243,0l-0,77.748l-299.147,-0l0,-77.748Z" style="fill:#0f0;fill-rule:nonzero;"/><path d="M1238.09,1067.28c-20.217,-0 -35.643,6.927 -46.278,20.782c-10.635,13.855 -15.952,33.94 -15.952,60.254c-0,26.115 5.317,46.101 15.952,59.955c10.635,13.855 26.061,20.783 46.278,20.783c20.217,-0 35.748,-6.928 46.593,-20.783c10.846,-13.854 16.269,-33.84 16.269,-59.955c-0,-26.115 -5.423,-46.15 -16.269,-60.104c-10.845,-13.955 -26.376,-20.932 -46.593,-20.932Zm122.249,-212.311l-0,80.14c-16.637,-8.971 -32.589,-15.699 -47.857,-20.184c-15.268,-4.486 -29.957,-6.729 -44.067,-6.729c-33.695,0 -59.334,10.716 -76.919,32.146c-17.584,21.43 -26.797,53.078 -27.64,94.942c9.898,-12.958 22.534,-22.677 37.907,-29.156c15.373,-6.479 33.484,-9.718 54.333,-9.718c42.539,-0 75.392,12.709 98.557,38.126c23.165,25.417 34.748,61.45 34.748,108.099c-0,50.037 -13.005,88.811 -39.013,116.322c-26.008,27.51 -62.598,41.266 -109.771,41.266c-57.492,-0 -99.242,-18.241 -125.25,-54.722c-26.008,-36.482 -39.012,-95.391 -39.012,-176.726c0,-77.349 15.9,-135.311 47.699,-173.885c31.8,-38.575 79.499,-57.862 143.098,-57.862c14.741,-0 29.956,1.495 45.646,4.485c15.689,2.99 31.536,7.476 47.541,13.456Z" style="fill:#0f0;fill-rule:nonzero;"/></g><path d="M1065.64,335.361l630.695,1085.13l276.798,-851.859l-907.493,-233.273Z" style="fill:#002570;"/><path d="M1982.51,1567.77l-286.174,-147.275l276.798,-851.859l9.376,999.134Z" style="fill:#001746;"/><path d="M152.872,1567.77l286.174,-147.275l-275.023,-851.871l-11.151,999.146Z" style="fill:#001746;"/><path d="M1982.51,1567.77l-286.174,-147.275l-630.696,623.832l916.87,-476.557Z"/><path d="M152.872,1567.77l286.174,-147.275l630.695,623.832l-916.869,-476.557Z"/><path d="M1065.64,335.361l-1.891,-242.448l909.384,475.721l-907.493,-233.273Z"/><path d="M1065.64,335.361l-1.891,-242.448l-899.74,475.721l901.631,-233.273Z" style="fill:#001746;"/></g></svg>