<?xml version="1.0" encoding="UTF-8" standalone="no"?><!DOCTYPE svg PUBLIC "-//W3C//DTD SVG 1.1//EN" "http://www.w3.org/Graphics/SVG/1.1/DTD/svg11.dtd"><svg width="100%" height="100%" viewBox="0 0 2136 2136" version="1.1" xmlns="http://www.w3.org/2000/svg" xmlns:xlink="http://www.w3.org/1999/xlink" xml:space="preserve" xmlns:serif="http://www.serif.com/" style="fill-rule:evenodd;clip-rule:evenodd;stroke-linejoin:round;stroke-miterlimit:2;"><rect id="d20_15" x="0.272" y="0.444" width="2133.33" height="2133.33" style="fill:none;"/><g id="d20_151" serif:id="d20_15"><path d="M1064.89,333.85l630.695,1085.13l-1261.39,0l630.696,-1085.13Z" style="fill:#083590;"/><path d="M1064.89,2042.82l630.695,-623.837l-1261.39,0l630.696,623.837Z" style="fill:#002570;"/><g><path d="M757.747,1208.25l104.243,-0l0,-289.759l-96.977,22.726l-0,-79.541l97.609,-22.128l90.028,-0l0,368.702l104.244,-0l-0,77.747l-299.147,0l0,-77.747Z" style="fill:#0f0;fill-rule:nonzero;"/><path d="M1091.52,839.55l256.186,-0l-0,77.747l-180.689,0l0,82.831c7.582,-2.791 15.69,-4.834 24.324,-6.13c8.634,-1.296 17.795,-1.944 27.482,-1.944c46.752,0 84.658,13.955 113.72,41.864c29.062,27.91 43.593,64.192 43.593,108.847c-0,46.847 -15.742,83.877 -47.226,111.089c-31.483,27.211 -74.391,40.817 -128.724,40.817c-20.217,0 -40.645,-1.595 -61.283,-4.784c-20.638,-3.19 -41.697,-7.975 -63.177,-14.354l-0,-79.541c17.479,8.173 35.432,14.303 53.859,18.39c18.427,4.087 36.906,6.13 55.438,6.13c32.853,-0 57.808,-6.628 74.866,-19.885c17.058,-13.257 25.587,-32.545 25.587,-57.862c-0,-23.325 -8.477,-42.014 -25.429,-56.068c-16.953,-14.055 -39.539,-21.082 -67.758,-21.082c-16.637,0 -33.327,1.944 -50.069,5.831c-16.742,3.888 -33.642,9.719 -50.7,17.493l0,-249.389Z" style="fill:#0f0;fill-rule:nonzero;"/></g><path d="M1064.89,333.85l-901.63,233.273l270.934,851.859l630.696,-1085.13Z" style="fill:#002570;"/><path d="M1064.89,333.85l630.695,1085.13l276.798,-851.859l-907.493,-233.273Z" style="fill:#002570;"/><path d="M1981.76,1566.26l-286.174,-147.275l276.798,-851.859l9.376,999.134Z" style="fill:#001746;"/><path d="M152.119,1566.26l286.174,-147.275l-275.023,-851.871l-11.151,999.146Z" style="fill:#001746;"/><path d="M1981.76,1566.26l-286.174,-147.275l-630.696,623.832l916.87,-476.557Z"/><path d="M152.119,1566.26l286.174,-147.275l630.695,623.832l-916.869,-476.557Z"/><path d="M1064.89,333.85l-1.891,-242.448l909.384,475.721l-907.493,-233.273Z"/><path d="M1064.89,333.85l-1.891,-242.448l-899.74,475.721l901.631,-233.273Z" style="fill:#001746;"/></g></svg>