<?xml version="1.0" encoding="UTF-8" standalone="no"?><!DOCTYPE svg PUBLIC "-//W3C//DTD SVG 1.1//EN" "http://www.w3.org/Graphics/SVG/1.1/DTD/svg11.dtd"><svg width="100%" height="100%" viewBox="0 0 2136 2136" version="1.1" xmlns="http://www.w3.org/2000/svg" xmlns:xlink="http://www.w3.org/1999/xlink" xml:space="preserve" xmlns:serif="http://www.serif.com/" style="fill-rule:evenodd;clip-rule:evenodd;stroke-linejoin:round;stroke-miterlimit:2;"><rect id="d20_3" x="1.267" y="1.961" width="2133.33" height="2133.33" style="fill:none;"/><g id="d20_31" serif:id="d20_3"><path d="M1065.88,335.368l630.696,1085.13l-1261.39,-0l630.695,-1085.13Z" style="fill:#083590;"/><path d="M1047.88,1091.8l-49.911,-0l0,-77.748l49.911,0c23.165,0 41.118,-4.336 53.859,-13.007c12.741,-8.672 19.111,-20.883 19.111,-36.631c0,-16.547 -6.37,-29.455 -19.111,-38.725c-12.741,-9.27 -30.694,-13.904 -53.859,-13.904c-17.69,-0 -36.643,2.093 -56.86,6.279c-20.217,4.187 -41.171,10.267 -62.862,18.241l0,-80.14c21.691,-6.18 43.066,-10.914 64.125,-14.204c21.06,-3.289 41.277,-4.934 60.651,-4.934c49.7,0 88.449,10.267 116.247,30.8c27.798,20.534 41.697,48.842 41.697,84.924c0,26.514 -8.002,48.194 -24.007,65.039c-16.005,16.845 -38.855,27.86 -68.548,33.043c33.695,5.582 59.387,18.29 77.077,38.126c17.689,19.835 26.534,45.901 26.534,78.196c0,43.259 -14.636,76.252 -43.908,98.978c-29.272,22.726 -71.812,34.09 -127.619,34.09c-23.797,-0 -47.225,-1.894 -70.285,-5.682c-23.06,-3.788 -45.12,-9.27 -66.179,-16.447l0,-81.933c19.796,9.369 41.171,16.496 64.125,21.38c22.955,4.884 47.068,7.326 72.339,7.326c25.271,0 45.277,-5.532 60.019,-16.596c14.741,-11.064 22.112,-25.965 22.112,-44.704c-0,-22.926 -7.371,-40.619 -22.112,-53.078c-14.742,-12.46 -35.59,-18.689 -62.546,-18.689Z" style="fill:#0f0;fill-rule:nonzero;"/><path d="M1065.88,2044.34l630.696,-623.836l-1261.39,-0l630.695,623.836Z" style="fill:#002570;"/><path d="M1065.88,335.368l-901.63,233.273l270.935,851.859l630.695,-1085.13Z" style="fill:#002570;"/><path d="M1065.88,335.368l630.696,1085.13l276.797,-851.859l-907.493,-233.273Z" style="fill:#002570;"/><path d="M1982.75,1567.78l-286.173,-147.275l276.797,-851.859l9.376,999.134Z" style="fill:#001746;"/><path d="M153.114,1567.78l286.174,-147.275l-275.023,-851.871l-11.151,999.146Z" style="fill:#001746;"/><path d="M1982.75,1567.78l-286.173,-147.275l-630.696,623.832l916.869,-476.557Z"/><path d="M153.114,1567.78l286.174,-147.275l630.695,623.832l-916.869,-476.557Z"/><path d="M1065.88,335.368l-1.89,-242.449l909.383,475.722l-907.493,-233.273Z"/><path d="M1065.88,335.368l-1.89,-242.449l-899.74,475.722l901.63,-233.273Z" style="fill:#001746;"/></g></svg>