<?xml version="1.0" encoding="UTF-8" standalone="no"?><!DOCTYPE svg PUBLIC "-//W3C//DTD SVG 1.1//EN" "http://www.w3.org/Graphics/SVG/1.1/DTD/svg11.dtd"><svg width="100%" height="100%" viewBox="0 0 2136 2136" version="1.1" xmlns="http://www.w3.org/2000/svg" xmlns:xlink="http://www.w3.org/1999/xlink" xml:space="preserve" xmlns:serif="http://www.serif.com/" style="fill-rule:evenodd;clip-rule:evenodd;stroke-linejoin:round;stroke-miterlimit:2;"><rect id="d20_5" x="0.92" y="1.135" width="2133.33" height="2133.33" style="fill:none;"/><g id="d20_51" serif:id="d20_5"><path d="M1065.54,334.541l630.696,1085.13l-1261.39,0l630.695,-1085.13Z" style="fill:#083590;"/><path d="M933.176,840.241l256.186,-0l-0,77.747l-180.688,0l-0,82.831c7.581,-2.791 15.689,-4.834 24.323,-6.13c8.634,-1.296 17.795,-1.943 27.482,-1.943c46.752,-0 84.658,13.954 113.72,41.863c29.062,27.91 43.593,64.192 43.593,108.847c-0,46.848 -15.742,83.877 -47.226,111.089c-31.483,27.212 -74.391,40.817 -128.724,40.817c-20.217,0 -40.644,-1.595 -61.283,-4.784c-20.638,-3.19 -41.697,-7.974 -63.177,-14.354l-0,-79.541c17.479,8.173 35.432,14.303 53.859,18.39c18.427,4.087 36.906,6.13 55.438,6.13c32.853,0 57.808,-6.628 74.866,-19.885c17.058,-13.257 25.587,-32.544 25.587,-57.862c-0,-23.324 -8.477,-42.014 -25.429,-56.068c-16.953,-14.054 -39.539,-21.081 -67.758,-21.081c-16.637,-0 -33.327,1.943 -50.069,5.831c-16.742,3.887 -33.642,9.718 -50.7,17.493l0,-249.39Z" style="fill:#0f0;fill-rule:nonzero;"/><path d="M1065.54,2043.51l630.696,-623.837l-1261.39,0l630.695,623.837Z" style="fill:#002570;"/><path d="M1065.54,334.541l-901.63,233.273l270.935,851.859l630.695,-1085.13Z" style="fill:#002570;"/><path d="M1065.54,334.541l630.696,1085.13l276.797,-851.859l-907.493,-233.273Z" style="fill:#002570;"/><path d="M1982.41,1566.95l-286.173,-147.276l276.797,-851.859l9.376,999.135Z" style="fill:#001746;"/><path d="M152.767,1566.95l286.174,-147.276l-275.023,-851.871l-11.151,999.147Z" style="fill:#001746;"/><path d="M1982.41,1566.95l-286.173,-147.276l-630.696,623.833l916.869,-476.557Z"/><path d="M152.767,1566.95l286.174,-147.276l630.695,623.833l-916.869,-476.557Z"/><path d="M1065.54,334.541l-1.89,-242.448l909.383,475.721l-907.493,-233.273Z"/><path d="M1065.54,334.541l-1.89,-242.448l-899.74,475.721l901.63,-233.273Z" style="fill:#001746;"/></g></svg>