<?xml version="1.0" encoding="UTF-8" standalone="no"?><!DOCTYPE svg PUBLIC "-//W3C//DTD SVG 1.1//EN" "http://www.w3.org/Graphics/SVG/1.1/DTD/svg11.dtd"><svg width="100%" height="100%" viewBox="0 0 2136 2136" version="1.1" xmlns="http://www.w3.org/2000/svg" xmlns:xlink="http://www.w3.org/1999/xlink" xml:space="preserve" xmlns:serif="http://www.serif.com/" style="fill-rule:evenodd;clip-rule:evenodd;stroke-linejoin:round;stroke-miterlimit:2;"><rect id="d20_14" x="0.868" y="0.404" width="2133.33" height="2133.33" style="fill:none;"/><g id="d20_141" serif:id="d20_14"><path d="M1065.49,333.811l630.696,1085.13l-1261.39,-0l630.695,-1085.13Z" style="fill:#083590;"/><path d="M1065.49,2042.78l630.696,-623.836l-1261.39,-0l630.695,623.836Z" style="fill:#002570;"/><g><path d="M754.867,1212.55l104.243,0l-0,-289.758l-96.978,22.726l0,-79.542l97.61,-22.128l90.028,0l-0,368.702l104.243,0l-0,77.748l-299.146,-0l-0,-77.748Z" style="fill:#0f0;fill-rule:nonzero;"/><path d="M1259.83,941.928l-119.09,176.426l119.09,0l-0,-176.426Zm-8.213,-98.082l97.609,0l0,274.508l51.806,0l-0,75.655l-51.806,-0l0,96.287l-89.396,-0l-0,-96.287l-187.006,-0l-0,-85.523l178.793,-264.64Z" style="fill:#0f0;fill-rule:nonzero;"/></g><path d="M1065.49,333.811l-901.63,233.273l270.935,851.859l630.695,-1085.13Z" style="fill:#002570;"/><path d="M1065.49,333.811l630.696,1085.13l276.797,-851.859l-907.493,-233.273Z" style="fill:#002570;"/><path d="M1982.35,1566.22l-286.173,-147.275l276.797,-851.859l9.376,999.134Z" style="fill:#001746;"/><path d="M152.715,1566.22l286.173,-147.275l-275.023,-851.871l-11.15,999.146Z" style="fill:#001746;"/><path d="M1982.35,1566.22l-286.173,-147.275l-630.696,623.832l916.869,-476.557Z"/><path d="M152.715,1566.22l286.173,-147.275l630.696,623.832l-916.869,-476.557Z"/><path d="M1065.49,333.811l-1.89,-242.448l909.383,475.721l-907.493,-233.273Z"/><path d="M1065.49,333.811l-1.89,-242.448l-899.74,475.721l901.63,-233.273Z" style="fill:#001746;"/></g></svg>