<?xml version="1.0" encoding="UTF-8" standalone="no"?><!DOCTYPE svg PUBLIC "-//W3C//DTD SVG 1.1//EN" "http://www.w3.org/Graphics/SVG/1.1/DTD/svg11.dtd"><svg width="100%" height="100%" viewBox="0 0 2136 2136" version="1.1" xmlns="http://www.w3.org/2000/svg" xmlns:xlink="http://www.w3.org/1999/xlink" xml:space="preserve" xmlns:serif="http://www.serif.com/" style="fill-rule:evenodd;clip-rule:evenodd;stroke-linejoin:round;stroke-miterlimit:2;"><rect id="d4_2" x="0.857" y="0.777" width="2133.33" height="2133.33" style="fill:none;"/><g id="d4_21" serif:id="d4_2"><path d="M1201.53,100.547l761.339,1769.05l105.973,-567.46l-867.312,-1201.59Z" style="fill:#000b21;"/><path d="M1201.53,100.547l761.339,1769.05l-1899.18,-162.187l1137.84,-1606.86Z" style="fill:#083590;"/><path d="M1014.49,1383.29l310.137,19.96l-8.716,121.355l-467.424,-30.084l8.448,-117.62l84.589,-74.27c100.453,-88.253 161.488,-142.625 183.103,-163.116c26.575,-25.174 46.03,-47.758 58.363,-67.752c12.334,-19.994 19.227,-40.104 20.68,-60.33c2.235,-31.116 -5.983,-55.794 -24.651,-74.032c-18.669,-18.239 -46.247,-28.532 -82.734,-30.88c-25.968,-1.672 -55.493,1.352 -88.574,9.07c-33.082,7.717 -67.879,19.779 -104.392,36.186l9.218,-128.356c36.044,-9.871 71.141,-16.913 105.292,-21.123c34.151,-4.21 66.675,-5.321 97.574,-3.333c77.904,5.014 137.891,26.146 179.962,63.397c42.07,37.25 60.971,85.591 56.703,145.024c-1.967,27.382 -8.659,52.741 -20.077,76.077c-11.418,23.335 -30.01,48.866 -55.778,76.592c-18.941,20.038 -70.188,64.568 -153.739,133.591c-45.287,37.411 -81.281,67.292 -107.984,89.644Z" style="fill:#0f0;fill-rule:nonzero;"/></g></svg>