<?xml version="1.0" encoding="UTF-8" standalone="no"?><!DOCTYPE svg PUBLIC "-//W3C//DTD SVG 1.1//EN" "http://www.w3.org/Graphics/SVG/1.1/DTD/svg11.dtd"><svg width="100%" height="100%" viewBox="0 0 2136 2136" version="1.1" xmlns="http://www.w3.org/2000/svg" xmlns:xlink="http://www.w3.org/1999/xlink" xml:space="preserve" xmlns:serif="http://www.serif.com/" style="fill-rule:evenodd;clip-rule:evenodd;stroke-linejoin:round;stroke-miterlimit:2;"><rect id="d6_1" x="1.101" y="1.346" width="2133.33" height="2133.33" style="fill:none;"/><g id="d6_11" serif:id="d6_1"><path d="M1067.28,65.827l878.398,507.294l-878.398,507.295l-878.397,-507.295l878.397,-507.294Z" style="fill:#083590;"/><path d="M898.646,362.01l438.304,273.95l107.634,-64.584l95.02,59.392l-330.483,198.292l-95.021,-59.392l107.625,-64.575l-344.716,-215.446l-84.759,82.354l-93.596,-58.495l84.13,-81.98l115.862,-69.516Z" style="fill:#0f0;fill-rule:nonzero;"/><path d="M1067.28,2070.2l879.376,-513l-0.978,-984.077l-878.398,507.295l0,989.782Z" style="fill:#000b21;"/><path d="M1067.28,2070.2l-877.411,-512.948l-0.978,-984.077l878.389,507.243l0,989.782Z" style="fill:#001e5b;"/></g></svg>