<?xml version="1.0" encoding="UTF-8" standalone="no"?><!DOCTYPE svg PUBLIC "-//W3C//DTD SVG 1.1//EN" "http://www.w3.org/Graphics/SVG/1.1/DTD/svg11.dtd"><svg width="100%" height="100%" viewBox="0 0 2136 2136" version="1.1" xmlns="http://www.w3.org/2000/svg" xmlns:xlink="http://www.w3.org/1999/xlink" xml:space="preserve" xmlns:serif="http://www.serif.com/" style="fill-rule:evenodd;clip-rule:evenodd;stroke-linejoin:round;stroke-miterlimit:2;"><rect id="d6_2" x="1.95" y="1.925" width="2133.33" height="2133.33" style="fill:none;"/><g id="d6_21" serif:id="d6_2"><path d="M1068.13,66.406l878.397,507.295l-878.397,507.294l-878.398,-507.294l878.398,-507.295Z" style="fill:#083590;"/><path d="M1023.78,351.887c56.04,0.908 108.078,16.378 156.119,46.405c29.633,18.516 50.615,39.843 62.965,63.97c12.105,23.975 18.174,62.286 18.209,114.925l0.255,124.798l209.558,-125.736l103.098,64.436l-346.083,207.65l-103.099,-64.436l-1.384,-213.815c-0.506,-19.337 -4.689,-36.019 -12.546,-50.048c-7.86,-14.025 -20.046,-26.203 -36.563,-36.525c-25.502,-15.937 -53.574,-24.234 -84.215,-24.892c-30.43,-0.783 -58.082,6.29 -82.961,21.215c-19.139,11.486 -35.344,27.012 -48.625,46.583c-13.527,19.42 -24.035,42.689 -31.519,69.792l-119.486,-74.685c17.278,-23.195 36.805,-44.627 58.298,-63.982c21.418,-19.701 45.099,-37.334 71.042,-52.899c56.987,-34.193 115.549,-51.774 175.677,-52.747c3.753,-0.068 7.507,-0.071 11.26,-0.009Zm-557.264,795.201c54.782,5.973 134.937,-54.684 188.494,-113.791l45.848,24.865l0,585.184l-119.632,-71.791l-0,-382.435c-28.995,39.584 -74.864,47.459 -114.71,30.927l0,-72.959Zm1173.15,-161.344c1.907,-0.057 3.781,-0.044 5.602,0.026c4.161,0.16 8.085,0.653 11.775,1.475c29.738,6.216 44.615,33.63 44.615,82.247c-0,33.172 -7.082,64.635 -21.232,94.394c-14.155,29.508 -35.067,56.875 -62.754,82.095c30.966,-8.704 54.452,-5.58 70.45,9.388c16.201,14.587 24.299,40.738 24.299,78.47c0,56.213 -17.434,109.466 -52.302,159.761c-34.868,50.035 -85.721,95.112 -152.58,135.228c-23.581,14.15 -47.275,25.956 -71.064,35.422c-23.585,9.59 -46.963,16.655 -70.138,21.189l0,-112.806c22.232,0.375 44.404,-2.437 65.838,-8.35c21.942,-6.329 43.468,-15.833 64.593,-28.508c31.381,-18.827 55.377,-39.93 71.989,-63.316c16.816,-23.512 25.23,-47.808 25.23,-72.877c-0,-25.826 -8.618,-40.15 -25.848,-42.984c-17.019,-3.205 -42.24,5.218 -75.672,25.273l-47.37,28.422l0,-94.191l49.832,-29.901c29.737,-17.845 51.882,-36.828 66.444,-56.957c14.561,-20.384 21.842,-42.356 21.842,-65.907c-0,-21.773 -7.073,-34.367 -21.224,-37.775c-14.154,-3.409 -34.149,2.638 -59.993,18.139c-19.074,11.446 -38.351,25.67 -57.835,42.68c-19.48,17.006 -38.861,36.486 -58.142,58.432l-0,-107.113c23.382,-22.127 46.561,-42.109 69.532,-59.946c22.972,-17.832 45.532,-33.392 67.681,-46.678c48.954,-29.374 87.763,-44.489 116.432,-45.337l-0,0.005Z" style="fill:#0f0;fill-rule:nonzero;"/><path d="M1068.13,2070.78l879.376,-512.999l-0.979,-984.077l-878.397,507.294l-0,989.782Z" style="fill:#000b21;"/><path d="M1068.13,2070.78l-877.411,-512.947l-0.979,-984.077l878.39,507.242l-0,989.782Z" style="fill:#001e5b;"/></g></svg>