<?xml version="1.0" encoding="UTF-8" standalone="no"?><!DOCTYPE svg PUBLIC "-//W3C//DTD SVG 1.1//EN" "http://www.w3.org/Graphics/SVG/1.1/DTD/svg11.dtd"><svg width="100%" height="100%" viewBox="0 0 2136 2136" version="1.1" xmlns="http://www.w3.org/2000/svg" xmlns:xlink="http://www.w3.org/1999/xlink" xml:space="preserve" xmlns:serif="http://www.serif.com/" style="fill-rule:evenodd;clip-rule:evenodd;stroke-linejoin:round;stroke-miterlimit:2;"><rect id="d6_3" x="0.378" y="0.655" width="2133.33" height="2133.33" style="fill:none;"/><g id="d6_31" serif:id="d6_3"><path d="M1066.56,65.136l878.398,507.294l-878.398,507.295l-878.397,-507.295l878.397,-507.294Z" style="fill:#083590;"/><path d="M994.6,333.359c45.103,0.303 87.68,12.966 127.718,37.987c31.221,19.511 49.762,39.774 55.633,60.781c5.624,20.852 -1.346,42.114 -20.93,63.788c40.263,-12.771 79.946,-16.729 119.058,-11.879c39.081,4.581 76.376,17.957 111.884,40.154c52.908,33.064 75.754,68.698 68.533,106.897c-7.458,38.052 -44.614,77.133 -111.469,117.244c-23.585,14.151 -49.542,26.951 -77.86,38.394c-27.877,11.468 -57.809,21.396 -89.8,29.793l-106.166,-66.353c35.02,-5.247 66.725,-12.312 95.139,-21.184c28.379,-9.146 53.137,-20.047 74.261,-32.722c31.377,-18.827 49.057,-37.179 53.037,-55.041c4.183,-17.983 -5.524,-34.344 -29.114,-49.087c-24.313,-15.194 -51.268,-21.501 -80.889,-18.91c-29.655,2.319 -61.196,13.511 -94.623,33.571l-47.375,28.422l-88.658,-55.413l49.836,-29.901c29.733,-17.845 46.527,-34.479 50.364,-49.923c3.599,-15.587 -5.684,-30.308 -27.851,-44.16c-20.493,-12.81 -43.416,-18.464 -68.767,-16.976c-25.351,1.489 -50.956,9.989 -76.796,25.494c-19.078,11.442 -35.846,24.572 -50.325,39.388c-14.479,14.817 -26.471,31.061 -35.975,48.738l-100.81,-63.009c15.914,-18.952 33.435,-36.494 52.367,-52.432c19.436,-16.366 40.157,-31.142 61.962,-44.186c59.677,-35.807 115.721,-55.417 168.131,-58.839c6.485,-0.462 12.984,-0.674 19.485,-0.636Zm-550.892,603.739c27.648,5.49 54.971,13.497 81.979,24.023c27.007,10.265 53.483,23.187 79.426,38.753c56.987,34.197 101.221,75.956 132.693,125.286c31.684,49.46 47.521,101.42 47.521,155.868c0,31.48 -6.696,56.879 -20.094,76.194c-13.398,19.057 -41.573,38.537 -84.527,58.437l-101.753,47.327l209.567,125.74l0,109.536l-346.084,-207.65l0,-109.536l173.838,-81.883c15.522,-7.718 27.012,-17.469 34.453,-29.262c7.441,-11.788 11.161,-26.453 11.161,-44.004c0,-27.094 -7.553,-53.427 -22.651,-78.998c-14.882,-25.446 -34.764,-45.64 -59.643,-60.565c-19.139,-11.485 -40.086,-19.021 -62.836,-22.612c-22.755,-3.846 -47.102,-3.742 -73.046,0.303l0,-126.957l-0.004,0Zm1132.89,32.216l0,483.523l111.742,-67.045l-0,104.82l-343.125,205.876l0,-104.82l111.751,-67.049l-0,-380.277l-114.71,97.193l0,-103.241l114.048,-96.804l120.294,-72.176Z" style="fill:#0f0;fill-rule:nonzero;"/><path d="M1066.56,2069.51l879.376,-513l-0.978,-984.077l-878.398,507.295l0,989.782Z" style="fill:#000b21;"/><path d="M1066.56,2069.51l-877.41,-512.948l-0.979,-984.077l878.389,507.243l0,989.782Z" style="fill:#001e5b;"/></g></svg>