<?xml version="1.0" encoding="UTF-8" standalone="no"?><!DOCTYPE svg PUBLIC "-//W3C//DTD SVG 1.1//EN" "http://www.w3.org/Graphics/SVG/1.1/DTD/svg11.dtd"><svg width="100%" height="100%" viewBox="0 0 2136 2136" version="1.1" xmlns="http://www.w3.org/2000/svg" xmlns:xlink="http://www.w3.org/1999/xlink" xml:space="preserve" xmlns:serif="http://www.serif.com/" style="fill-rule:evenodd;clip-rule:evenodd;stroke-linejoin:round;stroke-miterlimit:2;"><rect id="d6_4" x="2.042" y="1.657" width="2133.33" height="2133.33" style="fill:none;"/><g id="d6_41" serif:id="d6_4"><path d="M1068.22,66.139l878.398,507.294l-878.398,507.294l-878.397,-507.294l878.397,-507.294Z" style="fill:#083590;"/><path d="M925.746,325.331l349.381,218.357l59.5,-35.698l103.47,64.674l-59.491,35.703l100.874,63.048l-101.67,61.006l-100.884,-63.052l-184.912,110.95l-122.389,-76.502l-163.429,-306.76l119.55,-71.726Zm15.903,134.488l113.931,215.602l117.876,-70.731l-231.807,-144.871Zm702.511,472.712l0,109.405l-200.132,120.078l0,89.29c8.643,-8.176 17.684,-15.921 27.09,-23.205c9.098,-7.251 18.664,-13.896 28.634,-19.891c56.036,-33.622 99.659,-42.144 130.863,-25.558c31.2,16.326 46.799,55.936 46.799,118.815c0,62.364 -17.036,121.419 -51.108,177.173c-33.873,55.624 -80.983,101.537 -141.332,137.746c-26.068,15.643 -51.934,27.946 -77.592,36.901c-25.454,9.084 -50.805,14.76 -76.051,17.023l-0,-117.132c25.043,3.015 48.754,2.318 71.124,-2.085c22.511,-4.5 44.074,-12.858 63.736,-24.707c28.738,-17.243 51.315,-39.557 67.737,-66.936c16.625,-27.756 24.944,-56.706 24.944,-86.859c-0,-30.412 -8.319,-49.39 -24.944,-56.939c-16.422,-7.67 -38.999,-2.89 -67.737,14.354c-17.036,10.222 -35.206,23.962 -54.5,41.209c-19.294,16.989 -40.024,37.931 -62.195,62.828l-0,-324.709l294.66,-176.801l0.004,-0Zm-1097.98,71.271c25.831,0.55 55.391,10.811 88.675,30.78c20.004,12.005 39.419,25.688 58.259,41.046c18.836,15.361 37.485,32.631 55.936,51.813l-0,104.967c-18.451,-22.483 -35.828,-41.271 -52.142,-56.386c-16.313,-15.366 -32.246,-27.708 -47.781,-37.031c-33.406,-20.042 -59.427,-23.49 -78.072,-10.335c-18.646,12.901 -29.526,42.248 -32.632,88.053c12.818,-4.733 26.709,-5.659 41.66,-2.769c14.96,2.63 31.269,9.258 48.941,19.861c44.471,26.683 80.313,65.163 107.502,115.449c27.384,50.407 41.071,103.12 41.071,158.139c0,60.85 -15.245,100.516 -45.734,118.983c-30.495,18.213 -71.372,11.94 -122.644,-18.827c-56.515,-33.907 -100.312,-85.032 -131.386,-153.371c-30.88,-68.473 -46.319,-148.47 -46.319,-240c-0,-93.811 18.061,-156.629 54.183,-188.456c15.89,-13.982 34.345,-21.284 55.361,-21.898c1.687,-0.052 3.4,-0.057 5.122,-0.018Zm38.415,303.931c-7.376,-0.247 -13.54,2.336 -18.494,7.731c-9.707,10.655 -14.565,32.579 -14.565,65.795c-0,33.215 4.858,61.105 14.565,83.665c9.907,22.422 24.667,39.519 44.286,51.286c19.809,11.888 34.565,12.502 44.273,1.851c9.907,-10.789 14.864,-32.791 14.864,-66.007c0,-33.215 -4.957,-61.04 -14.864,-83.462c-9.712,-22.56 -24.464,-39.782 -44.273,-51.666c-9.807,-5.884 -18.407,-8.951 -25.787,-9.193l-0.005,0Z" style="fill:#0f0;fill-rule:nonzero;"/><path d="M1068.22,2070.51l879.376,-512.999l-0.978,-984.077l-878.398,507.294l0,989.782Z" style="fill:#000b21;"/><path d="M1068.22,2070.51l-877.41,-512.947l-0.979,-984.077l878.389,507.242l0,989.782Z" style="fill:#001e5b;"/></g></svg>