<?xml version="1.0" encoding="UTF-8" standalone="no"?><!DOCTYPE svg PUBLIC "-//W3C//DTD SVG 1.1//EN" "http://www.w3.org/Graphics/SVG/1.1/DTD/svg11.dtd"><svg width="100%" height="100%" viewBox="0 0 2136 2136" version="1.1" xmlns="http://www.w3.org/2000/svg" xmlns:xlink="http://www.w3.org/1999/xlink" xml:space="preserve" xmlns:serif="http://www.serif.com/" style="fill-rule:evenodd;clip-rule:evenodd;stroke-linejoin:round;stroke-miterlimit:2;"><rect id="d8_3" x="1.405" y="0.543" width="2133.33" height="2133.33" style="fill:none;"/><g id="d8_31" serif:id="d8_3"><path d="M1068.07,62.661l881.771,1540.06l-1763.54,-0l881.771,-1540.06Z" style="fill:#083590;"/><path d="M1050.16,1070.55l-81.499,0l0,-126.953l81.499,0c37.826,0 67.141,-7.08 87.945,-21.24c20.805,-14.16 31.207,-34.098 31.207,-59.815c0,-27.018 -10.402,-48.095 -31.207,-63.232c-20.804,-15.137 -50.119,-22.705 -87.945,-22.705c-28.886,-0 -59.835,3.418 -92.847,10.254c-33.012,6.836 -67.227,16.764 -102.646,29.785l-0,-130.859c35.419,-10.092 70.322,-17.823 104.71,-23.194c34.387,-5.371 67.399,-8.056 99.036,-8.056c81.154,-0 144.427,16.764 189.818,50.293c45.392,33.528 68.087,79.752 68.087,138.671c0,43.295 -13.067,78.695 -39.201,106.202c-26.135,27.506 -63.445,45.491 -111.931,53.955c55.019,9.114 96.972,29.866 125.858,62.256c28.885,32.389 43.328,74.951 43.328,127.685c-0,70.638 -23.899,124.512 -71.698,161.621c-47.799,37.11 -117.261,55.664 -208.388,55.664c-38.858,0 -77.114,-3.092 -114.768,-9.277c-37.654,-6.185 -73.675,-15.137 -108.063,-26.856l0,-133.789c32.325,15.3 67.228,26.937 104.71,34.913c37.482,7.975 76.856,11.962 118.121,11.962c41.265,0 73.933,-9.033 98.004,-27.099c24.071,-18.067 36.107,-42.399 36.107,-72.998c0,-37.435 -12.036,-66.325 -36.107,-86.67c-24.071,-20.345 -58.115,-30.518 -102.13,-30.518Z" style="fill:#0f0;fill-rule:nonzero;"/><path d="M1068.07,62.661l-844.074,550.945l-37.697,989.112l881.771,-1540.06Z" style="fill:#001e5b;"/><path d="M1068.07,62.661l881.771,1540.06l-30.445,-992.082l-851.326,-547.975Z" style="fill:#001e5b;"/><path d="M1068.07,2071.76l881.771,-469.04l-1763.54,-0l881.771,469.04Z" style="fill:#000b21;"/></g></svg>