<?xml version="1.0" encoding="UTF-8" standalone="no"?><!DOCTYPE svg PUBLIC "-//W3C//DTD SVG 1.1//EN" "http://www.w3.org/Graphics/SVG/1.1/DTD/svg11.dtd"><svg width="100%" height="100%" viewBox="0 0 2136 2136" version="1.1" xmlns="http://www.w3.org/2000/svg" xmlns:xlink="http://www.w3.org/1999/xlink" xml:space="preserve" xmlns:serif="http://www.serif.com/" style="fill-rule:evenodd;clip-rule:evenodd;stroke-linejoin:round;stroke-miterlimit:2;"><rect id="d8_4" x="0.871" y="0.946" width="2133.33" height="2133.33" style="fill:none;"/><g id="d8_41" serif:id="d8_4"><path d="M1067.54,63.064l881.771,1540.06l-1763.54,-0l881.771,-1540.06Z" style="fill:#083590;"/><path d="M1067.54,63.064l-844.074,550.945l-37.697,989.112l881.771,-1540.06Z" style="fill:#001e5b;"/><path d="M1067.54,63.064l881.771,1540.06l-30.446,-992.082l-851.325,-547.975Z" style="fill:#001e5b;"/><path d="M1075.77,828.765l-194.461,288.086l194.461,-0l0,-288.086Zm-13.411,-160.156l159.386,-0l0,448.242l84.593,-0l0,123.535l-84.593,-0l0,157.226l-145.975,0l0,-157.226l-305.36,-0l-0,-139.649l291.949,-432.128Z" style="fill:#0f0;fill-rule:nonzero;"/><path d="M1067.54,2072.16l881.771,-469.04l-1763.54,-0l881.771,469.04Z" style="fill:#000b21;"/></g></svg>