<?xml version="1.0" encoding="UTF-8" standalone="no"?><!DOCTYPE svg PUBLIC "-//W3C//DTD SVG 1.1//EN" "http://www.w3.org/Graphics/SVG/1.1/DTD/svg11.dtd"><svg width="100%" height="100%" viewBox="0 0 2136 2136" version="1.1" xmlns="http://www.w3.org/2000/svg" xmlns:xlink="http://www.w3.org/1999/xlink" xml:space="preserve" xmlns:serif="http://www.serif.com/" style="fill-rule:evenodd;clip-rule:evenodd;stroke-linejoin:round;stroke-miterlimit:2;"><rect id="d8_6" x="2.005" y="0.093" width="2133.33" height="2133.33" style="fill:none;"/><g id="d8_61" serif:id="d8_6"><path d="M1068.67,62.212l881.77,1540.06l-1763.54,0l881.771,-1540.06Z" style="fill:#083590;"/><path d="M1077.18,1030.06c-33.012,-0 -58.2,11.311 -75.566,33.935c-17.366,22.624 -26.049,55.42 -26.049,98.389c0,42.643 8.683,75.276 26.049,97.9c17.366,22.624 42.554,33.936 75.566,33.936c33.012,-0 58.373,-11.312 76.083,-33.936c17.709,-22.624 26.564,-55.257 26.564,-97.9c-0,-42.643 -8.855,-75.358 -26.564,-98.145c-17.71,-22.786 -43.071,-34.179 -76.083,-34.179Zm199.62,-346.68l-0,130.859c-27.167,-14.648 -53.215,-25.635 -78.146,-32.959c-24.931,-7.324 -48.916,-10.986 -71.956,-10.986c-55.02,-0 -96.886,17.497 -125.6,52.49c-28.713,34.994 -43.758,86.67 -45.133,155.029c16.162,-21.158 36.794,-37.028 61.897,-47.607c25.103,-10.579 54.676,-15.869 88.72,-15.869c69.462,-0 123.107,20.752 160.933,62.256c37.826,41.504 56.739,100.342 56.739,176.513c0,81.706 -21.234,145.02 -63.702,189.942c-42.469,44.922 -102.217,67.383 -179.245,67.383c-93.878,-0 -162.051,-29.785 -204.519,-89.356c-42.469,-59.57 -63.703,-155.762 -63.703,-288.574c-0,-126.302 25.962,-220.947 77.887,-283.936c51.925,-62.988 129.813,-94.482 233.663,-94.482c24.071,0 48.916,2.441 74.535,7.324c25.619,4.883 51.495,12.207 77.63,21.973Z" style="fill:#0f0;fill-rule:nonzero;"/><path d="M1068.67,62.212l-844.074,550.944l-37.697,989.112l881.771,-1540.06Z" style="fill:#001e5b;"/><path d="M1068.67,62.212l881.77,1540.06l-30.445,-992.082l-851.325,-547.974Z" style="fill:#001e5b;"/><path d="M1068.67,2071.31l881.77,-469.04l-1763.54,0l881.771,469.04Z" style="fill:#000b21;"/></g></svg>