<?xml version="1.0" encoding="UTF-8" standalone="no"?><!DOCTYPE svg PUBLIC "-//W3C//DTD SVG 1.1//EN" "http://www.w3.org/Graphics/SVG/1.1/DTD/svg11.dtd"><svg width="100%" height="100%" viewBox="0 0 2136 2136" version="1.1" xmlns="http://www.w3.org/2000/svg" xmlns:xlink="http://www.w3.org/1999/xlink" xml:space="preserve" xmlns:serif="http://www.serif.com/" style="fill-rule:evenodd;clip-rule:evenodd;stroke-linejoin:round;stroke-miterlimit:2;"><rect id="d10_5" x="0.078" y="0.5" width="2133.33" height="2133.33" style="fill:none;"/><g id="d10_51" serif:id="d10_5"><path d="M1072.26,91.562l640.085,1244.52l-641.726,298.444l-638.445,-298.444l640.086,-1244.52Z" style="fill:#0f0;"/><path d="M1072.26,91.562l-1012.1,754.262l-10.202,469.228l382.213,21.032l640.086,-1244.52Z" style="fill:#00d800;"/><path d="M1072.26,91.562l640.085,1244.52l371.175,-18.088l-6.447,-474.797l-1004.81,-751.637Z" style="fill:#00d800;"/><path d="M1070.5,1634.4l641.854,-298.321l371.175,-18.088l-1014.19,724.775l1.162,-408.366Z" style="fill:#008700;"/><path d="M1070.6,1634.41l-638.587,-298.791l-382.045,-20.574l1019.37,727.705l1.266,-408.34Z" style="fill:#00b500;"/><path d="M913.194,712.843l292.666,-0l0,88.818l-206.418,0l-0,94.626c8.661,-3.188 17.923,-5.522 27.787,-7.003c9.864,-1.48 20.329,-2.22 31.396,-2.22c53.409,-0 96.713,15.942 129.913,47.825c33.2,31.884 49.8,73.333 49.8,124.346c0,53.519 -17.983,95.822 -53.95,126.909c-35.967,31.086 -84.985,46.629 -147.055,46.629c-23.095,0 -46.432,-1.822 -70.009,-5.465c-23.577,-3.644 -47.635,-9.11 -72.174,-16.398l0,-90.868c19.968,9.337 40.478,16.34 61.529,21.009c21.05,4.669 42.161,7.003 63.332,7.003c37.531,0 66.04,-7.572 85.527,-22.717c19.487,-15.145 29.23,-37.179 29.23,-66.102c0,-26.645 -9.683,-47.996 -29.05,-64.051c-19.366,-16.056 -45.169,-24.084 -77.406,-24.084c-19.006,0 -38.072,2.221 -57.199,6.661c-19.126,4.441 -38.432,11.103 -57.919,19.985l-0,-284.903Z" style="fill:#053590;fill-rule:nonzero;"/></g></svg>