<?xml version="1.0" encoding="UTF-8" standalone="no"?><!DOCTYPE svg PUBLIC "-//W3C//DTD SVG 1.1//EN" "http://www.w3.org/Graphics/SVG/1.1/DTD/svg11.dtd"><svg width="100%" height="100%" viewBox="0 0 2136 2136" version="1.1" xmlns="http://www.w3.org/2000/svg" xmlns:xlink="http://www.w3.org/1999/xlink" xml:space="preserve" xmlns:serif="http://www.serif.com/" style="fill-rule:evenodd;clip-rule:evenodd;stroke-linejoin:round;stroke-miterlimit:2;"><rect id="d10_3" x="0.425" y="1.326" width="2133.33" height="2133.33" style="fill:none;"/><g id="d10_31" serif:id="d10_3"><path d="M1072.61,92.388l640.085,1244.52l-641.726,298.444l-638.445,-298.444l640.086,-1244.52Z" style="fill:#0f0;"/><path d="M1072.61,92.388l-1012.1,754.262l-10.202,469.228l382.213,21.032l640.086,-1244.52Z" style="fill:#00d800;"/><path d="M1072.61,92.388l640.085,1244.52l371.175,-18.087l-6.447,-474.798l-1004.81,-751.637Z" style="fill:#00d800;"/><path d="M1070.84,1635.23l641.854,-298.321l371.175,-18.087l-1014.19,724.774l1.162,-408.366Z" style="fill:#008700;"/><path d="M1070.95,1635.24l-638.587,-298.791l-382.045,-20.575l1019.37,727.705l1.266,-408.339Z" style="fill:#00b500;"/><path d="M1044.18,1015.95l-57.018,-0l0,-88.819l57.018,-0c26.464,-0 46.973,-4.953 61.528,-14.86c14.556,-9.907 21.833,-23.856 21.833,-41.847c0,-18.903 -7.277,-33.649 -21.833,-44.239c-14.555,-10.59 -35.064,-15.885 -61.528,-15.885c-20.209,0 -41.861,2.392 -64.957,7.174c-23.096,4.783 -47.033,11.729 -71.813,20.838l-0,-91.551c24.78,-7.06 49.199,-12.469 73.257,-16.227c24.058,-3.757 47.153,-5.636 69.287,-5.636c56.777,-0 101.044,11.728 132.8,35.186c31.757,23.457 47.635,55.796 47.635,97.017c0,30.289 -9.142,55.056 -27.426,74.3c-18.284,19.244 -44.387,31.827 -78.309,37.748c38.493,6.377 67.844,20.895 88.053,43.555c20.208,22.66 30.313,52.437 30.313,89.331c-0,49.42 -16.721,87.111 -50.161,113.073c-33.441,25.963 -82.038,38.944 -145.792,38.944c-27.186,-0 -53.95,-2.164 -80.294,-6.491c-26.343,-4.327 -51.544,-10.59 -75.602,-18.788l-0,-93.602c22.614,10.704 47.033,18.846 73.256,24.426c26.224,5.579 53.77,8.369 82.64,8.369c28.87,0 51.725,-6.32 68.565,-18.959c16.841,-12.64 25.261,-29.663 25.261,-51.071c0,-26.19 -8.42,-46.402 -25.261,-60.636c-16.84,-14.234 -40.658,-21.35 -71.452,-21.35Z" style="fill:#053590;fill-rule:nonzero;"/></g></svg>