<?xml version="1.0" encoding="UTF-8" standalone="no"?><!DOCTYPE svg PUBLIC "-//W3C//DTD SVG 1.1//EN" "http://www.w3.org/Graphics/SVG/1.1/DTD/svg11.dtd"><svg width="100%" height="100%" viewBox="0 0 2136 2136" version="1.1" xmlns="http://www.w3.org/2000/svg" xmlns:xlink="http://www.w3.org/1999/xlink" xml:space="preserve" xmlns:serif="http://www.serif.com/" style="fill-rule:evenodd;clip-rule:evenodd;stroke-linejoin:round;stroke-miterlimit:2;"><rect id="d10_1" x="1.158" y="1.003" width="2133.33" height="2133.33" style="fill:none;"/><g id="d10_11" serif:id="d10_1"><path d="M1073.34,92.065l640.086,1244.52l-641.727,298.444l-638.445,-298.444l640.086,-1244.52Z" style="fill:#0f0;"/><path d="M896.952,1157.75l119.088,0l-0,-331.02l-110.788,25.963l0,-90.869l111.509,-25.279l102.849,0l-0,421.205l119.087,0l-0,88.819l-341.745,0l0,-88.819Z" style="fill:#053590;fill-rule:nonzero;"/><path d="M1073.34,92.065l-1012.1,754.262l-10.203,469.228l382.213,21.032l640.086,-1244.52Z" style="fill:#00d800;"/><path d="M1073.34,92.065l640.086,1244.52l371.174,-18.088l-6.447,-474.797l-1004.81,-751.637Z" style="fill:#00d800;"/><path d="M1071.58,1634.91l641.854,-298.321l371.174,-18.088l-1014.19,724.775l1.163,-408.366Z" style="fill:#008700;"/><path d="M1071.68,1634.92l-638.587,-298.791l-382.045,-20.574l1019.37,727.705l1.266,-408.34Z" style="fill:#00b500;"/></g></svg>