<?xml version="1.0" encoding="UTF-8" standalone="no"?><!DOCTYPE svg PUBLIC "-//W3C//DTD SVG 1.1//EN" "http://www.w3.org/Graphics/SVG/1.1/DTD/svg11.dtd"><svg width="100%" height="100%" viewBox="0 0 2134 2134" version="1.1" xmlns="http://www.w3.org/2000/svg" xmlns:xlink="http://www.w3.org/1999/xlink" xml:space="preserve" xmlns:serif="http://www.serif.com/" style="fill-rule:evenodd;clip-rule:evenodd;stroke-linejoin:round;stroke-miterlimit:2;"><rect id="d10_9" x="0" y="0" width="2133.33" height="2133.33" style="fill:none;"/><g id="d10_91" serif:id="d10_9"><path d="M1072.19,91.062l640.086,1244.52l-641.727,298.444l-638.445,-298.444l640.086,-1244.52Z" style="fill:#0f0;"/><path d="M1072.19,91.062l-1012.1,754.262l-10.203,469.228l382.213,21.032l640.086,-1244.52Z" style="fill:#00d800;"/><path d="M1072.19,91.062l640.086,1244.52l371.174,-18.087l-6.447,-474.798l-1004.81,-751.637Z" style="fill:#00d800;"/><path d="M1070.42,1633.9l641.854,-298.321l371.174,-18.087l-1014.19,724.774l1.163,-408.366Z" style="fill:#008700;"/><path d="M1070.53,1633.91l-638.587,-298.791l-382.045,-20.575l1019.37,727.705l1.266,-408.339Z" style="fill:#00b500;"/><path d="M921.055,1256.06l0,-91.893c19.006,10.476 37.23,18.219 54.672,23.23c17.442,5.01 34.223,7.515 50.342,7.515c38.252,-0 67.422,-12.127 87.511,-36.382c20.088,-24.254 30.734,-60.521 31.937,-108.802c-11.307,14.803 -25.742,25.905 -43.305,33.307c-17.562,7.401 -38.372,11.102 -62.43,11.102c-48.357,-0 -85.767,-14.518 -112.231,-43.555c-26.464,-29.037 -39.696,-70.201 -39.696,-123.492c0,-56.935 14.796,-101.003 44.387,-132.203c29.592,-31.201 71.453,-46.801 125.583,-46.801c65.679,-0 113.374,20.781 143.086,62.344c29.711,41.562 44.567,108.689 44.567,201.379c0,88.135 -18.164,154.237 -54.491,198.305c-36.328,44.067 -90.819,66.101 -163.475,66.101c-16.84,0 -34.222,-1.708 -52.146,-5.124c-17.923,-3.416 -36.027,-8.426 -54.311,-15.031Zm139.657,-246.301c22.855,0 40.358,-7.914 52.507,-23.742c12.149,-15.828 18.224,-38.772 18.224,-68.834c-0,-29.834 -6.075,-52.665 -18.224,-68.493c-12.149,-15.828 -29.652,-23.742 -52.507,-23.742c-23.095,0 -40.838,7.914 -53.228,23.742c-12.39,15.828 -18.585,38.659 -18.585,68.493c-0,29.834 6.195,52.722 18.585,68.664c12.39,15.941 30.133,23.912 53.228,23.912Z" style="fill:#053590;fill-rule:nonzero;"/></g></svg>