<?xml version="1.0" encoding="UTF-8" standalone="no"?><!DOCTYPE svg PUBLIC "-//W3C//DTD SVG 1.1//EN" "http://www.w3.org/Graphics/SVG/1.1/DTD/svg11.dtd"><svg width="100%" height="100%" viewBox="0 0 2136 2136" version="1.1" xmlns="http://www.w3.org/2000/svg" xmlns:xlink="http://www.w3.org/1999/xlink" xml:space="preserve" xmlns:serif="http://www.serif.com/" style="fill-rule:evenodd;clip-rule:evenodd;stroke-linejoin:round;stroke-miterlimit:2;"><rect id="d10_4" x="1.163" y="0.34" width="2133.33" height="2133.33" style="fill:none;"/><g id="d10_41" serif:id="d10_4"><path d="M1073.35,91.402l640.086,1244.52l-641.726,298.445l-638.445,-298.445l640.085,-1244.52Z" style="fill:#0f0;"/><path d="M1073.35,91.402l-1012.1,754.262l-10.203,469.229l382.214,21.031l640.085,-1244.52Z" style="fill:#00d800;"/><path d="M1073.35,91.402l640.086,1244.52l371.175,-18.087l-6.448,-474.797l-1004.81,-751.638Z" style="fill:#00d800;"/><path d="M1071.58,1634.25l641.854,-298.321l371.175,-18.087l-1014.19,724.775l1.162,-408.367Z" style="fill:#008700;"/><path d="M1071.69,1634.25l-638.586,-298.791l-382.045,-20.574l1019.37,727.704l1.265,-408.339Z" style="fill:#00b500;"/><path d="M1065.22,838.178l-136.049,201.55l136.049,-0l-0,-201.55Zm-9.383,-112.048l111.509,-0l0,313.598l59.183,-0l0,86.427l-59.183,-0l0,109.998l-102.126,0l-0,-109.998l-213.636,-0l0,-97.701l204.253,-302.324Z" style="fill:#053590;fill-rule:nonzero;"/></g></svg>