<?xml version="1.0" encoding="UTF-8" standalone="no"?><!DOCTYPE svg PUBLIC "-//W3C//DTD SVG 1.1//EN" "http://www.w3.org/Graphics/SVG/1.1/DTD/svg11.dtd"><svg width="100%" height="100%" viewBox="0 0 2136 2136" version="1.1" xmlns="http://www.w3.org/2000/svg" xmlns:xlink="http://www.w3.org/1999/xlink" xml:space="preserve" xmlns:serif="http://www.serif.com/" style="fill-rule:evenodd;clip-rule:evenodd;stroke-linejoin:round;stroke-miterlimit:2;"><rect id="d10_8" x="0.582" y="1.936" width="2133.33" height="2133.33" style="fill:none;"/><g id="d10_81" serif:id="d10_8"><path d="M1072.77,92.998l640.086,1244.52l-641.727,298.444l-638.444,-298.444l640.085,-1244.52Z" style="fill:#0f0;"/><path d="M1072.77,92.998l-1012.1,754.262l-10.203,469.229l382.214,21.031l640.085,-1244.52Z" style="fill:#00d800;"/><path d="M1072.77,92.998l640.086,1244.52l371.174,-18.087l-6.447,-474.798l-1004.81,-751.637Z" style="fill:#00d800;"/><path d="M1071,1635.84l641.854,-298.321l371.174,-18.087l-1014.19,724.775l1.163,-408.367Z" style="fill:#008700;"/><path d="M1071.11,1635.85l-638.587,-298.791l-382.045,-20.574l1019.37,727.704l1.266,-408.339Z" style="fill:#00b500;"/><path d="M1067.07,1006.22c-23.817,0 -43.064,7.117 -57.739,21.351c-14.675,14.233 -22.013,33.079 -22.013,56.536c-0,23.457 7.338,42.36 22.013,56.707c14.675,14.348 33.922,21.522 57.739,21.522c23.818,-0 43.124,-7.288 57.92,-21.863c14.796,-14.575 22.194,-33.364 22.194,-56.366c-0,-23.457 -7.338,-42.303 -22.013,-56.536c-14.676,-14.234 -34.043,-21.351 -58.101,-21.351Zm-79.03,-42.701c-27.186,-8.882 -47.876,-22.831 -62.07,-41.847c-14.194,-19.017 -21.292,-42.303 -21.292,-69.86c0,-42.359 14.556,-75.837 43.666,-100.433c29.11,-24.596 68.686,-36.894 118.726,-36.894c50.282,0 89.977,12.298 119.088,36.894c29.11,24.596 43.665,58.074 43.665,100.433c0,27.329 -6.977,50.502 -20.93,69.518c-13.954,19.016 -34.283,33.079 -60.988,42.189c29.832,8.654 53.169,24.14 70.009,46.459c16.841,22.318 25.261,49.078 25.261,80.278c0,48.964 -15.277,86.769 -45.83,113.415c-30.554,26.645 -73.979,39.968 -130.275,39.968c-56.055,0 -99.359,-13.323 -129.913,-39.968c-30.554,-26.646 -45.831,-64.451 -45.831,-113.415c0,-31.428 8.541,-58.301 25.622,-80.62c17.081,-22.318 40.778,-37.691 71.092,-46.117Zm11.187,-103.508c-0,20.041 6.074,35.926 18.224,47.655c12.149,11.728 28.689,17.593 49.619,17.593c21.171,-0 37.832,-5.865 49.981,-17.593c12.149,-11.729 18.224,-27.614 18.224,-47.655c-0,-19.813 -6.075,-35.471 -18.224,-46.971c-12.149,-11.501 -28.81,-17.252 -49.981,-17.252c-20.69,0 -37.169,5.808 -49.439,17.422c-12.27,11.615 -18.404,27.215 -18.404,46.801Z" style="fill:#053590;fill-rule:nonzero;"/></g></svg>