<?xml version="1.0" encoding="UTF-8" standalone="no"?><!DOCTYPE svg PUBLIC "-//W3C//DTD SVG 1.1//EN" "http://www.w3.org/Graphics/SVG/1.1/DTD/svg11.dtd"><svg width="100%" height="100%" viewBox="0 0 2136 2136" version="1.1" xmlns="http://www.w3.org/2000/svg" xmlns:xlink="http://www.w3.org/1999/xlink" xml:space="preserve" xmlns:serif="http://www.serif.com/" style="fill-rule:evenodd;clip-rule:evenodd;stroke-linejoin:round;stroke-miterlimit:2;"><rect id="d12_6" x="0.611" y="1.101" width="2133.33" height="2133.33" style="fill:none;"/><g id="d12_61" serif:id="d12_6"><path d="M1067.81,427.078l616.939,448.726l-235.65,726.055l-762.579,-0l-235.65,-726.055l616.94,-448.726Z" style="fill:#0f0;"/><path d="M1073.23,1066.23c-23.096,-0 -40.719,7.914 -52.868,23.742c-12.149,15.828 -18.224,38.772 -18.224,68.834c0,29.834 6.075,52.665 18.224,68.493c12.149,15.828 29.772,23.742 52.868,23.742c23.095,-0 40.838,-7.914 53.228,-23.742c12.39,-15.828 18.585,-38.659 18.585,-68.493c-0,-29.834 -6.195,-52.722 -18.585,-68.664c-12.39,-15.941 -30.133,-23.912 -53.228,-23.912Zm139.657,-242.543l-0,91.551c-19.006,-10.248 -37.23,-17.934 -54.672,-23.059c-17.442,-5.124 -34.223,-7.686 -50.342,-7.686c-38.493,0 -67.783,12.241 -87.872,36.723c-20.088,24.482 -30.614,60.636 -31.576,108.461c11.307,-14.803 25.742,-25.905 43.304,-33.307c17.563,-7.401 38.253,-11.102 62.07,-11.102c48.598,0 86.128,14.519 112.592,43.555c26.464,29.037 39.696,70.201 39.696,123.492c-0,57.163 -14.856,101.459 -44.568,132.887c-29.711,31.428 -71.512,47.142 -125.402,47.142c-65.679,-0 -113.374,-20.838 -143.086,-62.515c-29.711,-41.676 -44.567,-108.973 -44.567,-201.891c-0,-88.363 18.164,-154.579 54.491,-198.647c36.328,-44.067 90.819,-66.101 163.475,-66.101c16.84,-0 34.222,1.708 52.146,5.124c17.923,3.416 36.027,8.54 54.311,15.373Z" style="fill:#053590;fill-rule:nonzero;"/><path d="M1067.81,427.078l616.939,448.726l369.52,-143.017l-386.872,-497.833l-600.117,-204.564l0.53,396.688Z" style="fill:#00b500;"/><path d="M1067.81,427.078l-616.94,448.726l-370.578,-113.887l386.871,-526.963l600.117,-204.564l0.53,396.688Z" style="fill:#00d800;"/><path d="M80.289,761.917l20.753,652.096l349.825,498.905l235.65,-311.059l-235.65,-726.055l-370.578,-113.887Z" style="fill:#00b500;"/><path d="M2054.27,732.787l-369.52,143.017l-235.65,726.055l235.65,311.059l362.562,-521.691l6.958,-658.44Z" style="fill:#00d800;"/><path d="M1067.81,2105.14l616.939,-192.227l-235.65,-311.03l-762.579,-0l-235.65,311.03l616.94,192.227Z" style="fill:#008700;"/></g></svg>