<?xml version="1.0" encoding="UTF-8" standalone="no"?><!DOCTYPE svg PUBLIC "-//W3C//DTD SVG 1.1//EN" "http://www.w3.org/Graphics/SVG/1.1/DTD/svg11.dtd"><svg width="100%" height="100%" viewBox="0 0 2136 2136" version="1.1" xmlns="http://www.w3.org/2000/svg" xmlns:xlink="http://www.w3.org/1999/xlink" xml:space="preserve" xmlns:serif="http://www.serif.com/" style="fill-rule:evenodd;clip-rule:evenodd;stroke-linejoin:round;stroke-miterlimit:2;"><rect id="d12_9" x="0.369" y="0.955" width="2133.33" height="2133.33" style="fill:none;"/><g id="d12_91" serif:id="d12_9"><path d="M1067.57,426.932l616.94,448.726l-235.65,726.055l-762.58,-0l-235.65,-726.055l616.94,-448.726Z" style="fill:#0f0;"/><path d="M921.424,1311.53l0,-91.893c19.006,10.476 37.23,18.219 54.672,23.23c17.442,5.01 34.223,7.515 50.342,7.515c38.252,0 67.423,-12.127 87.511,-36.381c20.089,-24.255 30.734,-60.522 31.937,-108.803c-11.307,14.803 -25.742,25.905 -43.304,33.307c-17.563,7.401 -38.373,11.102 -62.431,11.102c-48.357,0 -85.767,-14.518 -112.231,-43.555c-26.464,-29.037 -39.696,-70.201 -39.696,-123.492c0,-56.935 14.796,-101.003 44.387,-132.203c29.592,-31.201 71.453,-46.801 125.583,-46.801c65.679,0 113.374,20.781 143.086,62.344c29.711,41.563 44.567,108.689 44.567,201.379c0,88.135 -18.163,154.237 -54.491,198.305c-36.328,44.067 -90.819,66.101 -163.475,66.101c-16.84,0 -34.222,-1.708 -52.146,-5.124c-17.923,-3.416 -36.026,-8.426 -54.311,-15.031Zm139.657,-246.301c22.856,0 40.358,-7.914 52.507,-23.741c12.149,-15.828 18.224,-38.773 18.224,-68.835c0,-29.834 -6.075,-52.665 -18.224,-68.493c-12.149,-15.828 -29.651,-23.742 -52.507,-23.742c-23.095,0 -40.838,7.914 -53.228,23.742c-12.39,15.828 -18.585,38.659 -18.585,68.493c0,29.834 6.195,52.722 18.585,68.664c12.39,15.942 30.133,23.912 53.228,23.912Z" style="fill:#053590;fill-rule:nonzero;"/><path d="M1067.57,426.932l616.94,448.726l369.519,-143.017l-386.871,-497.833l-600.117,-204.564l0.529,396.688Z" style="fill:#00b500;"/><path d="M1067.57,426.931l-616.94,448.727l-370.578,-113.888l386.872,-526.962l600.117,-204.564l0.529,396.687Z" style="fill:#00d800;"/><path d="M80.047,761.77l20.753,652.097l349.825,498.905l235.65,-311.059l-235.65,-726.055l-370.578,-113.888Z" style="fill:#00b500;"/><path d="M2054.02,732.641l-369.519,143.017l-235.65,726.055l235.65,311.059l362.561,-521.691l6.958,-658.44Z" style="fill:#00d800;"/><path d="M1067.57,2105l616.94,-192.227l-235.65,-311.03l-762.58,-0l-235.65,311.03l616.94,192.227Z" style="fill:#008700;"/></g></svg>