<?xml version="1.0" encoding="UTF-8" standalone="no"?><!DOCTYPE svg PUBLIC "-//W3C//DTD SVG 1.1//EN" "http://www.w3.org/Graphics/SVG/1.1/DTD/svg11.dtd"><svg width="100%" height="100%" viewBox="0 0 2136 2136" version="1.1" xmlns="http://www.w3.org/2000/svg" xmlns:xlink="http://www.w3.org/1999/xlink" xml:space="preserve" xmlns:serif="http://www.serif.com/" style="fill-rule:evenodd;clip-rule:evenodd;stroke-linejoin:round;stroke-miterlimit:2;"><rect id="d12_11" x="2.038" y="1.392" width="2133.33" height="2133.33" style="fill:none;"/><g id="d12_111" serif:id="d12_11"><path d="M1069.23,427.368l616.94,448.727l-235.65,726.054l-762.58,0l-235.65,-726.054l616.94,-448.727Z" style="fill:#0f0;"/><g><path d="M696.847,1256.8l119.087,0l0,-331.02l-110.787,25.963l0,-90.869l111.509,-25.279l102.848,0l0,421.205l119.088,0l-0,88.819l-341.745,0l0,-88.819Z" style="fill:#053590;"/><path d="M1141.8,1256.8l119.087,0l0,-331.02l-110.787,25.963l-0,-90.869l111.509,-25.279l102.848,0l0,421.205l119.088,0l-0,88.819l-341.745,0l-0,-88.819Z" style="fill:#053590;"/></g><path d="M1069.23,427.368l616.94,448.727l369.519,-143.017l-386.871,-497.834l-600.117,-204.563l0.529,396.687Z" style="fill:#00b500;"/><path d="M1069.23,427.368l-616.94,448.727l-370.578,-113.888l386.871,-526.963l600.118,-204.563l0.529,396.687Z" style="fill:#00d800;"/><path d="M81.716,762.207l20.753,652.097l349.825,498.905l235.65,-311.06l-235.65,-726.054l-370.578,-113.888Z" style="fill:#00b500;"/><path d="M2055.69,733.078l-369.519,143.017l-235.65,726.054l235.65,311.06l362.561,-521.691l6.958,-658.44Z" style="fill:#00d800;"/><path d="M1069.23,2105.44l616.94,-192.227l-235.65,-311.031l-762.58,0l-235.65,311.031l616.94,192.227Z" style="fill:#008700;"/></g></svg>