<?xml version="1.0" encoding="UTF-8" standalone="no"?><!DOCTYPE svg PUBLIC "-//W3C//DTD SVG 1.1//EN" "http://www.w3.org/Graphics/SVG/1.1/DTD/svg11.dtd"><svg width="100%" height="100%" viewBox="0 0 2136 2136" version="1.1" xmlns="http://www.w3.org/2000/svg" xmlns:xlink="http://www.w3.org/1999/xlink" xml:space="preserve" xmlns:serif="http://www.serif.com/" style="fill-rule:evenodd;clip-rule:evenodd;stroke-linejoin:round;stroke-miterlimit:2;"><rect id="d12_4" x="1.349" y="1.056" width="2133.33" height="2133.33" style="fill:none;"/><g id="d12_41" serif:id="d12_4"><path d="M1068.55,427.032l616.94,448.726l-235.65,726.055l-762.579,0l-235.65,-726.055l616.939,-448.726Z" style="fill:#0f0;"/><path d="M1094.18,924.758l-136.048,201.55l136.048,0l0,-201.55Zm-9.383,-112.048l111.51,0l-0,313.598l59.182,0l0,86.428l-59.182,-0l-0,109.998l-102.127,0l0,-109.998l-213.636,-0l0,-97.701l204.253,-302.325Z" style="fill:#053590;fill-rule:nonzero;"/><path d="M1068.55,427.032l616.94,448.726l369.519,-143.017l-386.871,-497.833l-600.117,-204.563l0.529,396.687Z" style="fill:#00b500;"/><path d="M1068.55,427.032l-616.939,448.726l-370.579,-113.887l386.872,-526.963l600.117,-204.563l0.529,396.687Z" style="fill:#00d800;"/><path d="M81.027,761.871l20.753,652.096l349.826,498.905l235.65,-311.059l-235.65,-726.055l-370.579,-113.887Z" style="fill:#00b500;"/><path d="M2055,732.741l-369.519,143.017l-235.65,726.055l235.65,311.059l362.562,-521.69l6.957,-658.441Z" style="fill:#00d800;"/><path d="M1068.55,2105.1l616.94,-192.228l-235.65,-311.03l-762.579,0l-235.65,311.03l616.939,192.228Z" style="fill:#008700;"/></g></svg>