<?xml version="1.0" encoding="UTF-8" standalone="no"?><!DOCTYPE svg PUBLIC "-//W3C//DTD SVG 1.1//EN" "http://www.w3.org/Graphics/SVG/1.1/DTD/svg11.dtd"><svg width="100%" height="100%" viewBox="0 0 2136 2136" version="1.1" xmlns="http://www.w3.org/2000/svg" xmlns:xlink="http://www.w3.org/1999/xlink" xml:space="preserve" xmlns:serif="http://www.serif.com/" style="fill-rule:evenodd;clip-rule:evenodd;stroke-linejoin:round;stroke-miterlimit:2;"><rect id="d12_2" x="0.209" y="1.71" width="2133.33" height="2133.33" style="fill:none;"/><g id="d12_21" serif:id="d12_2"><path d="M1067.4,427.686l616.939,448.726l-235.65,726.055l-762.579,0l-235.65,-726.055l616.94,-448.726Z" style="fill:#0f0;"/><path d="M1010.94,1239.18l226.988,0l0,88.819l-342.106,-0l0,-86.086l57.74,-58.074c68.565,-69.005 110.186,-111.478 124.861,-127.42c18.044,-19.586 31.035,-36.951 38.974,-52.096c7.939,-15.144 11.909,-30.118 11.909,-44.921c-0,-22.774 -7.278,-40.367 -21.833,-52.779c-14.555,-12.412 -35.185,-18.618 -61.889,-18.618c-19.006,0 -40.358,3.587 -64.055,10.761c-23.697,7.174 -48.417,17.593 -74.159,31.257l0,-93.943c25.742,-8.881 50.943,-15.657 75.603,-20.325c24.659,-4.669 48.296,-7.003 70.911,-7.003c57.017,-0 101.826,12.582 134.424,37.747c32.599,25.166 48.898,59.498 48.898,102.996c0,20.041 -3.548,38.83 -10.645,56.366c-7.098,17.536 -19.307,37.007 -36.629,58.415c-12.751,15.486 -47.755,50.33 -105.013,104.533c-31.035,29.378 -55.695,52.835 -73.979,70.371Z" style="fill:#053590;fill-rule:nonzero;"/><path d="M1067.4,427.686l616.939,448.726l369.52,-143.016l-386.872,-497.834l-600.117,-204.563l0.53,396.687Z" style="fill:#00b500;"/><path d="M1067.4,427.686l-616.94,448.726l-370.578,-113.887l386.871,-526.963l600.117,-204.563l0.53,396.687Z" style="fill:#00d800;"/><path d="M79.887,762.525l20.753,652.096l349.825,498.905l235.65,-311.059l-235.65,-726.055l-370.578,-113.887Z" style="fill:#00b500;"/><path d="M2053.86,733.395l-369.52,143.017l-235.65,726.055l235.65,311.059l362.562,-521.69l6.958,-658.441Z" style="fill:#00d800;"/><path d="M1067.4,2105.75l616.939,-192.228l-235.65,-311.03l-762.579,0l-235.65,311.03l616.94,192.228Z" style="fill:#008700;"/></g></svg>