<?xml version="1.0" encoding="UTF-8" standalone="no"?><!DOCTYPE svg PUBLIC "-//W3C//DTD SVG 1.1//EN" "http://www.w3.org/Graphics/SVG/1.1/DTD/svg11.dtd"><svg width="100%" height="100%" viewBox="0 0 2136 2136" version="1.1" xmlns="http://www.w3.org/2000/svg" xmlns:xlink="http://www.w3.org/1999/xlink" xml:space="preserve" xmlns:serif="http://www.serif.com/" style="fill-rule:evenodd;clip-rule:evenodd;stroke-linejoin:round;stroke-miterlimit:2;"><rect id="d12_1" x="1.344" y="1.718" width="2133.33" height="2133.33" style="fill:none;"/><g id="d12_11" serif:id="d12_1"><path d="M1068.54,427.694l616.939,448.727l-235.65,726.054l-762.579,0l-235.65,-726.054l616.94,-448.727Z" style="fill:#0f0;"/><path d="M897.138,1234.58l119.088,-0l-0,-331.02l-110.788,25.962l0,-90.868l111.509,-25.279l102.848,-0l0,421.205l119.088,-0l-0,88.818l-341.745,0l0,-88.818Z" style="fill:#053590;fill-rule:nonzero;"/><path d="M1068.54,427.694l616.939,448.727l369.52,-143.017l-386.871,-497.833l-600.118,-204.564l0.53,396.687Z" style="fill:#00b500;"/><path d="M1068.54,427.694l-616.94,448.727l-370.578,-113.888l386.871,-526.962l600.118,-204.564l0.529,396.687Z" style="fill:#00d800;"/><path d="M81.022,762.533l20.753,652.097l349.825,498.905l235.65,-311.06l-235.65,-726.054l-370.578,-113.888Z" style="fill:#00b500;"/><path d="M2055,733.404l-369.52,143.017l-235.65,726.054l235.65,311.06l362.562,-521.691l6.958,-658.44Z" style="fill:#00d800;"/><path d="M1068.54,2105.76l616.939,-192.227l-235.65,-311.031l-762.579,0l-235.65,311.031l616.94,192.227Z" style="fill:#008700;"/></g></svg>