<?xml version="1.0" encoding="UTF-8" standalone="no"?><!DOCTYPE svg PUBLIC "-//W3C//DTD SVG 1.1//EN" "http://www.w3.org/Graphics/SVG/1.1/DTD/svg11.dtd"><svg width="100%" height="100%" viewBox="0 0 2136 2136" version="1.1" xmlns="http://www.w3.org/2000/svg" xmlns:xlink="http://www.w3.org/1999/xlink" xml:space="preserve" xmlns:serif="http://www.serif.com/" style="fill-rule:evenodd;clip-rule:evenodd;stroke-linejoin:round;stroke-miterlimit:2;"><rect id="d12_7" x="0.015" y="1.141" width="2133.33" height="2133.33" style="fill:none;"/><g id="d12_71" serif:id="d12_7"><path d="M1067.21,427.117l616.94,448.727l-235.65,726.054l-762.58,0l-235.65,-726.054l616.94,-448.727Z" style="fill:#0f0;"/><path d="M896.351,812.795l340.662,0l-0,71.397l-182.601,438.627l-108.622,0l175.383,-421.205l-224.822,-0l-0,-88.819Z" style="fill:#053590;fill-rule:nonzero;"/><path d="M1067.21,427.117l616.94,448.727l369.519,-143.017l-386.871,-497.834l-600.117,-204.563l0.529,396.687Z" style="fill:#00b500;"/><path d="M1067.21,427.117l-616.94,448.727l-370.578,-113.888l386.871,-526.963l600.118,-204.563l0.529,396.687Z" style="fill:#00d800;"/><path d="M79.693,761.956l20.753,652.096l349.825,498.906l235.65,-311.06l-235.65,-726.054l-370.578,-113.888Z" style="fill:#00b500;"/><path d="M2053.67,732.827l-369.519,143.017l-235.65,726.054l235.65,311.06l362.561,-521.691l6.958,-658.44Z" style="fill:#00d800;"/><path d="M1067.21,2105.18l616.94,-192.227l-235.65,-311.031l-762.58,0l-235.65,311.031l616.94,192.227Z" style="fill:#008700;"/></g></svg>