<?xml version="1.0" encoding="UTF-8" standalone="no"?><!DOCTYPE svg PUBLIC "-//W3C//DTD SVG 1.1//EN" "http://www.w3.org/Graphics/SVG/1.1/DTD/svg11.dtd"><svg width="100%" height="100%" viewBox="0 0 2136 2136" version="1.1" xmlns="http://www.w3.org/2000/svg" xmlns:xlink="http://www.w3.org/1999/xlink" xml:space="preserve" xmlns:serif="http://www.serif.com/" style="fill-rule:evenodd;clip-rule:evenodd;stroke-linejoin:round;stroke-miterlimit:2;"><rect id="d12_12" x="0.353" y="1.069" width="2133.33" height="2133.33" style="fill:none;"/><g id="d12_121" serif:id="d12_12"><path d="M1067.55,427.045l616.94,448.727l-235.65,726.054l-762.58,0l-235.65,-726.054l616.94,-448.727Z" style="fill:#0f0;"/><g><path d="M695.162,1256.48l119.087,0l0,-331.02l-110.787,25.963l-0,-90.869l111.509,-25.279l102.848,0l0,421.205l119.088,0l-0,88.819l-341.745,-0l-0,-88.819Z" style="fill:#053590;fill-rule:nonzero;"/><path d="M1228.89,1256.48l226.988,0l-0,88.819l-342.106,-0l0,-86.086l57.74,-58.073c68.565,-69.006 110.185,-111.479 124.861,-127.421c18.043,-19.586 31.035,-36.951 38.974,-52.096c7.939,-15.144 11.909,-30.118 11.909,-44.921c-0,-22.774 -7.278,-40.367 -21.833,-52.779c-14.555,-12.412 -35.185,-18.618 -61.889,-18.618c-19.006,0 -40.358,3.587 -64.055,10.761c-23.697,7.174 -48.417,17.593 -74.159,31.257l0,-93.943c25.742,-8.881 50.943,-15.657 75.602,-20.325c24.66,-4.669 48.297,-7.003 70.912,-7.003c57.017,-0 101.825,12.582 134.424,37.748c32.599,25.165 48.898,59.497 48.898,102.995c0,20.041 -3.549,38.83 -10.646,56.366c-7.097,17.536 -19.306,37.007 -36.628,58.415c-12.751,15.486 -47.755,50.331 -105.013,104.533c-31.035,29.378 -55.695,52.835 -73.979,70.371Z" style="fill:#053590;fill-rule:nonzero;"/></g><path d="M1067.55,427.045l616.94,448.727l369.519,-143.017l-386.871,-497.834l-600.117,-204.563l0.529,396.687Z" style="fill:#00b500;"/><path d="M1067.55,427.045l-616.94,448.727l-370.578,-113.888l386.871,-526.963l600.118,-204.563l0.529,396.687Z" style="fill:#00d800;"/><path d="M80.031,761.884l20.753,652.096l349.825,498.906l235.65,-311.06l-235.65,-726.054l-370.578,-113.888Z" style="fill:#00b500;"/><path d="M2054.01,732.755l-369.519,143.017l-235.65,726.054l235.65,311.06l362.561,-521.691l6.958,-658.44Z" style="fill:#00d800;"/><path d="M1067.55,2105.11l616.94,-192.227l-235.65,-311.031l-762.58,0l-235.65,311.031l616.94,192.227Z" style="fill:#008700;"/></g></svg>