<?xml version="1.0" encoding="UTF-8" standalone="no"?><!DOCTYPE svg PUBLIC "-//W3C//DTD SVG 1.1//EN" "http://www.w3.org/Graphics/SVG/1.1/DTD/svg11.dtd"><svg width="100%" height="100%" viewBox="0 0 2136 2136" version="1.1" xmlns="http://www.w3.org/2000/svg" xmlns:xlink="http://www.w3.org/1999/xlink" xml:space="preserve" xmlns:serif="http://www.serif.com/" style="fill-rule:evenodd;clip-rule:evenodd;stroke-linejoin:round;stroke-miterlimit:2;"><rect id="d12_8" x="0.768" y="0.568" width="2133.33" height="2133.33" style="fill:none;"/><g id="d12_81" serif:id="d12_8"><path d="M1067.96,426.545l616.94,448.726l-235.65,726.055l-762.58,-0l-235.65,-726.055l616.94,-448.726Z" style="fill:#0f0;"/><path d="M1067.25,1094.39c-23.817,-0 -43.064,7.117 -57.739,21.35c-14.676,14.234 -22.013,33.08 -22.013,56.537c-0,23.457 7.337,42.36 22.013,56.707c14.675,14.348 33.922,21.522 57.739,21.522c23.818,-0 43.124,-7.288 57.92,-21.863c14.796,-14.576 22.194,-33.364 22.194,-56.366c-0,-23.457 -7.338,-42.303 -22.014,-56.537c-14.675,-14.233 -34.042,-21.35 -58.1,-21.35Zm-79.031,-42.701c-27.185,-8.882 -47.875,-22.831 -62.069,-41.848c-14.195,-19.016 -21.292,-42.302 -21.292,-69.859c0,-42.36 14.555,-75.837 43.666,-100.433c29.11,-24.596 68.685,-36.894 118.726,-36.894c50.282,-0 89.977,12.298 119.088,36.894c29.11,24.596 43.665,58.073 43.665,100.433c-0,27.329 -6.977,50.501 -20.931,69.518c-13.953,19.016 -34.282,33.079 -60.987,42.189c29.832,8.654 53.169,24.14 70.009,46.459c16.841,22.318 25.261,49.077 25.261,80.278c0,48.964 -15.277,86.769 -45.83,113.414c-30.554,26.646 -73.979,39.969 -130.275,39.969c-56.055,-0 -99.36,-13.323 -129.913,-39.969c-30.554,-26.645 -45.831,-64.45 -45.831,-113.414c0,-31.428 8.541,-58.302 25.622,-80.62c17.081,-22.319 40.778,-37.691 71.091,-46.117Zm11.187,-103.508c0,20.041 6.075,35.926 18.224,47.654c12.15,11.729 28.69,17.593 49.62,17.593c21.171,0 37.832,-5.864 49.981,-17.593c12.149,-11.728 18.224,-27.613 18.224,-47.654c-0,-19.814 -6.075,-35.471 -18.224,-46.972c-12.149,-11.501 -28.81,-17.251 -49.981,-17.251c-20.69,-0 -37.169,5.807 -49.439,17.422c-12.27,11.615 -18.405,27.215 -18.405,46.801Z" style="fill:#053590;fill-rule:nonzero;"/><path d="M1067.96,426.545l616.94,448.726l369.519,-143.017l-386.871,-497.833l-600.117,-204.564l0.529,396.688Z" style="fill:#00b500;"/><path d="M1067.96,426.545l-616.94,448.726l-370.578,-113.887l386.871,-526.963l600.118,-204.564l0.529,396.688Z" style="fill:#00d800;"/><path d="M80.446,761.383l20.753,652.097l349.825,498.905l235.65,-311.059l-235.65,-726.055l-370.578,-113.888Z" style="fill:#00b500;"/><path d="M2054.42,732.254l-369.519,143.017l-235.65,726.055l235.65,311.059l362.561,-521.691l6.958,-658.44Z" style="fill:#00d800;"/><path d="M1067.96,2104.61l616.94,-192.227l-235.65,-311.03l-762.58,-0l-235.65,311.03l616.94,192.227Z" style="fill:#008700;"/></g></svg>