<?xml version="1.0" encoding="UTF-8" standalone="no"?><!DOCTYPE svg PUBLIC "-//W3C//DTD SVG 1.1//EN" "http://www.w3.org/Graphics/SVG/1.1/DTD/svg11.dtd"><svg width="100%" height="100%" viewBox="0 0 2136 2136" version="1.1" xmlns="http://www.w3.org/2000/svg" xmlns:xlink="http://www.w3.org/1999/xlink" xml:space="preserve" xmlns:serif="http://www.serif.com/" style="fill-rule:evenodd;clip-rule:evenodd;stroke-linejoin:round;stroke-miterlimit:2;"><rect id="d12_5" x="0.264" y="1.215" width="2133.33" height="2133.33" style="fill:none;"/><g id="d12_51" serif:id="d12_5"><path d="M1067.46,427.191l616.94,448.727l-235.65,726.054l-762.579,0l-235.65,-726.054l616.939,-448.727Z" style="fill:#0f0;"/><path d="M913.38,807.916l292.666,0l-0,88.819l-206.418,-0l-0,94.626c8.661,-3.189 17.923,-5.523 27.787,-7.003c9.864,-1.48 20.329,-2.221 31.396,-2.221c53.408,0 96.713,15.942 129.913,47.826c33.2,31.883 49.8,73.332 49.8,124.346c0,53.519 -17.983,95.821 -53.95,126.908c-35.967,31.087 -84.985,46.63 -147.055,46.63c-23.096,-0 -46.432,-1.822 -70.009,-5.466c-23.577,-3.644 -47.635,-9.11 -72.174,-16.397l0,-90.869c19.968,9.338 40.478,16.341 61.529,21.009c21.05,4.669 42.161,7.003 63.332,7.003c37.531,0 66.04,-7.572 85.527,-22.717c19.487,-15.144 29.23,-37.178 29.23,-66.101c0,-26.646 -9.683,-47.996 -29.05,-64.052c-19.367,-16.056 -45.169,-24.084 -77.407,-24.084c-19.005,0 -38.071,2.221 -57.198,6.662c-19.126,4.441 -38.432,11.102 -57.919,19.984l-0,-284.903Z" style="fill:#053590;fill-rule:nonzero;"/><path d="M1067.46,427.191l616.94,448.727l369.52,-143.017l-386.872,-497.834l-600.117,-204.563l0.529,396.687Z" style="fill:#00b500;"/><path d="M1067.46,427.191l-616.939,448.727l-370.578,-113.888l386.871,-526.963l600.117,-204.563l0.529,396.687Z" style="fill:#00d800;"/><path d="M79.942,762.03l20.753,652.097l349.825,498.905l235.65,-311.06l-235.65,-726.054l-370.578,-113.888Z" style="fill:#00b500;"/><path d="M2053.92,732.901l-369.52,143.017l-235.65,726.054l235.65,311.06l362.562,-521.691l6.958,-658.44Z" style="fill:#00d800;"/><path d="M1067.46,2105.26l616.94,-192.227l-235.65,-311.031l-762.579,0l-235.65,311.031l616.939,192.227Z" style="fill:#008700;"/></g></svg>