<?xml version="1.0" encoding="UTF-8" standalone="no"?><!DOCTYPE svg PUBLIC "-//W3C//DTD SVG 1.1//EN" "http://www.w3.org/Graphics/SVG/1.1/DTD/svg11.dtd"><svg width="100%" height="100%" viewBox="0 0 2136 2136" version="1.1" xmlns="http://www.w3.org/2000/svg" xmlns:xlink="http://www.w3.org/1999/xlink" xml:space="preserve" xmlns:serif="http://www.serif.com/" style="fill-rule:evenodd;clip-rule:evenodd;stroke-linejoin:round;stroke-miterlimit:2;"><rect id="d20_15" x="1.372" y="1.799" width="2133.33" height="2133.33" style="fill:none;"/><g id="d20_151" serif:id="d20_15"><path d="M1065.99,335.205l630.696,1085.13l-1261.39,0l630.695,-1085.13Z" style="fill:#0f0;"/><g><path d="M758.847,1209.61l104.243,0l-0,-289.759l-96.978,22.727l0,-79.542l97.61,-22.128l90.028,-0l-0,368.702l104.243,0l0,77.747l-299.146,0l-0,-77.747Z" style="fill:#053590;fill-rule:nonzero;"/><path d="M1092.62,840.905l256.185,-0l0,77.747l-180.688,0l-0,82.831c7.581,-2.791 15.689,-4.834 24.323,-6.13c8.635,-1.296 17.795,-1.944 27.483,-1.944c46.751,0 84.658,13.955 113.72,41.864c29.061,27.91 43.592,64.192 43.592,108.847c0,46.848 -15.742,83.877 -47.225,111.089c-31.484,27.211 -74.392,40.817 -128.725,40.817c-20.217,0 -40.644,-1.595 -61.282,-4.784c-20.638,-3.19 -41.697,-7.974 -63.178,-14.354l0,-79.541c17.479,8.173 35.432,14.303 53.859,18.39c18.427,4.087 36.906,6.13 55.439,6.13c32.852,0 57.807,-6.628 74.865,-19.885c17.058,-13.257 25.587,-32.544 25.587,-57.862c0,-23.324 -8.476,-42.014 -25.429,-56.068c-16.953,-14.054 -39.539,-21.082 -67.758,-21.082c-16.637,0 -33.326,1.944 -50.068,5.831c-16.742,3.888 -33.642,9.719 -50.7,17.494l-0,-249.39Z" style="fill:#053590;fill-rule:nonzero;"/></g><path d="M1065.99,2044.17l630.696,-623.837l-1261.39,0l630.695,623.837Z" style="fill:#00d800;"/><path d="M1065.99,335.205l-901.63,233.273l270.935,851.859l630.695,-1085.13Z" style="fill:#00d800;"/><path d="M1065.99,335.205l630.696,1085.13l276.797,-851.859l-907.493,-233.273Z" style="fill:#00d800;"/><path d="M1982.86,1567.61l-286.173,-147.276l276.797,-851.859l9.376,999.135Z" style="fill:#00b500;"/><path d="M153.219,1567.61l286.173,-147.276l-275.023,-851.871l-11.15,999.147Z" style="fill:#00b500;"/><path d="M1982.86,1567.61l-286.173,-147.276l-630.696,623.833l916.869,-476.557Z" style="fill:#008700;"/><path d="M153.219,1567.61l286.173,-147.276l630.696,623.833l-916.869,-476.557Z" style="fill:#008700;"/><path d="M1065.99,335.205l-1.89,-242.448l909.383,475.721l-907.493,-233.273Z" style="fill:#008700;"/><path d="M1065.99,335.205l-1.89,-242.448l-899.74,475.721l901.63,-233.273Z" style="fill:#00b500;"/></g></svg>