<?xml version="1.0" encoding="UTF-8" standalone="no"?><!DOCTYPE svg PUBLIC "-//W3C//DTD SVG 1.1//EN" "http://www.w3.org/Graphics/SVG/1.1/DTD/svg11.dtd"><svg width="100%" height="100%" viewBox="0 0 2136 2136" version="1.1" xmlns="http://www.w3.org/2000/svg" xmlns:xlink="http://www.w3.org/1999/xlink" xml:space="preserve" xmlns:serif="http://www.serif.com/" style="fill-rule:evenodd;clip-rule:evenodd;stroke-linejoin:round;stroke-miterlimit:2;"><rect id="d20_8" x="1.665" y="1.799" width="2133.33" height="2133.33" style="fill:none;"/><g id="d20_81" serif:id="d20_8"><path d="M1066.28,335.205l630.696,1085.13l-1261.39,0l630.695,-1085.13Z" style="fill:#0f0;"/><path d="M1066.28,2044.17l630.696,-623.837l-1261.39,0l630.695,623.837Z" style="fill:#00d800;"/><path d="M1066.28,335.205l-901.63,233.273l270.935,851.859l630.695,-1085.13Z" style="fill:#00d800;"/><path d="M1066.28,335.205l630.696,1085.13l276.797,-851.859l-907.493,-233.273Z" style="fill:#00d800;"/><path d="M1983.15,1567.61l-286.173,-147.276l276.797,-851.859l9.376,999.135Z" style="fill:#00b500;"/><path d="M153.512,1567.61l286.173,-147.276l-275.023,-851.871l-11.15,999.147Z" style="fill:#00b500;"/><path d="M1983.15,1567.61l-286.173,-147.276l-630.696,623.833l916.869,-476.557Z" style="fill:#008700;"/><path d="M153.512,1567.61l286.173,-147.276l630.696,623.833l-916.869,-476.557Z" style="fill:#008700;"/><path d="M1066.28,335.205l-1.89,-242.448l909.383,475.721l-907.493,-233.273Z" style="fill:#008700;"/><path d="M1066.28,335.205l-1.89,-242.448l-899.74,475.721l901.63,-233.273Z" style="fill:#00b500;"/><path d="M1068.17,1092.24c-20.848,0 -37.696,6.23 -50.542,18.69c-12.846,12.459 -19.269,28.956 -19.269,49.489c0,20.533 6.423,37.079 19.269,49.639c12.846,12.559 29.694,18.838 50.542,18.838c20.849,0 37.749,-6.379 50.7,-19.137c12.952,-12.759 19.428,-29.206 19.428,-49.34c-0,-20.533 -6.423,-37.03 -19.27,-49.489c-12.846,-12.46 -29.798,-18.69 -50.858,-18.69Zm-69.179,-37.378c-23.797,-7.775 -41.908,-19.985 -54.333,-36.631c-12.425,-16.646 -18.637,-37.03 -18.637,-61.152c-0,-37.079 12.74,-66.384 38.222,-87.914c25.482,-21.53 60.124,-32.295 103.927,-32.295c44.014,0 78.762,10.765 104.244,32.295c25.481,21.53 38.222,50.835 38.222,87.914c0,23.923 -6.107,44.207 -18.321,60.853c-12.215,16.646 -30.01,28.956 -53.386,36.93c26.114,7.575 46.541,21.131 61.283,40.668c14.741,19.536 22.112,42.96 22.112,70.271c-0,42.861 -13.373,75.954 -40.118,99.278c-26.745,23.324 -64.757,34.986 -114.036,34.986c-49.068,0 -86.974,-11.662 -113.719,-34.986c-26.746,-23.324 -40.118,-56.417 -40.118,-99.278c-0,-27.51 7.476,-51.034 22.428,-70.57c14.952,-19.537 35.695,-32.993 62.23,-40.369Zm9.792,-90.606c0,17.543 5.318,31.448 15.953,41.715c10.635,10.266 25.113,15.4 43.434,15.4c18.533,-0 33.116,-5.134 43.751,-15.4c10.635,-10.267 15.952,-24.172 15.952,-41.715c0,-17.343 -5.317,-31.049 -15.952,-41.116c-10.635,-10.068 -25.218,-15.101 -43.751,-15.101c-18.111,-0 -32.536,5.083 -43.276,15.25c-10.741,10.167 -16.111,23.823 -16.111,40.967Z" style="fill:#053590;fill-rule:nonzero;"/></g></svg>