<?xml version="1.0" encoding="UTF-8" standalone="no"?><!DOCTYPE svg PUBLIC "-//W3C//DTD SVG 1.1//EN" "http://www.w3.org/Graphics/SVG/1.1/DTD/svg11.dtd"><svg width="100%" height="100%" viewBox="0 0 2136 2136" version="1.1" xmlns="http://www.w3.org/2000/svg" xmlns:xlink="http://www.w3.org/1999/xlink" xml:space="preserve" xmlns:serif="http://www.serif.com/" style="fill-rule:evenodd;clip-rule:evenodd;stroke-linejoin:round;stroke-miterlimit:2;"><rect id="d20_10" x="0.093" y="1.799" width="2133.33" height="2133.33" style="fill:none;"/><g id="d20_101" serif:id="d20_10"><path d="M1064.71,335.205l630.696,1085.13l-1261.39,0l630.695,-1085.13Z" style="fill:#0f0;"/><path d="M1064.71,2044.17l630.696,-623.837l-1261.39,0l630.695,623.837Z" style="fill:#00d800;"/><path d="M1064.71,335.205l-901.63,233.273l270.935,851.859l630.695,-1085.13Z" style="fill:#00d800;"/><path d="M1064.71,335.205l630.696,1085.13l276.797,-851.859l-907.493,-233.273Z" style="fill:#00d800;"/><path d="M1981.58,1567.61l-286.173,-147.276l276.797,-851.859l9.376,999.135Z" style="fill:#00b500;"/><path d="M151.94,1567.61l286.173,-147.276l-275.023,-851.871l-11.15,999.147Z" style="fill:#00b500;"/><path d="M1981.58,1567.61l-286.173,-147.276l-630.696,623.833l916.869,-476.557Z" style="fill:#008700;"/><path d="M151.94,1567.61l286.173,-147.276l630.696,623.833l-916.869,-476.557Z" style="fill:#008700;"/><path d="M1064.71,335.205l-1.89,-242.448l909.383,475.721l-907.493,-233.273Z" style="fill:#008700;"/><path d="M1064.71,335.205l-1.89,-242.448l-899.74,475.721l901.63,-233.273Z" style="fill:#00b500;"/><g><path d="M774.324,1213.64l104.243,-0l-0,-289.759l-96.978,22.726l0,-79.541l97.61,-22.128l90.028,-0l-0,368.702l104.243,-0l0,77.747l-299.146,0l-0,-77.747Z" style="fill:#053590;fill-rule:nonzero;"/><path d="M1076.58,1068.62c0,-77.349 12.952,-135.31 38.855,-173.885c25.902,-38.575 64.862,-57.862 116.878,-57.862c52.227,0 91.292,19.238 117.195,57.713c25.903,38.475 38.854,96.486 38.854,174.034c0,77.349 -12.951,135.261 -38.854,173.736c-25.903,38.475 -64.968,57.712 -117.195,57.712c-52.016,0 -90.976,-19.287 -116.878,-57.862c-25.903,-38.575 -38.855,-96.437 -38.855,-173.586Zm108.666,119.312c9.898,24.919 25.587,37.379 47.067,37.379c21.691,0 37.486,-12.46 47.384,-37.379c9.897,-24.919 14.846,-64.689 14.846,-119.312c0,-20.733 -0.737,-39.272 -2.211,-55.619l-110.245,166.26c1.053,3.189 2.106,6.08 3.159,8.671Zm47.067,-276.302c-21.48,0 -37.169,12.46 -47.067,37.379c-9.898,24.919 -14.847,64.789 -14.847,119.611c0,16.945 0.421,32.395 1.264,46.35l108.665,-164.167c-0.21,-0.598 -0.421,-1.196 -0.631,-1.794c-9.898,-24.919 -25.693,-37.379 -47.384,-37.379Z" style="fill:#053590;fill-rule:nonzero;"/></g></g></svg>