<?xml version="1.0" encoding="UTF-8" standalone="no"?><!DOCTYPE svg PUBLIC "-//W3C//DTD SVG 1.1//EN" "http://www.w3.org/Graphics/SVG/1.1/DTD/svg11.dtd"><svg width="100%" height="100%" viewBox="0 0 2136 2136" version="1.1" xmlns="http://www.w3.org/2000/svg" xmlns:xlink="http://www.w3.org/1999/xlink" xml:space="preserve" xmlns:serif="http://www.serif.com/" style="fill-rule:evenodd;clip-rule:evenodd;stroke-linejoin:round;stroke-miterlimit:2;"><rect id="d20_3" x="0.386" y="1.799" width="2133.33" height="2133.33" style="fill:none;"/><g id="d20_31" serif:id="d20_3"><path d="M1065,335.205l630.696,1085.13l-1261.39,0l630.695,-1085.13Z" style="fill:#0f0;"/><path d="M1065,2044.17l630.696,-623.837l-1261.39,0l630.695,623.837Z" style="fill:#00d800;"/><path d="M1065,335.205l-901.63,233.273l270.935,851.859l630.695,-1085.13Z" style="fill:#00d800;"/><path d="M1065,335.205l630.696,1085.13l276.797,-851.859l-907.493,-233.273Z" style="fill:#00d800;"/><path d="M1981.87,1567.61l-286.173,-147.276l276.797,-851.859l9.376,999.135Z" style="fill:#00b500;"/><path d="M152.233,1567.61l286.173,-147.276l-275.023,-851.871l-11.15,999.147Z" style="fill:#00b500;"/><path d="M1981.87,1567.61l-286.173,-147.276l-630.696,623.833l916.869,-476.557Z" style="fill:#008700;"/><path d="M152.233,1567.61l286.173,-147.276l630.696,623.833l-916.869,-476.557Z" style="fill:#008700;"/><path d="M1065,335.205l-1.89,-242.448l909.383,475.721l-907.493,-233.273Z" style="fill:#008700;"/><path d="M1065,335.205l-1.89,-242.448l-899.74,475.721l901.63,-233.273Z" style="fill:#00b500;"/><path d="M1046.99,1091.64l-49.911,0l0,-77.747l49.911,-0c23.165,-0 41.118,-4.336 53.858,-13.008c12.741,-8.672 19.112,-20.882 19.112,-36.631c-0,-16.546 -6.371,-29.454 -19.112,-38.724c-12.74,-9.27 -30.693,-13.905 -53.858,-13.905c-17.69,0 -36.644,2.093 -56.86,6.28c-20.217,4.186 -41.171,10.266 -62.862,18.24l-0,-80.139c21.691,-6.18 43.066,-10.915 64.125,-14.204c21.059,-3.289 41.276,-4.934 60.651,-4.934c49.7,0 88.448,10.267 116.247,30.8c27.798,20.533 41.697,48.841 41.697,84.924c-0,26.514 -8.003,48.193 -24.008,65.039c-16.005,16.845 -38.854,27.859 -68.547,33.042c33.694,5.582 59.387,18.291 77.076,38.127c17.69,19.835 26.535,45.9 26.535,78.195c0,43.26 -14.636,76.253 -43.908,98.979c-29.273,22.726 -71.812,34.089 -127.619,34.089c-23.797,0 -47.226,-1.894 -70.286,-5.681c-23.059,-3.788 -45.119,-9.27 -66.178,-16.447l-0,-81.934c19.795,9.37 41.171,16.497 64.125,21.381c22.955,4.884 47.068,7.326 72.339,7.326c25.271,-0 45.277,-5.532 60.018,-16.596c14.742,-11.064 22.113,-25.966 22.113,-44.705c-0,-22.925 -7.371,-40.618 -22.113,-53.077c-14.741,-12.46 -35.59,-18.69 -62.545,-18.69Z" style="fill:#053590;fill-rule:nonzero;"/></g></svg>