<?xml version="1.0" encoding="UTF-8" standalone="no"?><!DOCTYPE svg PUBLIC "-//W3C//DTD SVG 1.1//EN" "http://www.w3.org/Graphics/SVG/1.1/DTD/svg11.dtd"><svg width="100%" height="100%" viewBox="0 0 2136 2136" version="1.1" xmlns="http://www.w3.org/2000/svg" xmlns:xlink="http://www.w3.org/1999/xlink" xml:space="preserve" xmlns:serif="http://www.serif.com/" style="fill-rule:evenodd;clip-rule:evenodd;stroke-linejoin:round;stroke-miterlimit:2;"><rect id="d20_12" x="0.604" y="1.799" width="2133.33" height="2133.33" style="fill:none;"/><g id="d20_121" serif:id="d20_12"><path d="M1065.22,335.205l630.695,1085.13l-1261.39,0l630.696,-1085.13Z" style="fill:#0f0;"/><path d="M1065.22,2044.17l630.695,-623.837l-1261.39,0l630.696,623.837Z" style="fill:#00d800;"/><path d="M1065.22,335.205l-901.63,233.273l270.934,851.859l630.696,-1085.13Z" style="fill:#00d800;"/><path d="M1065.22,335.205l630.695,1085.13l276.798,-851.859l-907.493,-233.273Z" style="fill:#00d800;"/><path d="M1982.09,1567.61l-286.174,-147.276l276.798,-851.859l9.376,999.135Z" style="fill:#00b500;"/><path d="M152.452,1567.61l286.173,-147.276l-275.023,-851.871l-11.15,999.147Z" style="fill:#00b500;"/><path d="M1982.09,1567.61l-286.174,-147.276l-630.695,623.833l916.869,-476.557Z" style="fill:#008700;"/><path d="M152.452,1567.61l286.173,-147.276l630.696,623.833l-916.869,-476.557Z" style="fill:#008700;"/><path d="M1065.22,335.205l-1.891,-242.448l909.384,475.721l-907.493,-233.273Z" style="fill:#008700;"/><g><path d="M767.19,1217.98l104.244,-0l-0,-289.759l-96.978,22.726l-0,-79.541l97.609,-22.128l90.029,-0l-0,368.702l104.243,-0l-0,77.747l-299.147,0l0,-77.747Z" style="fill:#053590;fill-rule:nonzero;"/><path d="M1185.33,1217.98l198.693,-0l0,77.747l-299.462,0l0,-75.355l50.542,-50.835c60.019,-60.404 96.452,-97.583 109.298,-111.537c15.794,-17.145 27.166,-32.345 34.116,-45.602c6.949,-13.257 10.424,-26.365 10.424,-39.322c0,-19.936 -6.37,-35.336 -19.111,-46.2c-12.741,-10.865 -30.799,-16.297 -54.175,-16.297c-16.637,-0 -35.327,3.139 -56.07,9.419c-20.744,6.28 -42.382,15.4 -64.915,27.361l-0,-82.233c22.533,-7.775 44.593,-13.705 66.178,-17.792c21.586,-4.087 42.277,-6.13 62.072,-6.13c49.911,-0 89.134,11.014 117.669,33.043c28.535,22.028 42.803,52.08 42.803,90.157c-0,17.543 -3.107,33.989 -9.319,49.339c-6.212,15.351 -16.9,32.395 -32.063,51.134c-11.161,13.556 -41.802,44.057 -91.923,91.503c-27.167,25.716 -48.752,46.25 -64.757,61.6Z" style="fill:#053590;fill-rule:nonzero;"/></g><path d="M1065.22,335.205l-1.891,-242.448l-899.74,475.721l901.631,-233.273Z" style="fill:#00b500;"/></g></svg>