<?xml version="1.0" encoding="UTF-8" standalone="no"?><!DOCTYPE svg PUBLIC "-//W3C//DTD SVG 1.1//EN" "http://www.w3.org/Graphics/SVG/1.1/DTD/svg11.dtd"><svg width="100%" height="100%" viewBox="0 0 2136 2136" version="1.1" xmlns="http://www.w3.org/2000/svg" xmlns:xlink="http://www.w3.org/1999/xlink" xml:space="preserve" xmlns:serif="http://www.serif.com/" style="fill-rule:evenodd;clip-rule:evenodd;stroke-linejoin:round;stroke-miterlimit:2;"><rect id="d20_17" x="1.883" y="1.799" width="2133.33" height="2133.33" style="fill:none;"/><g id="d20_171" serif:id="d20_17"><path d="M1066.5,335.205l630.695,1085.13l-1261.39,0l630.696,-1085.13Z" style="fill:#0f0;"/><g><path d="M747.379,1213.94l104.243,-0l0,-289.759l-96.977,22.727l-0,-79.542l97.609,-22.128l90.028,-0l0,368.702l104.243,-0l0,77.747l-299.146,0l0,-77.747Z" style="fill:#053590;fill-rule:nonzero;"/><path d="M1066.52,845.241l298.199,-0l-0,62.497l-159.84,383.952l-95.082,0l153.522,-368.702l-196.799,0l0,-77.747Z" style="fill:#053590;fill-rule:nonzero;"/></g><path d="M1066.5,2044.17l630.695,-623.837l-1261.39,0l630.696,623.837Z" style="fill:#00d800;"/><path d="M1066.5,335.205l-901.63,233.273l270.934,851.859l630.696,-1085.13Z" style="fill:#00d800;"/><path d="M1066.5,335.205l630.695,1085.13l276.798,-851.859l-907.493,-233.273Z" style="fill:#00d800;"/><path d="M1983.37,1567.61l-286.174,-147.276l276.798,-851.859l9.376,999.135Z" style="fill:#00b500;"/><path d="M153.73,1567.61l286.174,-147.276l-275.023,-851.871l-11.151,999.147Z" style="fill:#00b500;"/><path d="M1983.37,1567.61l-286.174,-147.276l-630.696,623.833l916.87,-476.557Z" style="fill:#008700;"/><path d="M153.73,1567.61l286.174,-147.276l630.696,623.833l-916.87,-476.557Z" style="fill:#008700;"/><path d="M1066.5,335.205l-1.891,-242.448l909.384,475.721l-907.493,-233.273Z" style="fill:#008700;"/><path d="M1066.5,335.205l-1.891,-242.448l-899.74,475.721l901.631,-233.273Z" style="fill:#00b500;"/></g></svg>