<?xml version="1.0" encoding="UTF-8" standalone="no"?><!DOCTYPE svg PUBLIC "-//W3C//DTD SVG 1.1//EN" "http://www.w3.org/Graphics/SVG/1.1/DTD/svg11.dtd"><svg width="100%" height="100%" viewBox="0 0 2136 2136" version="1.1" xmlns="http://www.w3.org/2000/svg" xmlns:xlink="http://www.w3.org/1999/xlink" xml:space="preserve" xmlns:serif="http://www.serif.com/" style="fill-rule:evenodd;clip-rule:evenodd;stroke-linejoin:round;stroke-miterlimit:2;"><rect id="d20_13" x="0.86" y="1.799" width="2133.33" height="2133.33" style="fill:none;"/><g id="d20_131" serif:id="d20_13"><path d="M1065.48,335.205l630.695,1085.13l-1261.39,0l630.696,-1085.13Z" style="fill:#0f0;"/><path d="M1065.48,2044.17l630.695,-623.837l-1261.39,0l630.696,623.837Z" style="fill:#00d800;"/><path d="M1065.48,335.205l-901.63,233.273l270.934,851.859l630.696,-1085.13Z" style="fill:#00d800;"/><path d="M1065.48,335.205l630.695,1085.13l276.798,-851.859l-907.493,-233.273Z" style="fill:#00d800;"/><path d="M1982.35,1567.61l-286.174,-147.276l276.798,-851.859l9.376,999.135Z" style="fill:#00b500;"/><path d="M152.707,1567.61l286.174,-147.276l-275.023,-851.871l-11.151,999.147Z" style="fill:#00b500;"/><path d="M1982.35,1567.61l-286.174,-147.276l-630.696,623.833l916.87,-476.557Z" style="fill:#008700;"/><g><path d="M767.115,1213.64l104.243,-0l0,-289.759l-96.978,22.726l0,-79.541l97.61,-22.128l90.028,-0l0,368.702l104.243,-0l0,77.747l-299.146,0l-0,-77.747Z" style="fill:#053590;fill-rule:nonzero;"/><path d="M1218.88,1091.64l-49.91,0l-0,-77.747l49.91,-0c23.166,-0 41.119,-4.336 53.859,-13.008c12.741,-8.672 19.112,-20.882 19.112,-36.631c-0,-16.546 -6.371,-29.454 -19.112,-38.724c-12.74,-9.27 -30.693,-13.905 -53.859,-13.905c-17.689,0 -36.643,2.093 -56.86,6.28c-20.216,4.186 -41.17,10.266 -62.861,18.24l-0,-80.139c21.691,-6.18 43.066,-10.915 64.125,-14.204c21.059,-3.289 41.276,-4.934 60.651,-4.934c49.699,0 88.448,10.267 116.247,30.8c27.798,20.533 41.697,48.841 41.697,84.924c-0,26.514 -8.003,48.193 -24.008,65.039c-16.005,16.845 -38.854,27.859 -68.548,33.042c33.695,5.582 59.388,18.291 77.077,38.127c17.69,19.835 26.535,45.9 26.535,78.195c-0,43.26 -14.636,76.253 -43.909,98.979c-29.272,22.726 -71.812,34.089 -127.619,34.089c-23.796,0 -47.225,-1.894 -70.285,-5.681c-23.06,-3.788 -45.119,-9.27 -66.178,-16.447l-0,-81.934c19.795,9.37 41.17,16.497 64.125,21.381c22.955,4.884 47.067,7.326 72.338,7.326c25.272,-0 45.278,-5.532 60.019,-16.596c14.742,-11.064 22.112,-25.966 22.112,-44.705c0,-22.925 -7.37,-40.618 -22.112,-53.077c-14.741,-12.46 -35.59,-18.69 -62.546,-18.69Z" style="fill:#053590;fill-rule:nonzero;"/></g><path d="M152.707,1567.61l286.174,-147.276l630.695,623.833l-916.869,-476.557Z" style="fill:#008700;"/><path d="M1065.48,335.205l-1.891,-242.448l909.384,475.721l-907.493,-233.273Z" style="fill:#008700;"/><path d="M1065.48,335.205l-1.891,-242.448l-899.74,475.721l901.631,-233.273Z" style="fill:#00b500;"/></g></svg>