<?xml version="1.0" encoding="UTF-8" standalone="no"?><!DOCTYPE svg PUBLIC "-//W3C//DTD SVG 1.1//EN" "http://www.w3.org/Graphics/SVG/1.1/DTD/svg11.dtd"><svg width="100%" height="100%" viewBox="0 0 2136 2136" version="1.1" xmlns="http://www.w3.org/2000/svg" xmlns:xlink="http://www.w3.org/1999/xlink" xml:space="preserve" xmlns:serif="http://www.serif.com/" style="fill-rule:evenodd;clip-rule:evenodd;stroke-linejoin:round;stroke-miterlimit:2;"><rect id="d20_20" x="0.567" y="1.799" width="2133.33" height="2133.33" style="fill:none;"/><g id="d20_201" serif:id="d20_20"><path d="M1065.18,335.205l630.695,1085.13l-1261.39,0l630.696,-1085.13Z" style="fill:#0f0;"/><g><path d="M867.655,1213.64l198.694,-0l-0,77.747l-299.462,0l-0,-75.355l50.542,-50.835c60.019,-60.403 96.451,-97.583 109.297,-111.537c15.795,-17.145 27.167,-32.345 34.116,-45.602c6.95,-13.257 10.425,-26.365 10.425,-39.322c-0,-19.936 -6.371,-35.336 -19.112,-46.2c-12.741,-10.865 -30.799,-16.297 -54.175,-16.297c-16.636,-0 -35.326,3.139 -56.07,9.419c-20.743,6.28 -42.381,15.4 -64.915,27.361l0,-82.233c22.534,-7.774 44.593,-13.705 66.179,-17.792c21.585,-4.087 42.276,-6.13 62.072,-6.13c49.91,0 89.133,11.014 117.668,33.043c28.536,22.028 42.803,52.08 42.803,90.157c0,17.543 -3.106,33.989 -9.319,49.339c-6.212,15.351 -16.9,32.395 -32.062,51.134c-11.162,13.556 -41.803,44.057 -91.924,91.503c-27.166,25.716 -48.752,46.25 -64.757,61.6Z" style="fill:#053590;fill-rule:nonzero;"/><path d="M1084.97,1068.62c0,-77.349 12.952,-135.31 38.854,-173.885c25.903,-38.575 64.863,-57.862 116.879,-57.862c52.227,0 91.292,19.238 117.195,57.713c25.903,38.475 38.854,96.486 38.854,174.034c0,77.349 -12.951,135.261 -38.854,173.736c-25.903,38.475 -64.968,57.712 -117.195,57.712c-52.016,0 -90.976,-19.287 -116.879,-57.862c-25.902,-38.575 -38.854,-96.437 -38.854,-173.586Zm108.666,119.312c9.898,24.919 25.587,37.379 47.067,37.379c21.691,0 37.486,-12.46 47.383,-37.379c9.898,-24.919 14.847,-64.689 14.847,-119.312c0,-20.733 -0.737,-39.272 -2.211,-55.619l-110.245,166.26c1.053,3.189 2.106,6.08 3.159,8.671Zm47.067,-276.302c-21.48,0 -37.169,12.46 -47.067,37.379c-9.898,24.919 -14.847,64.789 -14.847,119.611c-0,16.945 0.421,32.395 1.264,46.35l108.665,-164.167c-0.21,-0.598 -0.421,-1.196 -0.632,-1.794c-9.897,-24.919 -25.692,-37.379 -47.383,-37.379Z" style="fill:#053590;fill-rule:nonzero;"/></g><path d="M1065.18,2044.17l630.695,-623.837l-1261.39,0l630.696,623.837Z" style="fill:#00d800;"/><path d="M1065.18,335.205l-901.63,233.273l270.934,851.859l630.696,-1085.13Z" style="fill:#00d800;"/><path d="M1065.18,335.205l630.695,1085.13l276.798,-851.859l-907.493,-233.273Z" style="fill:#00d800;"/><path d="M1982.05,1567.61l-286.174,-147.276l276.798,-851.859l9.376,999.135Z" style="fill:#00b500;"/><path d="M152.414,1567.61l286.174,-147.276l-275.023,-851.871l-11.151,999.147Z" style="fill:#00b500;"/><path d="M1982.05,1567.61l-286.174,-147.276l-630.695,623.833l916.869,-476.557Z" style="fill:#008700;"/><path d="M152.414,1567.61l286.174,-147.276l630.696,623.833l-916.87,-476.557Z" style="fill:#008700;"/><path d="M1065.18,335.205l-1.891,-242.448l909.384,475.721l-907.493,-233.273Z" style="fill:#008700;"/><path d="M1065.18,335.205l-1.891,-242.448l-899.74,475.721l901.631,-233.273Z" style="fill:#00b500;"/></g></svg>