<?xml version="1.0" encoding="UTF-8" standalone="no"?><!DOCTYPE svg PUBLIC "-//W3C//DTD SVG 1.1//EN" "http://www.w3.org/Graphics/SVG/1.1/DTD/svg11.dtd"><svg width="100%" height="100%" viewBox="0 0 2136 2136" version="1.1" xmlns="http://www.w3.org/2000/svg" xmlns:xlink="http://www.w3.org/1999/xlink" xml:space="preserve" xmlns:serif="http://www.serif.com/" style="fill-rule:evenodd;clip-rule:evenodd;stroke-linejoin:round;stroke-miterlimit:2;"><rect id="d20_7" x="1.409" y="1.799" width="2133.33" height="2133.33" style="fill:none;"/><g id="d20_71" serif:id="d20_7"><path d="M1066.03,335.205l630.696,1085.13l-1261.39,0l630.695,-1085.13Z" style="fill:#0f0;"/><path d="M918.976,845.241l298.199,-0l-0,62.497l-159.84,383.952l-95.082,0l153.522,-368.702l-196.799,0l0,-77.747Z" style="fill:#053590;fill-rule:nonzero;"/><path d="M1066.03,2044.17l630.696,-623.837l-1261.39,0l630.695,623.837Z" style="fill:#00d800;"/><path d="M1066.03,335.205l-901.63,233.273l270.935,851.859l630.695,-1085.13Z" style="fill:#00d800;"/><path d="M1066.03,335.205l630.696,1085.13l276.797,-851.859l-907.493,-233.273Z" style="fill:#00d800;"/><path d="M1982.89,1567.61l-286.173,-147.276l276.797,-851.859l9.376,999.135Z" style="fill:#00b500;"/><path d="M153.256,1567.61l286.173,-147.276l-275.023,-851.871l-11.15,999.147Z" style="fill:#00b500;"/><path d="M1982.89,1567.61l-286.173,-147.276l-630.696,623.833l916.869,-476.557Z" style="fill:#008700;"/><path d="M153.256,1567.61l286.173,-147.276l630.696,623.833l-916.869,-476.557Z" style="fill:#008700;"/><path d="M1066.03,335.205l-1.89,-242.448l909.383,475.721l-907.493,-233.273Z" style="fill:#008700;"/><path d="M1066.03,335.205l-1.89,-242.448l-899.74,475.721l901.63,-233.273Z" style="fill:#00b500;"/></g></svg>