<?xml version="1.0" encoding="UTF-8" standalone="no"?><!DOCTYPE svg PUBLIC "-//W3C//DTD SVG 1.1//EN" "http://www.w3.org/Graphics/SVG/1.1/DTD/svg11.dtd"><svg width="100%" height="100%" viewBox="0 0 2136 2136" version="1.1" xmlns="http://www.w3.org/2000/svg" xmlns:xlink="http://www.w3.org/1999/xlink" xml:space="preserve" xmlns:serif="http://www.serif.com/" style="fill-rule:evenodd;clip-rule:evenodd;stroke-linejoin:round;stroke-miterlimit:2;"><rect id="d20_9" x="1.92" y="1.799" width="2133.33" height="2133.33" style="fill:none;"/><g id="d20_91" serif:id="d20_9"><path d="M1066.54,335.205l630.695,1085.13l-1261.39,0l630.696,-1085.13Z" style="fill:#0f0;"/><path d="M1066.54,2044.17l630.695,-623.837l-1261.39,0l630.696,623.837Z" style="fill:#00d800;"/><path d="M1066.54,335.205l-901.63,233.273l270.934,851.859l630.696,-1085.13Z" style="fill:#00d800;"/><path d="M1066.54,335.205l630.695,1085.13l276.798,-851.859l-907.493,-233.273Z" style="fill:#00d800;"/><path d="M1983.41,1567.61l-286.174,-147.276l276.798,-851.859l9.376,999.135Z" style="fill:#00b500;"/><path d="M153.768,1567.61l286.173,-147.276l-275.023,-851.871l-11.15,999.147Z" style="fill:#00b500;"/><path d="M1983.41,1567.61l-286.174,-147.276l-630.695,623.833l916.869,-476.557Z" style="fill:#008700;"/><path d="M153.768,1567.61l286.173,-147.276l630.696,623.833l-916.869,-476.557Z" style="fill:#008700;"/><path d="M1066.54,335.205l-1.891,-242.448l909.384,475.721l-907.493,-233.273Z" style="fill:#008700;"/><path d="M1066.54,335.205l-1.891,-242.448l-899.74,475.721l901.631,-233.273Z" style="fill:#00b500;"/><path d="M941.126,1281.97l0,-80.439c16.637,9.17 32.589,15.948 47.857,20.334c15.268,4.386 29.957,6.579 44.067,6.579c33.484,-0 59.018,-10.616 76.603,-31.847c17.584,-21.231 26.903,-52.978 27.956,-95.24c-9.898,12.958 -22.534,22.676 -37.907,29.155c-15.373,6.479 -33.589,9.718 -54.649,9.718c-42.329,0 -75.076,-12.708 -98.241,-38.126c-23.165,-25.417 -34.748,-61.45 -34.748,-108.099c0,-49.838 12.952,-88.412 38.855,-115.724c25.903,-27.311 62.546,-40.966 109.929,-40.966c57.492,-0 99.241,18.19 125.25,54.572c26.008,36.382 39.012,95.141 39.012,176.278c-0,77.149 -15.9,135.011 -47.699,173.586c-31.8,38.574 -79.499,57.862 -143.098,57.862c-14.741,-0 -29.957,-1.496 -45.646,-4.486c-15.689,-2.99 -31.536,-7.376 -47.541,-13.157Zm122.249,-215.6c20.006,0 35.327,-6.927 45.962,-20.782c10.635,-13.855 15.952,-33.94 15.952,-60.254c0,-26.115 -5.317,-46.101 -15.952,-59.956c-10.635,-13.855 -25.956,-20.782 -45.962,-20.782c-20.217,-0 -35.748,6.927 -46.594,20.782c-10.845,13.855 -16.268,33.841 -16.268,59.956c0,26.115 5.423,46.15 16.268,60.104c10.846,13.955 26.377,20.932 46.594,20.932Z" style="fill:#053590;fill-rule:nonzero;"/></g></svg>