<?xml version="1.0" encoding="UTF-8" standalone="no"?><!DOCTYPE svg PUBLIC "-//W3C//DTD SVG 1.1//EN" "http://www.w3.org/Graphics/SVG/1.1/DTD/svg11.dtd"><svg width="100%" height="100%" viewBox="0 0 2136 2136" version="1.1" xmlns="http://www.w3.org/2000/svg" xmlns:xlink="http://www.w3.org/1999/xlink" xml:space="preserve" xmlns:serif="http://www.serif.com/" style="fill-rule:evenodd;clip-rule:evenodd;stroke-linejoin:round;stroke-miterlimit:2;"><rect id="d20_4" x="0.642" y="1.799" width="2133.33" height="2133.33" style="fill:none;"/><g id="d20_41" serif:id="d20_4"><path d="M1065.26,335.205l630.695,1085.13l-1261.39,0l630.696,-1085.13Z" style="fill:#0f0;"/><path d="M1065.26,2044.17l630.695,-623.837l-1261.39,0l630.696,623.837Z" style="fill:#00d800;"/><path d="M1065.26,335.205l-901.63,233.273l270.934,851.859l630.696,-1085.13Z" style="fill:#00d800;"/><path d="M1065.26,335.205l630.695,1085.13l276.798,-851.859l-907.493,-233.273Z" style="fill:#00d800;"/><path d="M1982.13,1567.61l-286.174,-147.276l276.798,-851.859l9.376,999.135Z" style="fill:#00b500;"/><path d="M152.489,1567.61l286.173,-147.276l-275.023,-851.871l-11.15,999.147Z" style="fill:#00b500;"/><path d="M1982.13,1567.61l-286.174,-147.276l-630.695,623.833l916.869,-476.557Z" style="fill:#008700;"/><path d="M152.489,1567.61l286.173,-147.276l630.696,623.833l-916.869,-476.557Z" style="fill:#008700;"/><path d="M1065.26,335.205l-1.89,-242.448l909.383,475.721l-907.493,-233.273Z" style="fill:#008700;"/><path d="M1065.26,335.205l-1.89,-242.448l-899.741,475.721l901.631,-233.273Z" style="fill:#00b500;"/><path d="M1090.21,943.322l-119.09,176.427l119.09,-0l0,-176.427Zm-8.213,-98.081l97.61,-0l-0,274.508l51.805,-0l0,75.654l-51.805,0l-0,96.287l-89.397,0l0,-96.287l-187.006,0l0,-85.522l178.793,-264.64Z" style="fill:#053590;fill-rule:nonzero;"/></g></svg>