<?xml version="1.0" encoding="UTF-8" standalone="no"?><!DOCTYPE svg PUBLIC "-//W3C//DTD SVG 1.1//EN" "http://www.w3.org/Graphics/SVG/1.1/DTD/svg11.dtd"><svg width="100%" height="100%" viewBox="0 0 2136 2136" version="1.1" xmlns="http://www.w3.org/2000/svg" xmlns:xlink="http://www.w3.org/1999/xlink" xml:space="preserve" xmlns:serif="http://www.serif.com/" style="fill-rule:evenodd;clip-rule:evenodd;stroke-linejoin:round;stroke-miterlimit:2;"><rect id="d20_2" x="0.13" y="1.799" width="2133.33" height="2133.33" style="fill:none;"/><g id="d20_21" serif:id="d20_2"><path d="M1064.75,335.205l630.696,1085.13l-1261.39,0l630.695,-1085.13Z" style="fill:#0f0;"/><path d="M1064.75,2044.17l630.696,-623.837l-1261.39,0l630.695,623.837Z" style="fill:#00d800;"/><path d="M1064.75,335.205l-901.63,233.273l270.935,851.859l630.695,-1085.13Z" style="fill:#00d800;"/><path d="M1064.75,335.205l630.696,1085.13l276.797,-851.859l-907.493,-233.273Z" style="fill:#00d800;"/><path d="M1981.62,1567.61l-286.173,-147.276l276.797,-851.859l9.376,999.135Z" style="fill:#00b500;"/><path d="M151.977,1567.61l286.173,-147.276l-275.023,-851.871l-11.15,999.147Z" style="fill:#00b500;"/><path d="M1981.62,1567.61l-286.173,-147.276l-630.696,623.833l916.869,-476.557Z" style="fill:#008700;"/><path d="M151.977,1567.61l286.173,-147.276l630.696,623.833l-916.869,-476.557Z" style="fill:#008700;"/><path d="M1064.75,335.205l-1.89,-242.448l909.383,475.721l-907.493,-233.273Z" style="fill:#008700;"/><path d="M1064.75,335.205l-1.89,-242.448l-899.74,475.721l901.63,-233.273Z" style="fill:#00b500;"/><path d="M1017.83,1217.98l198.694,-0l-0,77.747l-299.462,0l-0,-75.355l50.542,-50.835c60.018,-60.404 96.451,-97.583 109.297,-111.537c15.795,-17.145 27.166,-32.345 34.116,-45.602c6.95,-13.257 10.424,-26.365 10.424,-39.322c0,-19.936 -6.37,-35.336 -19.111,-46.2c-12.741,-10.865 -30.799,-16.297 -54.175,-16.297c-16.637,-0 -35.327,3.139 -56.07,9.419c-20.743,6.28 -42.382,15.4 -64.915,27.361l-0,-82.233c22.533,-7.775 44.593,-13.705 66.179,-17.792c21.585,-4.087 42.276,-6.13 62.072,-6.13c49.91,-0 89.133,11.014 117.668,33.043c28.535,22.028 42.803,52.08 42.803,90.157c-0,17.543 -3.106,33.989 -9.319,49.339c-6.212,15.351 -16.9,32.395 -32.062,51.134c-11.162,13.556 -41.803,44.057 -91.924,91.503c-27.166,25.716 -48.752,46.25 -64.757,61.6Z" style="fill:#053590;fill-rule:nonzero;"/></g></svg>