<?xml version="1.0" encoding="UTF-8" standalone="no"?><!DOCTYPE svg PUBLIC "-//W3C//DTD SVG 1.1//EN" "http://www.w3.org/Graphics/SVG/1.1/DTD/svg11.dtd"><svg width="100%" height="100%" viewBox="0 0 2136 2136" version="1.1" xmlns="http://www.w3.org/2000/svg" xmlns:xlink="http://www.w3.org/1999/xlink" xml:space="preserve" xmlns:serif="http://www.serif.com/" style="fill-rule:evenodd;clip-rule:evenodd;stroke-linejoin:round;stroke-miterlimit:2;"><rect id="d4_2" x="0.814" y="1.822" width="2133.33" height="2133.33" style="fill:none;"/><g id="d4_21" serif:id="d4_2"><path d="M1201.49,101.592l761.339,1769.05l105.973,-567.461l-867.312,-1201.59Z" style="fill:#008700;"/><path d="M1201.49,101.592l761.339,1769.05l-1899.18,-162.187l1137.84,-1606.86Z" style="fill:#0f0;"/><path d="M1014.45,1384.34l310.137,19.96l-8.716,121.354l-467.424,-30.083l8.448,-117.62l84.589,-74.27c100.453,-88.253 161.488,-142.626 183.103,-163.117c26.576,-25.173 46.03,-47.757 58.364,-67.751c12.333,-19.995 19.226,-40.105 20.679,-60.33c2.235,-31.117 -5.982,-55.794 -24.651,-74.033c-18.669,-18.238 -46.247,-28.531 -82.734,-30.88c-25.968,-1.671 -55.492,1.352 -88.574,9.07c-33.082,7.718 -67.879,19.78 -104.392,36.186l9.219,-128.355c36.043,-9.872 71.14,-16.913 105.291,-21.123c34.151,-4.211 66.675,-5.322 97.574,-3.333c77.904,5.014 137.891,26.146 179.962,63.396c42.07,37.25 60.971,85.592 56.703,145.024c-1.967,27.383 -8.659,52.742 -20.077,76.077c-11.417,23.336 -30.01,48.867 -55.778,76.593c-18.941,20.038 -70.188,64.568 -153.739,133.59c-45.287,37.411 -81.281,67.293 -107.984,89.645Z" style="fill:#053590;fill-rule:nonzero;"/></g></svg>