<?xml version="1.0" encoding="UTF-8" standalone="no"?><!DOCTYPE svg PUBLIC "-//W3C//DTD SVG 1.1//EN" "http://www.w3.org/Graphics/SVG/1.1/DTD/svg11.dtd"><svg width="100%" height="100%" viewBox="0 0 2136 2136" version="1.1" xmlns="http://www.w3.org/2000/svg" xmlns:xlink="http://www.w3.org/1999/xlink" xml:space="preserve" xmlns:serif="http://www.serif.com/" style="fill-rule:evenodd;clip-rule:evenodd;stroke-linejoin:round;stroke-miterlimit:2;"><rect id="d4_3" x="1.527" y="1.099" width="2133.33" height="2133.33" style="fill:none;"/><g id="d4_31" serif:id="d4_3"><path d="M1202.2,100.869l761.34,1769.05l105.973,-567.46l-867.313,-1201.59Z" style="fill:#008700;"/><path d="M1202.2,100.869l761.34,1769.05l-1899.18,-162.187l1137.84,-1606.86Z" style="fill:#0f0;"/><path d="M1060.75,1184.29l-77.904,-5.014l8.716,-121.354l77.904,5.014c36.158,2.327 64.667,-2.637 85.526,-14.893c20.859,-12.256 32.171,-30.675 33.936,-55.257c1.855,-25.826 -6.641,-46.614 -25.489,-62.363c-18.847,-15.749 -46.35,-24.787 -82.508,-27.114c-27.612,-1.777 -57.43,-0.414 -89.456,4.089c-32.025,4.504 -65.413,11.889 -100.164,22.157l8.984,-125.088c34.55,-7.467 68.445,-12.71 101.684,-15.729c33.24,-3.019 64.98,-3.555 95.221,-1.608c77.576,4.992 136.907,24.91 177.995,59.752c41.088,34.843 59.609,80.425 55.564,136.745c-2.973,41.385 -17.894,74.42 -44.764,99.106c-26.871,24.686 -63.77,39.582 -110.699,44.689c51.967,12.098 90.645,34.516 116.033,67.254c25.388,32.738 36.272,74.311 32.651,124.72c-4.849,67.522 -31.393,117.55 -79.632,150.082c-48.238,32.532 -115.911,45.995 -203.019,40.389c-37.144,-2.391 -73.5,-7.701 -109.069,-15.929c-35.569,-8.229 -69.387,-19.002 -101.453,-32.319l9.185,-127.889c29.848,16.613 62.413,29.885 97.695,39.814c35.282,9.93 72.645,16.164 112.09,18.702c39.445,2.539 71.293,-4.086 95.543,-19.875c24.25,-15.788 37.425,-38.308 39.526,-67.557c2.57,-35.784 -6.952,-64.14 -28.564,-85.069c-21.613,-20.929 -53.457,-32.747 -95.532,-35.455Z" style="fill:#053590;fill-rule:nonzero;"/></g></svg>