<?xml version="1.0" encoding="UTF-8" standalone="no"?><!DOCTYPE svg PUBLIC "-//W3C//DTD SVG 1.1//EN" "http://www.w3.org/Graphics/SVG/1.1/DTD/svg11.dtd"><svg width="100%" height="100%" viewBox="0 0 2136 2136" version="1.1" xmlns="http://www.w3.org/2000/svg" xmlns:xlink="http://www.w3.org/1999/xlink" xml:space="preserve" xmlns:serif="http://www.serif.com/" style="fill-rule:evenodd;clip-rule:evenodd;stroke-linejoin:round;stroke-miterlimit:2;"><rect id="d6_1" x="1.058" y="0.308" width="2133.33" height="2133.33" style="fill:none;"/><g id="d6_11" serif:id="d6_1"><path d="M1067.24,64.789l878.397,507.295l-878.397,507.294l-878.398,-507.294l878.398,-507.295Z" style="fill:#0f0;"/><path d="M1067.24,2069.16l879.376,-512.999l-0.979,-984.077l-878.397,507.294l-0,989.782Z" style="fill:#008700;"/><path d="M1067.24,2069.16l-877.411,-512.947l-0.979,-984.077l878.39,507.242l-0,989.782Z" style="fill:#00d800;"/><path d="M898.603,360.972l438.304,273.95l107.634,-64.583l95.021,59.391l-330.484,198.292l-95.021,-59.392l107.625,-64.575l-344.716,-215.446l-84.759,82.355l-93.595,-58.496l84.129,-81.979l115.862,-69.517Z" style="fill:#083590;fill-rule:nonzero;"/></g></svg>