<?xml version="1.0" encoding="UTF-8" standalone="no"?><!DOCTYPE svg PUBLIC "-//W3C//DTD SVG 1.1//EN" "http://www.w3.org/Graphics/SVG/1.1/DTD/svg11.dtd"><svg width="100%" height="100%" viewBox="0 0 2136 2136" version="1.1" xmlns="http://www.w3.org/2000/svg" xmlns:xlink="http://www.w3.org/1999/xlink" xml:space="preserve" xmlns:serif="http://www.serif.com/" style="fill-rule:evenodd;clip-rule:evenodd;stroke-linejoin:round;stroke-miterlimit:2;"><rect id="d6_3" x="0.335" y="1.7" width="2133.33" height="2133.33" style="fill:none;"/><g id="d6_31" serif:id="d6_3"><path d="M1066.51,66.181l878.397,507.295l-878.397,507.294l-878.398,-507.294l878.398,-507.295Z" style="fill:#0f0;"/><path d="M994.557,334.405c45.104,0.303 87.68,12.965 127.718,37.987c31.221,19.51 49.763,39.774 55.633,60.781c5.624,20.851 -1.345,42.114 -20.929,63.788c40.262,-12.771 79.945,-16.729 119.057,-11.88c39.081,4.581 76.376,17.958 111.884,40.155c52.908,33.064 75.754,68.697 68.534,106.896c-7.459,38.052 -44.615,77.134 -111.47,117.245c-23.585,14.15 -49.542,26.951 -77.86,38.393c-27.877,11.469 -57.809,21.397 -89.8,29.794l-106.166,-66.353c35.02,-5.248 66.725,-12.312 95.139,-21.185c28.379,-9.145 53.137,-20.047 74.261,-32.722c31.377,-18.827 49.057,-37.178 53.037,-55.04c4.183,-17.984 -5.524,-34.345 -29.114,-49.088c-24.313,-15.193 -51.268,-21.5 -80.889,-18.909c-29.655,2.319 -61.196,13.51 -94.623,33.57l-47.375,28.422l-88.658,-55.412l49.836,-29.902c29.733,-17.845 46.527,-34.478 50.364,-49.922c3.599,-15.587 -5.684,-30.309 -27.851,-44.161c-20.492,-12.809 -43.416,-18.463 -68.767,-16.975c-25.35,1.488 -50.956,9.989 -76.796,25.493c-19.078,11.443 -35.845,24.572 -50.325,39.389c-14.479,14.817 -26.471,31.061 -35.975,48.737l-100.81,-63.009c15.914,-18.951 33.435,-36.494 52.367,-52.431c19.436,-16.366 40.157,-31.142 61.962,-44.187c59.678,-35.806 115.722,-55.416 168.132,-58.838c6.484,-0.462 12.984,-0.675 19.484,-0.636Zm-550.892,603.739c27.648,5.49 54.971,13.497 81.979,24.022c27.007,10.266 53.483,23.188 79.426,38.753c56.987,34.197 101.221,75.957 132.693,125.287c31.684,49.459 47.522,101.42 47.522,155.867c-0,31.481 -6.697,56.879 -20.095,76.195c-13.398,19.056 -41.573,38.536 -84.527,58.436l-101.752,47.327l209.566,125.741l0,109.536l-346.084,-207.651l0,-109.535l173.838,-81.884c15.522,-7.717 27.012,-17.468 34.453,-29.261c7.441,-11.789 11.161,-26.454 11.161,-44.005c0,-27.094 -7.553,-53.426 -22.651,-78.998c-14.882,-25.445 -34.764,-45.639 -59.643,-60.564c-19.139,-11.486 -40.085,-19.022 -62.836,-22.613c-22.755,-3.845 -47.102,-3.742 -73.045,0.303l-0,-126.956l-0.005,-0Zm1132.89,32.216l0,483.522l111.742,-67.045l0,104.82l-343.125,205.877l0,-104.82l111.751,-67.05l-0,-380.277l-114.71,97.194l0,-103.241l114.048,-96.804l120.294,-72.176Z" style="fill:#083590;fill-rule:nonzero;"/><path d="M1066.51,2070.55l879.376,-512.999l-0.979,-984.077l-878.397,507.294l-0,989.782Z" style="fill:#008700;"/><path d="M1066.51,2070.55l-877.411,-512.947l-0.979,-984.077l878.39,507.242l-0,989.782Z" style="fill:#00d800;"/></g></svg>