<?xml version="1.0" encoding="UTF-8" standalone="no"?><!DOCTYPE svg PUBLIC "-//W3C//DTD SVG 1.1//EN" "http://www.w3.org/Graphics/SVG/1.1/DTD/svg11.dtd"><svg width="100%" height="100%" viewBox="0 0 2136 2136" version="1.1" xmlns="http://www.w3.org/2000/svg" xmlns:xlink="http://www.w3.org/1999/xlink" xml:space="preserve" xmlns:serif="http://www.serif.com/" style="fill-rule:evenodd;clip-rule:evenodd;stroke-linejoin:round;stroke-miterlimit:2;"><rect id="d6_4" x="1.999" y="0.62" width="2133.33" height="2133.33" style="fill:none;"/><g id="d6_41" serif:id="d6_4"><path d="M1068.18,65.101l878.397,507.294l-878.397,507.295l-878.398,-507.295l878.398,-507.294Z" style="fill:#0f0;"/><path d="M925.703,324.293l349.381,218.357l59.5,-35.698l103.471,64.674l-59.492,35.703l100.875,63.048l-101.671,61.006l-100.884,-63.052l-184.912,110.95l-122.388,-76.502l-163.43,-306.76l119.55,-71.726Zm15.903,134.488l113.931,215.602l117.876,-70.731l-231.807,-144.871Zm702.511,472.712l0,109.406l-200.131,120.078l-0,89.289c8.642,-8.176 17.683,-15.92 27.089,-23.205c9.098,-7.251 18.664,-13.896 28.634,-19.891c56.036,-33.622 99.66,-42.144 130.863,-25.558c31.2,16.326 46.8,55.936 46.8,118.815c-0,62.364 -17.036,121.419 -51.108,177.173c-33.873,55.624 -80.984,101.537 -141.332,137.746c-26.069,15.643 -51.935,27.946 -77.592,36.901c-25.455,9.085 -50.805,14.76 -76.052,17.023l-0,-117.132c25.043,3.015 48.754,2.319 71.124,-2.085c22.511,-4.499 44.074,-12.858 63.736,-24.706c28.738,-17.244 51.315,-39.558 67.737,-66.937c16.625,-27.756 24.944,-56.706 24.944,-86.859c0,-30.412 -8.319,-49.39 -24.944,-56.939c-16.422,-7.67 -38.999,-2.89 -67.737,14.354c-17.036,10.222 -35.205,23.962 -54.5,41.21c-19.294,16.988 -40.024,37.93 -62.195,62.827l-0,-324.709l294.66,-176.801l0.004,-0Zm-1097.98,71.272c25.831,0.549 55.391,10.81 88.675,30.779c20.004,12.005 39.419,25.688 58.259,41.046c18.836,15.362 37.485,32.631 55.936,51.813l0,104.967c-18.451,-22.482 -35.828,-41.27 -52.142,-56.386c-16.313,-15.366 -32.246,-27.708 -47.781,-37.031c-33.406,-20.042 -59.427,-23.49 -78.072,-10.334c-18.645,12.9 -29.525,42.248 -32.632,88.052c12.819,-4.733 26.709,-5.659 41.66,-2.769c14.96,2.63 31.269,9.258 48.941,19.861c44.472,26.683 80.313,65.163 107.502,115.449c27.384,50.407 41.072,103.12 41.072,158.139c-0,60.85 -15.245,100.516 -45.735,118.984c-30.495,18.212 -71.371,11.94 -122.644,-18.827c-56.515,-33.908 -100.312,-85.033 -131.386,-153.372c-30.879,-68.472 -46.319,-148.47 -46.319,-240c-0,-93.81 18.061,-156.629 54.184,-188.456c15.889,-13.982 34.344,-21.284 55.36,-21.898c1.687,-0.052 3.4,-0.056 5.122,-0.017Zm38.415,303.93c-7.376,-0.246 -13.54,2.336 -18.493,7.731c-9.708,10.655 -14.566,32.579 -14.566,65.795c-0,33.215 4.858,61.105 14.566,83.666c9.906,22.421 24.667,39.518 44.285,51.285c19.809,11.888 34.565,12.502 44.273,1.851c9.907,-10.789 14.864,-32.791 14.864,-66.006c0,-33.216 -4.957,-61.041 -14.864,-83.463c-9.712,-22.56 -24.464,-39.782 -44.273,-51.666c-9.807,-5.883 -18.407,-8.95 -25.787,-9.193l-0.005,0Z" style="fill:#083590;fill-rule:nonzero;"/><path d="M1068.18,2069.47l879.376,-513l-0.979,-984.077l-878.397,507.295l-0,989.782Z" style="fill:#008700;"/><path d="M1068.18,2069.47l-877.411,-512.948l-0.979,-984.077l878.39,507.243l-0,989.782Z" style="fill:#00d800;"/></g></svg>