<?xml version="1.0" encoding="UTF-8" standalone="no"?><!DOCTYPE svg PUBLIC "-//W3C//DTD SVG 1.1//EN" "http://www.w3.org/Graphics/SVG/1.1/DTD/svg11.dtd"><svg width="100%" height="100%" viewBox="0 0 2136 2136" version="1.1" xmlns="http://www.w3.org/2000/svg" xmlns:xlink="http://www.w3.org/1999/xlink" xml:space="preserve" xmlns:serif="http://www.serif.com/" style="fill-rule:evenodd;clip-rule:evenodd;stroke-linejoin:round;stroke-miterlimit:2;"><rect id="d6_5" x="1.95" y="1.178" width="2133.33" height="2133.33" style="fill:none;"/><g id="d6_51" serif:id="d6_5"><path d="M1068.13,65.66l878.398,507.294l-878.398,507.294l-878.398,-507.294l878.398,-507.294Z" style="fill:#0f0;"/><path d="M937.962,298.921l102.96,64.35l-200.136,120.091l84.042,52.519c6.25,-7.361 13.125,-14.167 20.549,-20.341c7.54,-6.606 16.231,-12.866 26.086,-18.775c56.035,-33.622 116.276,-49.417 180.703,-47.371c64.19,1.899 125.867,21.341 185.051,58.328c58.696,36.685 87.629,75.641 86.781,116.856c-0.64,41.088 -31.139,79.729 -91.487,115.938c-26.069,15.643 -54.963,29.274 -86.681,40.881c-31.278,11.633 -65.609,21.232 -102.982,28.803l-110.241,-68.906c42.024,-4.412 78.466,-10.681 109.328,-18.801c31.07,-8.241 56.563,-18.333 76.476,-30.282c28.738,-17.239 43.07,-35.941 43.001,-56.1c-0.112,-20.436 -14.354,-39.527 -42.733,-57.264c-28.621,-17.888 -59.491,-26.995 -92.612,-27.323c-32.917,-0.455 -63.74,7.934 -92.478,25.177c-17.036,10.223 -32.536,22.79 -46.496,37.702c-14.202,14.76 -26.93,32.203 -38.182,52.328l-305.613,-191.008l294.66,-176.802l0.004,0Zm-675.767,387.973c-26.939,0 8.976,0.005 -0,0.005l-0,-0.005Zm1372.64,256.505l0,104.967c-18.446,-0.342 -35.824,1.717 -52.137,6.186c-16.314,4.209 -32.247,10.98 -47.782,20.302c-33.405,20.043 -59.426,47.825 -78.072,83.35c-18.645,35.275 -29.525,77.674 -32.631,127.208c12.818,-20.116 26.709,-37.702 41.66,-52.761c14.959,-15.314 31.268,-28.271 48.94,-38.874c44.472,-26.683 80.313,-31.195 107.503,-13.536c27.383,17.542 41.071,53.825 41.071,108.843c0,60.851 -15.245,118.802 -45.735,173.864c-30.494,54.803 -71.371,97.587 -122.643,128.354c-56.516,33.908 -100.313,35.344 -131.387,4.292c-30.879,-31.42 -46.319,-92.898 -46.319,-184.424c0,-93.81 18.062,-178.302 54.184,-253.472c36.317,-75.541 86.041,-132.247 149.158,-170.117c20.003,-12.005 39.419,-21.631 58.259,-28.881c18.835,-7.246 37.485,-12.347 55.935,-15.301l-0.004,-0Zm-1050.32,58.756l119.551,71.726l-0,371.214l59.5,35.694l0,109.942l-59.5,-35.698l-0,107.186l-101.671,-61.006l-0,-107.182l-184.913,-110.95l0,-130.041l167.033,-250.889l0,0.004Zm17.88,135.643l-117.876,175.56l117.876,70.731l-0,-246.291Zm919.7,152.199c-7.38,0.247 -16.019,3.344 -25.921,9.288c-19.619,11.767 -34.379,28.989 -44.286,51.666c-9.708,22.305 -14.566,50.061 -14.566,83.277c0,33.215 4.858,55.274 14.566,66.184c9.907,10.538 24.667,9.928 44.286,-1.843c19.809,-11.888 34.565,-28.989 44.272,-51.294c9.907,-22.677 14.865,-50.623 14.865,-83.839c-0,-33.211 -4.958,-55.083 -14.865,-65.626c-4.853,-5.451 -10.97,-8.055 -18.351,-7.813Z" style="fill:#083590;fill-rule:nonzero;"/><path d="M1068.13,2070.03l879.376,-512.999l-0.978,-984.077l-878.398,507.294l-0,989.782Z" style="fill:#008700;"/><path d="M1068.13,2070.03l-877.411,-512.947l-0.978,-984.077l878.389,507.242l-0,989.782Z" style="fill:#00d800;"/></g></svg>