<?xml version="1.0" encoding="UTF-8" standalone="no"?><!DOCTYPE svg PUBLIC "-//W3C//DTD SVG 1.1//EN" "http://www.w3.org/Graphics/SVG/1.1/DTD/svg11.dtd"><svg width="100%" height="100%" viewBox="0 0 2136 2136" version="1.1" xmlns="http://www.w3.org/2000/svg" xmlns:xlink="http://www.w3.org/1999/xlink" xml:space="preserve" xmlns:serif="http://www.serif.com/" style="fill-rule:evenodd;clip-rule:evenodd;stroke-linejoin:round;stroke-miterlimit:2;"><rect id="d6_6" x="0.995" y="0.482" width="2133.33" height="2133.33" style="fill:none;"/><g id="d6_61" serif:id="d6_6"><path d="M1067.17,64.963l878.398,507.294l-878.398,507.295l-878.397,-507.295l878.397,-507.294Z" style="fill:#0f0;"/><path d="M953.084,337.29l98.798,61.746c-29.188,4.356 -54.448,9.863 -75.771,16.517c-21.565,6.506 -40.111,14.423 -55.65,23.745c-33.401,20.043 -47.976,42.815 -43.715,68.322c4.024,25.35 26.921,52.981 68.676,82.887c1.125,-14.999 6.303,-28.777 15.531,-41.327c8.985,-12.701 22.318,-24.351 39.99,-34.955c44.472,-26.683 96.293,-38.199 155.456,-34.521c59.362,3.551 114.935,21.513 166.713,53.881c57.273,35.793 87.966,73.646 92.076,113.563c3.867,39.773 -19.831,75.039 -71.103,105.806c-56.516,33.908 -123.695,45.566 -201.542,34.976c-77.886,-10.85 -159.908,-43.2 -246.053,-97.037c-88.294,-55.183 -139.549,-109.346 -153.778,-162.487c-14.271,-53.413 10.158,-99.045 73.275,-136.919c20.004,-12.001 41.331,-22.461 63.982,-31.377c22.66,-8.916 47.029,-16.525 73.115,-22.82Zm167.323,230.276c-18.036,-0.031 -34.488,4.412 -49.343,13.324c-19.615,11.767 -26.497,25.55 -20.653,41.335c5.801,15.518 24.33,33.051 55.59,52.588c31.26,19.536 59.613,31.307 85.076,35.326c25.415,3.751 47.937,-0.255 67.551,-12.026c19.813,-11.884 26.813,-25.589 21.016,-41.111c-5.844,-15.79 -24.399,-33.449 -55.659,-52.985c-31.26,-19.537 -59.6,-31.178 -85.015,-34.929c-6.139,-0.986 -12.346,-1.495 -18.563,-1.522Zm-697.247,372.126l294.665,176.801l-0,109.393l-200.132,-120.082l0,89.289c9.254,2.406 18.311,5.517 27.09,9.306c9.236,3.737 18.779,8.565 28.634,14.475c56.035,33.622 99.659,77.445 130.863,131.468c31.199,53.773 46.799,112.097 46.799,174.98c-0,62.365 -17.036,100.979 -51.108,115.839c-33.873,14.985 -80.984,4.369 -141.332,-31.84c-26.069,-15.639 -51.934,-34.383 -77.592,-56.221c-25.454,-21.457 -50.805,-46.202 -76.052,-74.235l0,-117.132c25.044,33.064 48.755,60.824 71.125,83.268c22.582,22.569 43.823,39.821 63.735,51.769c28.738,17.244 51.316,22.029 67.738,14.354c16.625,-7.804 24.944,-26.778 24.944,-56.931c-0,-30.412 -8.319,-59.366 -24.944,-86.867c-16.422,-27.375 -39,-49.684 -67.738,-66.924c-17.112,-10.257 -35.414,-18.384 -54.499,-24.199c-19.294,-6.169 -40.025,-10.102 -62.196,-11.806l0,-324.705Zm1168.24,24.797l0,371.214l59.501,-35.699l-0,109.943l-59.501,35.698l0,107.187l-101.67,61.006l-0,-107.191l-184.913,110.95l0,-130.041l167.033,-451.341l119.55,-71.726Zm-101.67,185.925l-117.877,317.013l117.877,-70.722l-0,-246.291Z" style="fill:#083590;fill-rule:nonzero;"/><path d="M1067.17,2069.33l879.376,-513l-0.978,-984.077l-878.398,507.295l0,989.782Z" style="fill:#008700;"/><path d="M1067.17,2069.33l-877.411,-512.948l-0.978,-984.077l878.389,507.243l0,989.782Z" style="fill:#00d800;"/></g></svg>