<?xml version="1.0" encoding="UTF-8" standalone="no"?><!DOCTYPE svg PUBLIC "-//W3C//DTD SVG 1.1//EN" "http://www.w3.org/Graphics/SVG/1.1/DTD/svg11.dtd"><svg width="100%" height="100%" viewBox="0 0 2136 2136" version="1.1" xmlns="http://www.w3.org/2000/svg" xmlns:xlink="http://www.w3.org/1999/xlink" xml:space="preserve" xmlns:serif="http://www.serif.com/" style="fill-rule:evenodd;clip-rule:evenodd;stroke-linejoin:round;stroke-miterlimit:2;"><rect id="d8_1" x="0.744" y="1.57" width="2133.33" height="2133.33" style="fill:none;"/><g id="d8_11" serif:id="d8_1"><path d="M1067.41,63.688l881.771,1540.06l-1763.54,-0l881.771,-1540.06Z" style="fill:#0f0;"/><path d="M1067.41,63.688l-844.074,550.945l-37.697,989.112l881.771,-1540.06Z" style="fill:#00d800;"/><path d="M1067.41,63.688l881.771,1540.06l-30.446,-992.082l-851.325,-547.975Z" style="fill:#00d800;"/><path d="M1067.41,2072.78l881.771,-469.04l-1763.54,-0l881.771,469.04Z" style="fill:#008700;"/><path d="M823.174,1271.28l170.218,0l-0,-473.144l-158.354,37.109l-0,-129.883l159.386,-36.133l147.006,0l-0,602.051l170.218,0l-0,126.953l-488.474,0l0,-126.953Z" style="fill:#053590;fill-rule:nonzero;"/></g></svg>