<?xml version="1.0" encoding="UTF-8" standalone="no"?><!DOCTYPE svg PUBLIC "-//W3C//DTD SVG 1.1//EN" "http://www.w3.org/Graphics/SVG/1.1/DTD/svg11.dtd"><svg width="100%" height="100%" viewBox="0 0 2136 2136" version="1.1" xmlns="http://www.w3.org/2000/svg" xmlns:xlink="http://www.w3.org/1999/xlink" xml:space="preserve" xmlns:serif="http://www.serif.com/" style="fill-rule:evenodd;clip-rule:evenodd;stroke-linejoin:round;stroke-miterlimit:2;"><rect id="d8_2" x="0.883" y="1.57" width="2133.33" height="2133.33" style="fill:none;"/><g id="d8_21" serif:id="d8_2"><path d="M1067.55,63.688l881.77,1540.06l-1763.54,-0l881.771,-1540.06Z" style="fill:#0f0;"/><path d="M1067.55,63.688l-844.074,550.945l-37.697,989.112l881.771,-1540.06Z" style="fill:#00d800;"/><path d="M1067.55,63.688l881.77,1540.06l-30.445,-992.082l-851.325,-547.975Z" style="fill:#00d800;"/><path d="M1067.55,2072.78l881.77,-469.04l-1763.54,-0l881.771,469.04Z" style="fill:#008700;"/><path d="M987.599,1277.88l324.445,0l0,126.953l-488.989,0l-0,-123.047l82.53,-83.008c98.004,-98.632 157.494,-159.342 178.47,-182.128c25.791,-27.995 44.36,-52.816 55.708,-74.463c11.348,-21.647 17.022,-43.05 17.022,-64.209c-0,-32.552 -10.402,-57.699 -31.207,-75.44c-20.804,-17.741 -50.291,-26.611 -88.461,-26.611c-27.166,-0 -57.685,5.127 -91.557,15.381c-33.872,10.254 -69.205,25.146 -105.999,44.677l-0,-134.277c36.794,-12.695 72.815,-22.379 108.062,-29.053c35.247,-6.673 69.033,-10.009 101.357,-10.009c81.499,-0 145.545,17.985 192.14,53.955c46.595,35.97 69.893,85.042 69.893,147.217c-0,28.645 -5.072,55.501 -15.217,80.566c-10.144,25.065 -27.596,52.897 -52.355,83.496c-18.225,22.135 -68.259,71.94 -150.101,149.414c-44.36,41.992 -79.607,75.521 -105.741,100.586Z" style="fill:#053590;fill-rule:nonzero;"/></g></svg>