<?xml version="1.0" encoding="UTF-8" standalone="no"?><!DOCTYPE svg PUBLIC "-//W3C//DTD SVG 1.1//EN" "http://www.w3.org/Graphics/SVG/1.1/DTD/svg11.dtd"><svg width="100%" height="100%" viewBox="0 0 2136 2136" version="1.1" xmlns="http://www.w3.org/2000/svg" xmlns:xlink="http://www.w3.org/1999/xlink" xml:space="preserve" xmlns:serif="http://www.serif.com/" style="fill-rule:evenodd;clip-rule:evenodd;stroke-linejoin:round;stroke-miterlimit:2;"><rect id="d8_5" x="1.299" y="1.57" width="2133.33" height="2133.33" style="fill:none;"/><g id="d8_51" serif:id="d8_5"><path d="M1067.96,63.688l881.771,1540.06l-1763.54,-0l881.771,-1540.06Z" style="fill:#0f0;"/><path d="M1067.96,63.688l-844.074,550.945l-37.697,989.112l881.771,-1540.06Z" style="fill:#00d800;"/><path d="M1067.96,63.688l881.771,1540.06l-30.445,-992.082l-851.326,-547.975Z" style="fill:#00d800;"/><path d="M1067.96,2072.78l881.771,-469.04l-1763.54,-0l881.771,469.04Z" style="fill:#008700;"/><path d="M848.487,662.152l418.324,0l-0,126.953l-295.045,0l0,135.254c12.38,-4.557 25.619,-7.893 39.718,-10.009c14.099,-2.116 29.057,-3.174 44.876,-3.174c76.34,-0 138.237,22.786 185.692,68.359c47.454,45.573 71.182,104.818 71.182,177.735c-0,76.497 -25.705,136.962 -77.114,181.396c-51.409,44.434 -121.474,66.65 -210.193,66.65c-33.012,0 -66.368,-2.604 -100.068,-7.812c-33.7,-5.208 -68.087,-13.021 -103.162,-23.438l-0,-129.882c28.541,13.346 57.857,23.356 87.946,30.029c30.089,6.673 60.264,10.01 90.525,10.01c53.644,-0 94.393,-10.824 122.247,-32.471c27.854,-21.647 41.781,-53.141 41.781,-94.482c-0,-38.086 -13.841,-68.604 -41.523,-91.553c-27.682,-22.949 -64.562,-34.424 -110.642,-34.424c-27.166,-0 -54.418,3.174 -81.756,9.521c-27.338,6.348 -54.934,15.87 -82.788,28.565l0,-407.227Z" style="fill:#053590;fill-rule:nonzero;"/></g></svg>