<?xml version="1.0" encoding="UTF-8" standalone="no"?><!DOCTYPE svg PUBLIC "-//W3C//DTD SVG 1.1//EN" "http://www.w3.org/Graphics/SVG/1.1/DTD/svg11.dtd"><svg width="100%" height="100%" viewBox="0 0 2136 2136" version="1.1" xmlns="http://www.w3.org/2000/svg" xmlns:xlink="http://www.w3.org/1999/xlink" xml:space="preserve" xmlns:serif="http://www.serif.com/" style="fill-rule:evenodd;clip-rule:evenodd;stroke-linejoin:round;stroke-miterlimit:2;"><rect id="d8_6" x="1.437" y="1.57" width="2133.33" height="2133.33" style="fill:none;"/><g id="d8_61" serif:id="d8_6"><path d="M1068.1,63.688l881.771,1540.06l-1763.54,-0l881.771,-1540.06Z" style="fill:#0f0;"/><path d="M1068.1,63.688l-844.074,550.945l-37.697,989.112l881.771,-1540.06Z" style="fill:#00d800;"/><path d="M1068.1,63.688l881.771,1540.06l-30.446,-992.082l-851.325,-547.975Z" style="fill:#00d800;"/><path d="M1068.1,2072.78l881.771,-469.04l-1763.54,-0l881.771,469.04Z" style="fill:#008700;"/><path d="M1076.62,1031.54c-33.012,0 -58.201,11.312 -75.567,33.936c-17.365,22.623 -26.048,55.42 -26.048,98.388c-0,42.644 8.683,75.277 26.048,97.901c17.366,22.623 42.555,33.935 75.567,33.935c33.012,0 58.372,-11.312 76.082,-33.935c17.71,-22.624 26.564,-55.257 26.564,-97.901c0,-42.643 -8.854,-75.358 -26.564,-98.144c-17.71,-22.787 -43.07,-34.18 -76.082,-34.18Zm199.619,-346.68l-0,130.86c-27.166,-14.649 -53.215,-25.635 -78.146,-32.959c-24.93,-7.324 -48.916,-10.986 -71.955,-10.986c-55.02,-0 -96.887,17.496 -125.6,52.49c-28.714,34.993 -43.758,86.67 -45.134,155.029c16.162,-21.159 36.795,-37.028 61.897,-47.607c25.103,-10.58 54.676,-15.87 88.72,-15.87c69.463,0 123.107,20.752 160.933,62.256c37.827,41.504 56.74,100.342 56.74,176.514c-0,81.706 -21.235,145.02 -63.703,189.941c-42.469,44.922 -102.217,67.383 -179.245,67.383c-93.877,0 -162.051,-29.785 -204.519,-89.355c-42.469,-59.571 -63.703,-155.762 -63.703,-288.574c0,-126.303 25.963,-220.948 77.888,-283.936c51.925,-62.988 129.812,-94.482 233.662,-94.482c24.072,-0 48.917,2.441 74.535,7.324c25.619,4.883 51.495,12.207 77.63,21.972Z" style="fill:#053590;fill-rule:nonzero;"/></g></svg>