<?xml version="1.0" encoding="UTF-8" standalone="no"?><!DOCTYPE svg PUBLIC "-//W3C//DTD SVG 1.1//EN" "http://www.w3.org/Graphics/SVG/1.1/DTD/svg11.dtd"><svg width="100%" height="100%" viewBox="0 0 2136 2136" version="1.1" xmlns="http://www.w3.org/2000/svg" xmlns:xlink="http://www.w3.org/1999/xlink" xml:space="preserve" xmlns:serif="http://www.serif.com/" style="fill-rule:evenodd;clip-rule:evenodd;stroke-linejoin:round;stroke-miterlimit:2;"><rect id="d8_8" x="1.714" y="1.57" width="2133.33" height="2133.33" style="fill:none;"/><g id="d8_81" serif:id="d8_8"><path d="M1068.38,63.688l881.771,1540.06l-1763.54,-0l881.771,-1540.06Z" style="fill:#0f0;"/><path d="M1068.38,63.688l-844.074,550.945l-37.697,989.112l881.771,-1540.06Z" style="fill:#00d800;"/><path d="M1068.38,63.688l881.771,1540.06l-30.446,-992.082l-851.325,-547.975Z" style="fill:#00d800;"/><path d="M1068.38,2072.78l881.771,-469.04l-1763.54,-0l881.771,469.04Z" style="fill:#008700;"/><path d="M1068.12,1072.55c-34.043,-0 -61.553,10.172 -82.53,30.517c-20.976,20.345 -31.464,47.282 -31.464,80.811c-0,33.529 10.488,60.547 31.464,81.055c20.977,20.507 48.487,30.761 82.53,30.761c34.044,0 61.64,-10.416 82.788,-31.25c21.148,-20.833 31.722,-47.689 31.722,-80.566c0,-33.529 -10.488,-60.466 -31.464,-80.811c-20.976,-20.345 -48.658,-30.517 -83.046,-30.517Zm-112.963,-61.035c-38.857,-12.696 -68.431,-32.634 -88.719,-59.815c-20.289,-27.181 -30.433,-60.465 -30.433,-99.853c-0,-60.547 20.804,-108.399 62.413,-143.555c41.609,-35.156 98.176,-52.734 169.702,-52.734c71.87,-0 128.609,17.578 170.218,52.734c41.609,35.156 62.413,83.008 62.413,143.555c0,39.062 -9.972,72.184 -29.917,99.365c-19.945,27.181 -49.002,47.282 -87.172,60.303c42.64,12.369 75.996,34.505 100.067,66.406c24.072,31.901 36.107,70.15 36.107,114.746c0,69.987 -21.836,124.023 -65.508,162.109c-43.672,38.086 -105.741,57.129 -186.208,57.129c-80.123,0 -142.02,-19.043 -185.692,-57.129c-43.672,-38.086 -65.508,-92.122 -65.508,-162.109c-0,-44.922 12.207,-83.333 36.622,-115.234c24.416,-31.901 58.287,-53.874 101.615,-65.918Zm15.991,-147.95c-0,28.646 8.682,51.351 26.048,68.116c17.366,16.764 41.007,25.146 70.924,25.146c30.261,0 54.074,-8.382 71.44,-25.146c17.366,-16.765 26.049,-39.47 26.049,-68.116c-0,-28.32 -8.683,-50.699 -26.049,-67.138c-17.366,-16.439 -41.179,-24.658 -71.44,-24.658c-29.573,-0 -53.128,8.3 -70.666,24.902c-17.538,16.601 -26.306,38.9 -26.306,66.894Z" style="fill:#053590;fill-rule:nonzero;"/></g></svg>