<?xml version="1.0" encoding="UTF-8" standalone="no"?><!DOCTYPE svg PUBLIC "-//W3C//DTD SVG 1.1//EN" "http://www.w3.org/Graphics/SVG/1.1/DTD/svg11.dtd"><svg width="100%" height="100%" viewBox="0 0 2134 2134" version="1.1" xmlns="http://www.w3.org/2000/svg" xmlns:xlink="http://www.w3.org/1999/xlink" xml:space="preserve" xmlns:serif="http://www.serif.com/" style="fill-rule:evenodd;clip-rule:evenodd;stroke-linejoin:round;stroke-miterlimit:2;"><rect id="icon" x="0" y="0" width="2133.33" height="2133.33" style="fill:none;"/><g id="icon1" serif:id="icon"><path d="M1066.67,944.726l661.061,410.683l-661.061,410.684l-661.061,-410.684l661.061,-410.683Z" style="fill:#727272;fill-opacity:0.34;"/><g><path d="M1066.37,465.184l527.189,304.463l-527.189,304.464l-527.189,-304.464l527.189,-304.463Z" style="fill:#0f0;"/><path d="M1066.37,1668.15l527.776,-307.887l-0.587,-590.615l-527.189,304.464l0,594.038Z" style="fill:#008700;"/><path d="M1066.37,1668.15l-526.597,-307.856l-0.587,-590.614l527.184,304.432l0,594.038Z" style="fill:#00d800;"/><path d="M712.315,996.878c14.248,3.628 28.198,8.339 41.729,14.091c13.786,5.842 27.326,12.748 40.62,20.727c35.817,21.49 62.585,44.847 80.308,70.071c17.848,25.145 26.776,52.309 26.776,81.487c0,19.909 -4.25,33.7 -12.743,41.368c-8.495,7.519 -21.046,8.877 -37.662,4.073c18.584,17.079 32.68,35.867 42.281,56.367c9.724,20.426 14.584,41.958 14.584,64.603c0,33.738 -10.463,53.148 -31.39,58.219c-20.927,4.922 -51.447,-4.656 -91.574,-28.732c-14.153,-8.492 -28.373,-18.465 -42.65,-29.918c-14.156,-11.229 -28.187,-23.834 -42.095,-37.8l-0,-67.703c13.293,16.183 26.467,30.32 39.514,42.404c13.169,12.005 26.088,21.809 38.766,29.417c18.834,11.299 33.236,15.91 43.206,13.838c10.092,-1.999 15.142,-10.518 15.142,-25.564c0,-15.5 -5.172,-30.304 -15.513,-44.41c-10.214,-14.184 -25.351,-27.299 -45.416,-39.335l-28.43,-17.059l0,-56.533l29.908,17.946c17.847,10.708 31.138,15.267 39.877,13.67c8.74,-1.747 13.109,-9.69 13.109,-23.822c0,-13.07 -4.245,-25.724 -12.737,-37.961c-8.496,-12.239 -20.496,-23.014 -36.007,-32.32c-11.447,-6.867 -23.017,-12.213 -34.711,-16.038c-11.691,-3.827 -23.323,-6.091 -34.895,-6.802l0,-64.286l0.003,0.002Z" style="fill:#001e5b;fill-rule:nonzero;"/><path d="M1402.21,1018.24c5.678,0.019 10.879,0.896 15.604,2.633c19.014,6.865 28.519,26.639 28.519,59.314c-0,18.897 -4.019,38.964 -12.06,60.205c-8.041,21.085 -24.951,53.07 -50.731,95.949l-61.069,101.684l125.776,-75.461l-0,65.74l-207.71,124.626l0,-65.74l104.333,-174.344c9.316,-15.812 16.212,-29.936 20.677,-42.373c4.466,-12.436 6.699,-23.92 6.699,-34.454c0,-16.261 -4.533,-26.625 -13.595,-31.099c-8.931,-4.551 -20.864,-2.352 -35.796,6.608c-11.486,6.891 -24.058,17.455 -37.712,31.689c-13.657,14.077 -28.269,31.675 -43.84,52.789l0,-76.198c16.591,-16.614 32.99,-31.486 49.202,-44.619c16.206,-13.288 32.096,-24.603 47.666,-33.947c25.652,-15.392 46.997,-23.056 64.037,-23.002Z" style="fill:#000b21;fill-rule:nonzero;"/></g><path d="M961.068,643.923l274.521,171.582l67.413,-40.45l59.514,37.198l-206.99,124.195l-59.514,-37.198l67.408,-40.445l-215.904,-134.939l-53.086,51.58l-58.622,-36.637l52.692,-51.346l72.568,-43.54Z" style="fill:#083590;fill-rule:nonzero;"/></g></svg>